%TF.GenerationSoftware,KiCad,Pcbnew,8.0.6*%
%TF.CreationDate,2025-01-26T17:36:12+01:00*%
%TF.ProjectId,cd-changer,63642d63-6861-46e6-9765-722e6b696361,rev?*%
%TF.SameCoordinates,Original*%
%TF.FileFunction,Copper,L2,Bot*%
%TF.FilePolarity,Positive*%
%FSLAX46Y46*%
G04 Gerber Fmt 4.6, Leading zero omitted, Abs format (unit mm)*
G04 Created by KiCad (PCBNEW 8.0.6) date 2025-01-26 17:36:12*
%MOMM*%
%LPD*%
G01*
G04 APERTURE LIST*
G04 Aperture macros list*
%AMRoundRect*
0 Rectangle with rounded corners*
0 $1 Rounding radius*
0 $2 $3 $4 $5 $6 $7 $8 $9 X,Y pos of 4 corners*
0 Add a 4 corners polygon primitive as box body*
4,1,4,$2,$3,$4,$5,$6,$7,$8,$9,$2,$3,0*
0 Add four circle primitives for the rounded corners*
1,1,$1+$1,$2,$3*
1,1,$1+$1,$4,$5*
1,1,$1+$1,$6,$7*
1,1,$1+$1,$8,$9*
0 Add four rect primitives between the rounded corners*
20,1,$1+$1,$2,$3,$4,$5,0*
20,1,$1+$1,$4,$5,$6,$7,0*
20,1,$1+$1,$6,$7,$8,$9,0*
20,1,$1+$1,$8,$9,$2,$3,0*%
G04 Aperture macros list end*
%TA.AperFunction,Conductor*%
%ADD10C,2.000000*%
%TD*%
%TA.AperFunction,ComponentPad*%
%ADD11RoundRect,0.875000X-0.875000X0.875000X-0.875000X-0.875000X0.875000X-0.875000X0.875000X0.875000X0*%
%TD*%
%TA.AperFunction,ComponentPad*%
%ADD12RoundRect,0.750000X-1.000000X0.750000X-1.000000X-0.750000X1.000000X-0.750000X1.000000X0.750000X0*%
%TD*%
%TA.AperFunction,ComponentPad*%
%ADD13R,2.200000X1.500000*%
%TD*%
%TA.AperFunction,ComponentPad*%
%ADD14C,2.000000*%
%TD*%
%TA.AperFunction,ComponentPad*%
%ADD15O,2.000000X2.500000*%
%TD*%
%TA.AperFunction,ComponentPad*%
%ADD16O,2.000000X3.300000*%
%TD*%
%TA.AperFunction,ComponentPad*%
%ADD17O,4.500000X2.000000*%
%TD*%
%TA.AperFunction,ComponentPad*%
%ADD18C,6.400000*%
%TD*%
%TA.AperFunction,ComponentPad*%
%ADD19C,1.400000*%
%TD*%
%TA.AperFunction,ComponentPad*%
%ADD20O,1.400000X1.400000*%
%TD*%
%TA.AperFunction,ComponentPad*%
%ADD21R,3.000000X3.000000*%
%TD*%
%TA.AperFunction,ComponentPad*%
%ADD22C,3.000000*%
%TD*%
%TA.AperFunction,ComponentPad*%
%ADD23R,1.600000X1.600000*%
%TD*%
%TA.AperFunction,ComponentPad*%
%ADD24O,1.600000X1.600000*%
%TD*%
%TA.AperFunction,ComponentPad*%
%ADD25R,1.700000X1.700000*%
%TD*%
%TA.AperFunction,ComponentPad*%
%ADD26O,1.700000X1.700000*%
%TD*%
%TA.AperFunction,ComponentPad*%
%ADD27R,1.050000X1.500000*%
%TD*%
%TA.AperFunction,ComponentPad*%
%ADD28O,1.050000X1.500000*%
%TD*%
%TA.AperFunction,ComponentPad*%
%ADD29C,1.600000*%
%TD*%
%TA.AperFunction,ComponentPad*%
%ADD30R,1.100000X1.800000*%
%TD*%
%TA.AperFunction,ComponentPad*%
%ADD31RoundRect,0.275000X-0.275000X-0.625000X0.275000X-0.625000X0.275000X0.625000X-0.275000X0.625000X0*%
%TD*%
%TA.AperFunction,ViaPad*%
%ADD32C,0.600000*%
%TD*%
%TA.AperFunction,Conductor*%
%ADD33C,1.000000*%
%TD*%
%TA.AperFunction,Conductor*%
%ADD34C,0.500000*%
%TD*%
%TA.AperFunction,Conductor*%
%ADD35C,0.250000*%
%TD*%
%TA.AperFunction,Conductor*%
%ADD36C,0.200000*%
%TD*%
G04 APERTURE END LIST*
D10*
%TO.N,Net-(J5-Pin_7)*%
X127000000Y-86000000D02*
X127000000Y-83500000D01*
%TD*%
D11*
%TO.P,J6,1*%
%TO.N,Net-(SW1-A)*%
X125032500Y-76150000D03*
D12*
%TO.P,J6,2*%
%TO.N,GND*%
X125032500Y-70150000D03*
D11*
%TO.P,J6,3*%
X120982500Y-73150000D03*
%TD*%
D13*
%TO.P,SW1,*%
%TO.N,*%
X112602000Y-76523000D03*
X112602000Y-89477000D03*
D14*
%TO.P,SW1,1,A*%
%TO.N,Net-(SW1-A)*%
X122000000Y-78301000D03*
%TO.P,SW1,2,B*%
%TO.N,Net-(J5-Pin_7)*%
X122000000Y-83000000D03*
%TO.P,SW1,3,C*%
%TO.N,unconnected-(SW1-C-Pad3)*%
X122000000Y-87699000D03*
%TD*%
D15*
%TO.P,J2,1,In*%
%TO.N,Net-(J2-In)*%
X180500000Y-74898000D03*
D16*
%TO.P,J2,2,Ext*%
%TO.N,GND*%
X174785000Y-74898000D03*
X186215000Y-74898000D03*
D17*
X180500000Y-65500000D03*
%TD*%
D15*
%TO.P,J1,1,In*%
%TO.N,Net-(J1-In)*%
X194500000Y-74898000D03*
D16*
%TO.P,J1,2,Ext*%
%TO.N,GND*%
X188785000Y-74898000D03*
X200215000Y-74898000D03*
D17*
X194500000Y-65500000D03*
%TD*%
D18*
%TO.P,REF\u002A\u002A,1*%
%TO.N,N/C*%
X114000000Y-68500000D03*
%TD*%
D19*
%TO.P,R3,1*%
%TO.N,Net-(J5-Pin_4)*%
X145660000Y-81720000D03*
D20*
%TO.P,R3,2*%
%TO.N,Net-(D1-K)*%
X153280000Y-81720000D03*
%TD*%
D14*
%TO.P,SW5-Disc+1,1,1*%
%TO.N,Net-(U1-D18{slash}A0)*%
X193280000Y-98220000D03*
X199780000Y-98220000D03*
%TO.P,SW5-Disc+1,2,2*%
%TO.N,GND*%
X193280000Y-102720000D03*
X199780000Y-102720000D03*
%TD*%
D19*
%TO.P,R4,1*%
%TO.N,GND*%
X125570000Y-113500000D03*
D20*
%TO.P,R4,2*%
%TO.N,Net-(J3-Pin_5)*%
X133190000Y-113500000D03*
%TD*%
D18*
%TO.P,REF\u002A\u002A,1*%
%TO.N,N/C*%
X205000000Y-114000000D03*
%TD*%
D21*
%TO.P,J5,1,Pin_1*%
%TO.N,Net-(J1-In)*%
X170280000Y-69220000D03*
D22*
%TO.P,J5,2,Pin_2*%
%TO.N,Net-(J2-In)*%
X165200000Y-69220000D03*
%TO.P,J5,3,Pin_3*%
%TO.N,GND*%
X160120000Y-69220000D03*
%TO.P,J5,4,Pin_4*%
%TO.N,Net-(J5-Pin_4)*%
X155040000Y-69220000D03*
%TO.P,J5,5,Pin_5*%
%TO.N,GND*%
X149960000Y-69220000D03*
%TO.P,J5,6,Pin_6*%
X144880000Y-69220000D03*
%TO.P,J5,7,Pin_7*%
%TO.N,Net-(J5-Pin_7)*%
X139800000Y-69220000D03*
%TO.P,J5,8,Pin_8*%
X134720000Y-69220000D03*
%TD*%
D14*
%TO.P,C2,1*%
%TO.N,GND*%
X147780000Y-87220000D03*
%TO.P,C2,2*%
%TO.N,Net-(J3-Pin_6)*%
X152780000Y-87220000D03*
%TD*%
D19*
%TO.P,R5,1*%
%TO.N,Net-(J3-Pin_5)*%
X137880000Y-113500000D03*
D20*
%TO.P,R5,2*%
%TO.N,Net-(J3-Pin_6)*%
X145500000Y-113500000D03*
%TD*%
D14*
%TO.P,SW6-Disc-1,1,1*%
%TO.N,Net-(U1-D19{slash}A1)*%
X193280000Y-107720000D03*
X199780000Y-107720000D03*
%TO.P,SW6-Disc-1,2,2*%
%TO.N,GND*%
X193280000Y-112220000D03*
X199780000Y-112220000D03*
%TD*%
%TO.P,SW3-Tr+1,1,1*%
%TO.N,Net-(U1-D14)*%
X180780000Y-98220000D03*
X187280000Y-98220000D03*
%TO.P,SW3-Tr+1,2,2*%
%TO.N,GND*%
X180780000Y-102720000D03*
X187280000Y-102720000D03*
%TD*%
D19*
%TO.P,R2,1*%
%TO.N,Net-(J5-Pin_4)*%
X149400000Y-75220000D03*
D20*
%TO.P,R2,2*%
%TO.N,Net-(J5-Pin_7)*%
X141780000Y-75220000D03*
%TD*%
D23*
%TO.P,U1,1,D1/TX*%
%TO.N,unconnected-(U1-D1{slash}TX-Pad1)*%
X173780000Y-110220000D03*
D24*
%TO.P,U1,2,D0/RX*%
%TO.N,unconnected-(U1-D0{slash}RX-Pad2)*%
X173780000Y-107680000D03*
%TO.P,U1,3,GND*%
%TO.N,GND*%
X173780000Y-105140000D03*
%TO.P,U1,4,GND*%
X173780000Y-102600000D03*
%TO.P,U1,5,D2*%
%TO.N,Net-(J4-Pin_7)*%
X173780000Y-100060000D03*
%TO.P,U1,6,~D3*%
%TO.N,Net-(J4-Pin_6)*%
X173780000Y-97520000D03*
%TO.P,U1,7,D4/A6*%
%TO.N,Net-(J4-Pin_5)*%
X173780000Y-94980000D03*
%TO.P,U1,8,~D5*%
%TO.N,Net-(J4-Pin_4)*%
X173780000Y-92440000D03*
%TO.P,U1,9,~D6/A7*%
%TO.N,Net-(J3-Pin_4)*%
X173780000Y-89900000D03*
%TO.P,U1,10,D7*%
%TO.N,Net-(D1-K)*%
X173780000Y-87360000D03*
%TO.P,U1,11,D8/A8*%
%TO.N,Net-(U1-D8{slash}A8)*%
X173780000Y-84820000D03*
%TO.P,U1,12,~D9/A9*%
%TO.N,Net-(J3-Pin_2)*%
X173780000Y-82280000D03*
%TO.P,U1,13,~D10/A10*%
%TO.N,Net-(U1-~D10{slash}A10)*%
X158540000Y-82280000D03*
%TO.P,U1,14,D16*%
%TO.N,Net-(U1-D16)*%
X158540000Y-84820000D03*
%TO.P,U1,15,D14*%
%TO.N,Net-(U1-D14)*%
X158540000Y-87360000D03*
%TO.P,U1,16,D15*%
%TO.N,Net-(U1-D15)*%
X158540000Y-89900000D03*
%TO.P,U1,17,D18/A0*%
%TO.N,Net-(U1-D18{slash}A0)*%
X158540000Y-92440000D03*
%TO.P,U1,18,D19/A1*%
%TO.N,Net-(U1-D19{slash}A1)*%
X158540000Y-94980000D03*
%TO.P,U1,19,D20/A2*%
%TO.N,unconnected-(U1-D20{slash}A2-Pad19)*%
X158540000Y-97520000D03*
%TO.P,U1,20,D21/A3*%
%TO.N,unconnected-(U1-D21{slash}A3-Pad20)*%
X158540000Y-100060000D03*
%TO.P,U1,21,VCC*%
%TO.N,Net-(J3-Pin_6)*%
X158540000Y-102600000D03*
%TO.P,U1,22,RST*%
%TO.N,unconnected-(U1-RST-Pad22)*%
X158540000Y-105140000D03*
%TO.P,U1,23,GND*%
%TO.N,GND*%
X158540000Y-107680000D03*
%TO.P,U1,24,RAW*%
%TO.N,unconnected-(U1-RAW-Pad24)*%
X158540000Y-110220000D03*
%TD*%
D25*
%TO.P,J4,1,Pin_1*%
%TO.N,unconnected-(J4-Pin_1-Pad1)*%
X151780000Y-94000000D03*
D26*
%TO.P,J4,2,Pin_2*%
%TO.N,unconnected-(J4-Pin_2-Pad2)*%
X151780000Y-96540000D03*
%TO.P,J4,3,Pin_3*%
%TO.N,unconnected-(J4-Pin_3-Pad3)*%
X151780000Y-99080000D03*
%TO.P,J4,4,Pin_4*%
%TO.N,Net-(J4-Pin_4)*%
X151780000Y-101620000D03*
%TO.P,J4,5,Pin_5*%
%TO.N,Net-(J4-Pin_5)*%
X151780000Y-104160000D03*
%TO.P,J4,6,Pin_6*%
%TO.N,Net-(J4-Pin_6)*%
X151780000Y-106700000D03*
%TO.P,J4,7,Pin_7*%
%TO.N,Net-(J4-Pin_7)*%
X151780000Y-109240000D03*
%TD*%
D18*
%TO.P,REF\u002A\u002A,1*%
%TO.N,N/C*%
X114000000Y-114000000D03*
%TD*%
D14*
%TO.P,SW2-Stop1,1,1*%
%TO.N,Net-(U1-D16)*%
X193280000Y-85720000D03*
X199780000Y-85720000D03*
%TO.P,SW2-Stop1,2,2*%
%TO.N,GND*%
X193280000Y-90220000D03*
X199780000Y-90220000D03*
%TD*%
%TO.P,SW4-Tr-1,1,1*%
%TO.N,Net-(U1-D15)*%
X180780000Y-107720000D03*
X187280000Y-107720000D03*
%TO.P,SW4-Tr-1,2,2*%
%TO.N,GND*%
X180780000Y-112220000D03*
X187280000Y-112220000D03*
%TD*%
D27*
%TO.P,Q1,1,C*%
%TO.N,Net-(J5-Pin_4)*%
X167240000Y-77720000D03*
D28*
%TO.P,Q1,2,B*%
%TO.N,Net-(Q1-B)*%
X168510000Y-77720000D03*
%TO.P,Q1,3,E*%
%TO.N,GND*%
X169780000Y-77720000D03*
%TD*%
D25*
%TO.P,J3,1,Pin_1*%
%TO.N,unconnected-(J3-Pin_1-Pad1)*%
X119280000Y-93995000D03*
D26*
%TO.P,J3,2,Pin_2*%
%TO.N,Net-(J3-Pin_2)*%
X119280000Y-96535000D03*
%TO.P,J3,3,Pin_3*%
%TO.N,GND*%
X119280000Y-99075000D03*
%TO.P,J3,4,Pin_4*%
%TO.N,Net-(J3-Pin_4)*%
X119280000Y-101615000D03*
%TO.P,J3,5,Pin_5*%
%TO.N,Net-(J3-Pin_5)*%
X119280000Y-104155000D03*
%TO.P,J3,6,Pin_6*%
%TO.N,Net-(J3-Pin_6)*%
X119280000Y-106695000D03*
%TO.P,J3,7,Pin_7*%
%TO.N,GND*%
X119280000Y-109235000D03*
%TD*%
D29*
%TO.P,C1,1*%
%TO.N,Net-(J3-Pin_6)*%
X138000000Y-84000000D03*
%TO.P,C1,2*%
%TO.N,GND*%
X138000000Y-79000000D03*
%TD*%
D23*
%TO.P,D1,1,K*%
%TO.N,Net-(D1-K)*%
X152280000Y-77720000D03*
D24*
%TO.P,D1,2,A*%
%TO.N,GND*%
X162440000Y-77720000D03*
%TD*%
D14*
%TO.P,SW1-Play1,1,1*%
%TO.N,Net-(U1-~D10{slash}A10)*%
X180780000Y-85720000D03*
X187280000Y-85720000D03*
%TO.P,SW1-Play1,2,2*%
%TO.N,GND*%
X180780000Y-90220000D03*
X187280000Y-90220000D03*
%TD*%
D30*
%TO.P,U2,1,IN*%
%TO.N,Net-(J5-Pin_7)*%
X127230000Y-83670000D03*
D31*
%TO.P,U2,2,GND*%
%TO.N,GND*%
X128500000Y-81600000D03*
%TO.P,U2,3,OUT*%
%TO.N,Net-(J3-Pin_6)*%
X129770000Y-83670000D03*
%TD*%
D18*
%TO.P,REF\u002A\u002A,1*%
%TO.N,N/C*%
X205000000Y-68500000D03*
%TD*%
D19*
%TO.P,R1,1*%
%TO.N,Net-(U1-D8{slash}A8)*%
X184120000Y-79000000D03*
D20*
%TO.P,R1,2*%
%TO.N,Net-(Q1-B)*%
X176500000Y-79000000D03*
%TD*%
D32*
%TO.N,Net-(J5-Pin_7)*%
X124023000Y-83023000D03*
X133000000Y-75500000D03*
%TO.N,Net-(J3-Pin_2)*%
X167280000Y-84720000D03*
%TO.N,Net-(U1-D18{slash}A0)*%
X166280000Y-92720000D03*
%TD*%
D33*
%TO.N,Net-(U1-D16)*%
X176280000Y-86220000D02*
X178060000Y-88000000D01*
X178060000Y-88000000D02*
X191000000Y-88000000D01*
X191000000Y-88000000D02*
X191280000Y-87720000D01*
X191280000Y-87720000D02*
X193280000Y-85720000D01*
%TO.N,Net-(U1-D18{slash}A0)*%
X176260000Y-93700000D02*
X177020000Y-94460000D01*
X191100000Y-100400000D02*
X193280000Y-98220000D01*
X177020000Y-94460000D02*
X177020000Y-98820000D01*
X177020000Y-98820000D02*
X178600000Y-100400000D01*
X178600000Y-100400000D02*
X191100000Y-100400000D01*
D34*
%TO.N,Net-(U1-D16)*%
X164500000Y-86200000D02*
X171600000Y-86200000D01*
D35*
X171600000Y-86200000D02*
X176260000Y-86200000D01*
X176260000Y-86200000D02*
X176280000Y-86220000D01*
D34*
X164500000Y-86200000D02*
X163120000Y-84820000D01*
X163120000Y-84820000D02*
X158540000Y-84820000D01*
D36*
%TO.N,Net-(U1-D14)*%
X176300000Y-91220000D02*
X172200000Y-91220000D01*
D33*
X176300000Y-91220000D02*
X177780000Y-91220000D01*
X177780000Y-91220000D02*
X180780000Y-94220000D01*
X180780000Y-94220000D02*
X180780000Y-98220000D01*
D34*
X162920000Y-87360000D02*
X158540000Y-87360000D01*
X172200000Y-91220000D02*
X166780000Y-91220000D01*
X166780000Y-91220000D02*
X162920000Y-87360000D01*
D36*
%TO.N,Net-(U1-D18{slash}A0)*%
X176260000Y-93700000D02*
X172200000Y-93700000D01*
D34*
X167260000Y-93700000D02*
X166280000Y-92720000D01*
X172200000Y-93700000D02*
X167260000Y-93700000D01*
D33*
%TO.N,GND*%
X119280000Y-99075000D02*
X119925000Y-99075000D01*
X125500000Y-93500000D02*
X136000000Y-93500000D01*
X119925000Y-99075000D02*
X125500000Y-93500000D01*
X136000000Y-93500000D02*
X142500000Y-87000000D01*
D10*
%TO.N,Net-(J5-Pin_7)*%
X122000000Y-83000000D02*
X122023000Y-83023000D01*
X122023000Y-83023000D02*
X124023000Y-83023000D01*
%TO.N,GND*%
X188785000Y-65500000D02*
X188785000Y-74898000D01*
X186000000Y-65500000D02*
X186215000Y-65715000D01*
X186215000Y-65715000D02*
X186215000Y-74898000D01*
X194500000Y-65500000D02*
X200215000Y-71215000D01*
X200215000Y-71215000D02*
X200215000Y-74898000D01*
X189500000Y-65500000D02*
X194500000Y-65500000D01*
X186000000Y-65500000D02*
X189500000Y-65500000D01*
X180500000Y-65500000D02*
X186000000Y-65500000D01*
X174785000Y-74898000D02*
X174785000Y-71215000D01*
X174785000Y-71215000D02*
X180500000Y-65500000D01*
%TO.N,Net-(J5-Pin_7)*%
X133000000Y-75500000D02*
X133000000Y-87000000D01*
X133000000Y-87000000D02*
X128000000Y-87000000D01*
X128000000Y-87000000D02*
X124023000Y-83023000D01*
D33*
%TO.N,GND*%
X147780000Y-87220000D02*
X142720000Y-87220000D01*
X142720000Y-87220000D02*
X142500000Y-87000000D01*
X142500000Y-87000000D02*
X142500000Y-81500000D01*
X142500000Y-81500000D02*
X140000000Y-79000000D01*
X140000000Y-79000000D02*
X138000000Y-79000000D01*
%TO.N,Net-(J3-Pin_6)*%
X153500000Y-113500000D02*
X145500000Y-113500000D01*
X155660000Y-111340000D02*
X153500000Y-113500000D01*
X155280000Y-89720000D02*
X155280000Y-102220000D01*
X155280000Y-102220000D02*
X155660000Y-102600000D01*
X155660000Y-102600000D02*
X158540000Y-102600000D01*
X155660000Y-102600000D02*
X155660000Y-111340000D01*
X152780000Y-87220000D02*
X155280000Y-89720000D01*
D34*
%TO.N,Net-(J3-Pin_2)*%
X173780000Y-82280000D02*
X169720000Y-82280000D01*
X169720000Y-82280000D02*
X167280000Y-84720000D01*
D33*
%TO.N,Net-(J5-Pin_4)*%
X163240000Y-73720000D02*
X167240000Y-77720000D01*
X155040000Y-69220000D02*
X155040000Y-72980000D01*
X155040000Y-72980000D02*
X155780000Y-73720000D01*
X155780000Y-73720000D02*
X163240000Y-73720000D01*
D34*
%TO.N,Net-(U1-~D10{slash}A10)*%
X175780000Y-80720000D02*
X161780000Y-80720000D01*
X180780000Y-85720000D02*
X175780000Y-80720000D01*
X160220000Y-82280000D02*
X158540000Y-82280000D01*
X161780000Y-80720000D02*
X160220000Y-82280000D01*
D33*
X180780000Y-85720000D02*
X187280000Y-85720000D01*
%TO.N,Net-(U1-D16)*%
X193280000Y-85720000D02*
X199780000Y-85720000D01*
%TO.N,Net-(U1-D14)*%
X180780000Y-98220000D02*
X187280000Y-98220000D01*
D36*
X187280000Y-98220000D02*
X187780000Y-98220000D01*
D33*
%TO.N,Net-(U1-D15)*%
X187280000Y-107720000D02*
X180780000Y-107720000D01*
X158540000Y-89900000D02*
X169780000Y-101140000D01*
X169780000Y-111720000D02*
X170780000Y-112720000D01*
X170780000Y-112720000D02*
X175780000Y-112720000D01*
X175780000Y-112720000D02*
X180780000Y-107720000D01*
X169780000Y-101140000D02*
X169780000Y-111720000D01*
%TO.N,Net-(U1-D18{slash}A0)*%
X193280000Y-98220000D02*
X199780000Y-98220000D01*
%TO.N,Net-(U1-D19{slash}A1)*%
X190280000Y-110720000D02*
X190280000Y-114720000D01*
X168280000Y-102220000D02*
X161040000Y-94980000D01*
X161040000Y-94980000D02*
X158540000Y-94980000D01*
X199780000Y-107720000D02*
X193280000Y-107720000D01*
X193280000Y-107720000D02*
X190280000Y-110720000D01*
X169280000Y-114720000D02*
X168280000Y-113720000D01*
X168280000Y-113720000D02*
X168280000Y-102220000D01*
X190280000Y-114720000D02*
X169280000Y-114720000D01*
%TD*%
%TA.AperFunction,Conductor*%
%TO.N,GND*%
G36*
X162624809Y-88130185D02*
G01*
X162645451Y-88146819D01*
X166217520Y-91718888D01*
X166251005Y-91780211D01*
X166246021Y-91849903D01*
X166204149Y-91905836D01*
X166143722Y-91929789D01*
X166100750Y-91934630D01*
X166100745Y-91934631D01*
X165930476Y-91994211D01*
X165777737Y-92090184D01*
X165650184Y-92217737D01*
X165554211Y-92370476D01*
X165494631Y-92540745D01*
X165494630Y-92540750D01*
X165474435Y-92719996D01*
X165474435Y-92720003D01*
X165494630Y-92899249D01*
X165494631Y-92899254D01*
X165554211Y-93069523D01*
X165574699Y-93102129D01*
X165650184Y-93222262D01*
X165777738Y-93349816D01*
X165921340Y-93440047D01*
X165930483Y-93445792D01*
X165936753Y-93448812D01*
X165935870Y-93450643D01*
X165971940Y-93473308D01*
X166327775Y-93829142D01*
X166677049Y-94178416D01*
X166781584Y-94282951D01*
X166781585Y-94282952D01*
X166904498Y-94365080D01*
X166904511Y-94365087D01*
X167007698Y-94407828D01*
X167041087Y-94421658D01*
X167041091Y-94421658D01*
X167041092Y-94421659D01*
X167186079Y-94450500D01*
X167186082Y-94450500D01*
X172273919Y-94450500D01*
X172365599Y-94432263D01*
X172396903Y-94426036D01*
X172466494Y-94432263D01*
X172521672Y-94475125D01*
X172544917Y-94541015D01*
X172540870Y-94579746D01*
X172494366Y-94753302D01*
X172494364Y-94753313D01*
X172474532Y-94979998D01*
X172474532Y-94980001D01*
X172494364Y-95206686D01*
X172494366Y-95206697D01*
X172553258Y-95426488D01*
X172553261Y-95426497D01*
X172649431Y-95632732D01*
X172649432Y-95632734D01*
X172779954Y-95819141D01*
X172940858Y-95980045D01*
X172940861Y-95980047D01*
X173127266Y-96110568D01*
X173185275Y-96137618D01*
X173237714Y-96183791D01*
X173256866Y-96250984D01*
X173236650Y-96317865D01*
X173185275Y-96362382D01*
X173127267Y-96389431D01*
X173127265Y-96389432D01*
X172940858Y-96519954D01*
X172779954Y-96680858D01*
X172649432Y-96867265D01*
X172649431Y-96867267D01*
X172553261Y-97073502D01*
X172553258Y-97073511D01*
X172494366Y-97293302D01*
X172494364Y-97293313D01*
X172474532Y-97519998D01*
X172474532Y-97520001D01*
X172494364Y-97746686D01*
X172494366Y-97746697D01*
X172553258Y-97966488D01*
X172553261Y-97966497D01*
X172649431Y-98172732D01*
X172649432Y-98172734D01*
X172779954Y-98359141D01*
X172940858Y-98520045D01*
X172940861Y-98520047D01*
X173127266Y-98650568D01*
X173179448Y-98674901D01*
X173185275Y-98677618D01*
X173237714Y-98723791D01*
X173256866Y-98790984D01*
X173236650Y-98857865D01*
X173185275Y-98902382D01*
X173127267Y-98929431D01*
X173127265Y-98929432D01*
X172940858Y-99059954D01*
X172779954Y-99220858D01*
X172649432Y-99407265D01*
X172649431Y-99407267D01*
X172553261Y-99613502D01*
X172553258Y-99613511D01*
X172494366Y-99833302D01*
X172494364Y-99833313D01*
X172474532Y-100059998D01*
X172474532Y-100060001D01*
X172494364Y-100286686D01*
X172494366Y-100286697D01*
X172553258Y-100506488D01*
X172553261Y-100506497D01*
X172649431Y-100712732D01*
X172649432Y-100712734D01*
X172779954Y-100899141D01*
X172940858Y-101060045D01*
X172940861Y-101060047D01*
X173127266Y-101190568D01*
X173185865Y-101217893D01*
X173238305Y-101264065D01*
X173257457Y-101331258D01*
X173237242Y-101398139D01*
X173185867Y-101442657D01*
X173127515Y-101469867D01*
X172941179Y-101600342D01*
X172780342Y-101761179D01*
X172649865Y-101947517D01*
X172553734Y-102153673D01*
X172553730Y-102153682D01*
X172501127Y-102349999D01*
X172501128Y-102350000D01*
X173464314Y-102350000D01*
X173459920Y-102354394D01*
X173407259Y-102445606D01*
X173380000Y-102547339D01*
X173380000Y-102652661D01*
X173407259Y-102754394D01*
X173459920Y-102845606D01*
X173464314Y-102850000D01*
X172501128Y-102850000D01*
X172553730Y-103046317D01*
X172553734Y-103046326D01*
X172649865Y-103252482D01*
X172780342Y-103438820D01*
X172941179Y-103599657D01*
X173127517Y-103730134D01*
X173186457Y-103757618D01*
X173238896Y-103803790D01*
X173258048Y-103870984D01*
X173237832Y-103937865D01*
X173186457Y-103982382D01*
X173127517Y-104009865D01*
X172941179Y-104140342D01*
X172780342Y-104301179D01*
X172649865Y-104487517D01*
X172553734Y-104693673D01*
X172553730Y-104693682D01*
X172501127Y-104889999D01*
X172501128Y-104890000D01*
X173464314Y-104890000D01*
X173459920Y-104894394D01*
X173407259Y-104985606D01*
X173380000Y-105087339D01*
X173380000Y-105192661D01*
X173407259Y-105294394D01*
X173459920Y-105385606D01*
X173464314Y-105390000D01*
X172501128Y-105390000D01*
X172553730Y-105586317D01*
X172553734Y-105586326D01*
X172649865Y-105792482D01*
X172780342Y-105978820D01*
X172941179Y-106139657D01*
X173127518Y-106270134D01*
X173127520Y-106270135D01*
X173185865Y-106297342D01*
X173238305Y-106343514D01*
X173257457Y-106410707D01*
X173237242Y-106477589D01*
X173185867Y-106522105D01*
X173184685Y-106522657D01*
X173127264Y-106549433D01*
X172940858Y-106679954D01*
X172779954Y-106840858D01*
X172649432Y-107027265D01*
X172649431Y-107027267D01*
X172553261Y-107233502D01*
X172553258Y-107233511D01*
X172494366Y-107453302D01*
X172494364Y-107453313D01*
X172474532Y-107679998D01*
X172474532Y-107680001D01*
X172494364Y-107906686D01*
X172494366Y-107906697D01*
X172553258Y-108126488D01*
X172553261Y-108126497D01*
X172649431Y-108332732D01*
X172649432Y-108332734D01*
X172779954Y-108519141D01*
X172940858Y-108680045D01*
X172965462Y-108697273D01*
X173009087Y-108751849D01*
X173016281Y-108821348D01*
X172984758Y-108883703D01*
X172924529Y-108919117D01*
X172907593Y-108922138D01*
X172872516Y-108925908D01*
X172737671Y-108976202D01*
X172737664Y-108976206D01*
X172622455Y-109062452D01*
X172622452Y-109062455D01*
X172536206Y-109177664D01*
X172536202Y-109177671D01*
X172485908Y-109312517D01*
X172479501Y-109372116D01*
X172479501Y-109372123D01*
X172479500Y-109372135D01*
X172479500Y-111067870D01*
X172479501Y-111067876D01*
X172485908Y-111127483D01*
X172536202Y-111262328D01*
X172536206Y-111262335D01*
X172622452Y-111377544D01*
X172622455Y-111377547D01*
X172737664Y-111463793D01*
X172737671Y-111463797D01*
X172779285Y-111479318D01*
X172835219Y-111521189D01*
X172859636Y-111586653D01*
X172844785Y-111654926D01*
X172795380Y-111704332D01*
X172735952Y-111719500D01*
X171245783Y-111719500D01*
X171178744Y-111699815D01*
X171158102Y-111683181D01*
X170816819Y-111341898D01*
X170783334Y-111280575D01*
X170780500Y-111254217D01*
X170780500Y-101041458D01*
X170780499Y-101041457D01*
X170759756Y-100937171D01*
X170742051Y-100848164D01*
X170685954Y-100712734D01*
X170666632Y-100666086D01*
X170559998Y-100506497D01*
X170557140Y-100502219D01*
X170489776Y-100434855D01*
X170417782Y-100362861D01*
X170417781Y-100362860D01*
X159866886Y-89811966D01*
X159833402Y-89750644D01*
X159831040Y-89735093D01*
X159828624Y-89707482D01*
X159825635Y-89673308D01*
X159766739Y-89453504D01*
X159670568Y-89247266D01*
X159540047Y-89060861D01*
X159540045Y-89060858D01*
X159379141Y-88899954D01*
X159192734Y-88769432D01*
X159192728Y-88769429D01*
X159134725Y-88742382D01*
X159082285Y-88696210D01*
X159063133Y-88629017D01*
X159083348Y-88562135D01*
X159134725Y-88517618D01*
X159192734Y-88490568D01*
X159379139Y-88360047D01*
X159540047Y-88199139D01*
X159565088Y-88163377D01*
X159619665Y-88119752D01*
X159666663Y-88110500D01*
X162557770Y-88110500D01*
X162624809Y-88130185D01*
G37*
%TD.AperFunction*%
%TA.AperFunction,Conductor*%
G36*
X174030000Y-104824314D02*
G01*
X174025606Y-104819920D01*
X173934394Y-104767259D01*
X173832661Y-104740000D01*
X173727339Y-104740000D01*
X173625606Y-104767259D01*
X173534394Y-104819920D01*
X173530000Y-104824314D01*
X173530000Y-102915686D01*
X173534394Y-102920080D01*
X173625606Y-102972741D01*
X173727339Y-103000000D01*
X173832661Y-103000000D01*
X173934394Y-102972741D01*
X174025606Y-102920080D01*
X174030000Y-102915686D01*
X174030000Y-104824314D01*
G37*
%TD.AperFunction*%
%TA.AperFunction,Conductor*%
G36*
X128750000Y-82805001D02*
G01*
X128743042Y-82845955D01*
X128734159Y-82871340D01*
X128734157Y-82871348D01*
X128719500Y-83001441D01*
X128719500Y-83189048D01*
X128699815Y-83256087D01*
X128647011Y-83301842D01*
X128577853Y-83311786D01*
X128514297Y-83282761D01*
X128476523Y-83223983D01*
X128473027Y-83208446D01*
X128463553Y-83148631D01*
X128415729Y-83001445D01*
X128390568Y-82924008D01*
X128390566Y-82924005D01*
X128390566Y-82924003D01*
X128326998Y-82799245D01*
X128288936Y-82724544D01*
X128276132Y-82681504D01*
X128274091Y-82662516D01*
X128257818Y-82618886D01*
X128250000Y-82575553D01*
X128250000Y-82280330D01*
X128269745Y-82300075D01*
X128355255Y-82349444D01*
X128450630Y-82375000D01*
X128549370Y-82375000D01*
X128644745Y-82349444D01*
X128730255Y-82300075D01*
X128750000Y-82280330D01*
X128750000Y-82805001D01*
G37*
%TD.AperFunction*%
%TA.AperFunction,Conductor*%
G36*
X188285000Y-75148000D02*
G01*
X186715000Y-75148000D01*
X186715000Y-74648000D01*
X188285000Y-74648000D01*
X188285000Y-75148000D01*
G37*
%TD.AperFunction*%
%TA.AperFunction,Conductor*%
G36*
X208442539Y-63520185D02*
G01*
X208488294Y-63572989D01*
X208499500Y-63624500D01*
X208499500Y-66700606D01*
X208479815Y-66767645D01*
X208427011Y-66813400D01*
X208357853Y-66823344D01*
X208294297Y-66794319D01*
X208265015Y-66756901D01*
X208209122Y-66647206D01*
X207997877Y-66321917D01*
X207753784Y-66020488D01*
X207753781Y-66020484D01*
X207479516Y-65746219D01*
X207178084Y-65502124D01*
X207178082Y-65502122D01*
X206852793Y-65290877D01*
X206507197Y-65114787D01*
X206145094Y-64975788D01*
X206145087Y-64975786D01*
X205770433Y-64875398D01*
X205770429Y-64875397D01*
X205770428Y-64875397D01*
X205387339Y-64814722D01*
X205000001Y-64794422D01*
X204999999Y-64794422D01*
X204612660Y-64814722D01*
X204229572Y-64875397D01*
X204229570Y-64875397D01*
X203854905Y-64975788D01*
X203492802Y-65114787D01*
X203147206Y-65290877D01*
X202821917Y-65502122D01*
X202520488Y-65746215D01*
X202520480Y-65746222D01*
X202246222Y-66020480D01*
X202246215Y-66020488D01*
X202002122Y-66321917D01*
X201790877Y-66647206D01*
X201614787Y-66992802D01*
X201475788Y-67354905D01*
X201375397Y-67729570D01*
X201375397Y-67729572D01*
X201314722Y-68112660D01*
X201294422Y-68499999D01*
X201294422Y-68500000D01*
X201313289Y-68860005D01*
X201314722Y-68887338D01*
X201375398Y-69270433D01*
X201421284Y-69441684D01*
X201475788Y-69645094D01*
X201614787Y-70007197D01*
X201790877Y-70352793D01*
X202002122Y-70678082D01*
X202123104Y-70827482D01*
X202246219Y-70979516D01*
X202520484Y-71253781D01*
X202576588Y-71299213D01*
X202821917Y-71497877D01*
X203139835Y-71704335D01*
X203147211Y-71709125D01*
X203492806Y-71885214D01*
X203854913Y-72024214D01*
X204229567Y-72124602D01*
X204612662Y-72185278D01*
X204978576Y-72204455D01*
X204999999Y-72205578D01*
X205000000Y-72205578D01*
X205000001Y-72205578D01*
X205020301Y-72204514D01*
X205387338Y-72185278D01*
X205770433Y-72124602D01*
X206145087Y-72024214D01*
X206507194Y-71885214D01*
X206852789Y-71709125D01*
X207178084Y-71497876D01*
X207479516Y-71253781D01*
X207753781Y-70979516D01*
X207997876Y-70678084D01*
X208209125Y-70352789D01*
X208265015Y-70243097D01*
X208312989Y-70192302D01*
X208380810Y-70175507D01*
X208446945Y-70198044D01*
X208490397Y-70252759D01*
X208499500Y-70299393D01*
X208499500Y-112200606D01*
X208479815Y-112267645D01*
X208427011Y-112313400D01*
X208357853Y-112323344D01*
X208294297Y-112294319D01*
X208265015Y-112256901D01*
X208236331Y-112200606D01*
X208209125Y-112147211D01*
X208095511Y-111972261D01*
X207997877Y-111821917D01*
X207856241Y-111647011D01*
X207753781Y-111520484D01*
X207479516Y-111246219D01*
X207341456Y-111134420D01*
X207178082Y-111002122D01*
X206852793Y-110790877D01*
X206507197Y-110614787D01*
X206145094Y-110475788D01*
X206145083Y-110475785D01*
X205770433Y-110375398D01*
X205770429Y-110375397D01*
X205770428Y-110375397D01*
X205387339Y-110314722D01*
X205000001Y-110294422D01*
X204999999Y-110294422D01*
X204612660Y-110314722D01*
X204229572Y-110375397D01*
X204229570Y-110375397D01*
X203854905Y-110475788D01*
X203492802Y-110614787D01*
X203147206Y-110790877D01*
X202821917Y-111002122D01*
X202520488Y-111246215D01*
X202520480Y-111246222D01*
X202246222Y-111520480D01*
X202246215Y-111520488D01*
X202002122Y-111821917D01*
X201790877Y-112147206D01*
X201614787Y-112492802D01*
X201475788Y-112854905D01*
X201375397Y-113229570D01*
X201375397Y-113229572D01*
X201314722Y-113612660D01*
X201294422Y-113999999D01*
X201294422Y-114000000D01*
X201314722Y-114387339D01*
X201364322Y-114700500D01*
X201375398Y-114770433D01*
X201388288Y-114818541D01*
X201475788Y-115145094D01*
X201614787Y-115507197D01*
X201790877Y-115852793D01*
X202002122Y-116178082D01*
X202002124Y-116178084D01*
X202246219Y-116479516D01*
X202520484Y-116753781D01*
X202520488Y-116753784D01*
X202821917Y-116997877D01*
X203147206Y-117209122D01*
X203147211Y-117209125D01*
X203256902Y-117265015D01*
X203307698Y-117312989D01*
X203324493Y-117380810D01*
X203301956Y-117446945D01*
X203247241Y-117490397D01*
X203200607Y-117499500D01*
X115799393Y-117499500D01*
X115732354Y-117479815D01*
X115686599Y-117427011D01*
X115676655Y-117357853D01*
X115705680Y-117294297D01*
X115743098Y-117265015D01*
X115852789Y-117209125D01*
X116178084Y-116997876D01*
X116479516Y-116753781D01*
X116753781Y-116479516D01*
X116997876Y-116178084D01*
X117209125Y-115852789D01*
X117385214Y-115507194D01*
X117524214Y-115145087D01*
X117624602Y-114770433D01*
X117666345Y-114506879D01*
X124916672Y-114506879D01*
X124916672Y-114506880D01*
X125032821Y-114578797D01*
X125032822Y-114578798D01*
X125240195Y-114659134D01*
X125458807Y-114700000D01*
X125681193Y-114700000D01*
X125899809Y-114659133D01*
X126107168Y-114578801D01*
X126107181Y-114578795D01*
X126223326Y-114506879D01*
X125570001Y-113853553D01*
X125570000Y-113853553D01*
X124916672Y-114506879D01*
X117666345Y-114506879D01*
X117685278Y-114387338D01*
X117705578Y-114000000D01*
X117685278Y-113612662D01*
X117667434Y-113499999D01*
X124364859Y-113499999D01*
X124364859Y-113500000D01*
X124385378Y-113721439D01*
X124446240Y-113935350D01*
X124545369Y-114134428D01*
X124561137Y-114155308D01*
X124561138Y-114155308D01*
X125216447Y-113500000D01*
X125170369Y-113453922D01*
X125220000Y-113453922D01*
X125220000Y-113546078D01*
X125243852Y-113635095D01*
X125289930Y-113714905D01*
X125355095Y-113780070D01*
X125434905Y-113826148D01*
X125523922Y-113850000D01*
X125616078Y-113850000D01*
X125705095Y-113826148D01*
X125784905Y-113780070D01*
X125850070Y-113714905D01*
X125896148Y-113635095D01*
X125920000Y-113546078D01*
X125920000Y-113499999D01*
X125923553Y-113499999D01*
X125923553Y-113500000D01*
X126578861Y-114155308D01*
X126594631Y-114134425D01*
X126594633Y-114134422D01*
X126693759Y-113935350D01*
X126754621Y-113721439D01*
X126775141Y-113500000D01*
X126775141Y-113499999D01*
X131984357Y-113499999D01*
X131984357Y-113500000D01*
X132004884Y-113721535D01*
X132004885Y-113721537D01*
X132065769Y-113935523D01*
X132065775Y-113935538D01*
X132164938Y-114134683D01*
X132164943Y-114134691D01*
X132299020Y-114312238D01*
X132463437Y-114462123D01*
X132463439Y-114462125D01*
X132652595Y-114579245D01*
X132652596Y-114579245D01*
X132652599Y-114579247D01*
X132860060Y-114659618D01*
X133078757Y-114700500D01*
X133078759Y-114700500D01*
X133301241Y-114700500D01*
X133301243Y-114700500D01*
X133519940Y-114659618D01*
X133727401Y-114579247D01*
X133916562Y-114462124D01*
X134080981Y-114312236D01*
X134215058Y-114134689D01*
X134314229Y-113935528D01*
X134375115Y-113721536D01*
X134395643Y-113500000D01*
X134395643Y-113499999D01*
X136674357Y-113499999D01*
X136674357Y-113500000D01*
X136694884Y-113721535D01*
X136694885Y-113721537D01*
X136755769Y-113935523D01*
X136755775Y-113935538D01*
X136854938Y-114134683D01*
X136854943Y-114134691D01*
X136989020Y-114312238D01*
X137153437Y-114462123D01*
X137153439Y-114462125D01*
X137342595Y-114579245D01*
X137342596Y-114579245D01*
X137342599Y-114579247D01*
X137550060Y-114659618D01*
X137768757Y-114700500D01*
X137768759Y-114700500D01*
X137991241Y-114700500D01*
X137991243Y-114700500D01*
X138209940Y-114659618D01*
X138417401Y-114579247D01*
X138606562Y-114462124D01*
X138770981Y-114312236D01*
X138905058Y-114134689D01*
X139004229Y-113935528D01*
X139065115Y-113721536D01*
X139085643Y-113500000D01*
X139085643Y-113499999D01*
X144294357Y-113499999D01*
X144294357Y-113500000D01*
X144314884Y-113721535D01*
X144314885Y-113721537D01*
X144375769Y-113935523D01*
X144375775Y-113935538D01*
X144474938Y-114134683D01*
X144474943Y-114134691D01*
X144609020Y-114312238D01*
X144773437Y-114462123D01*
X144773439Y-114462125D01*
X144962595Y-114579245D01*
X144962596Y-114579245D01*
X144962599Y-114579247D01*
X145170060Y-114659618D01*
X145388757Y-114700500D01*
X145388759Y-114700500D01*
X145611241Y-114700500D01*
X145611243Y-114700500D01*
X145829940Y-114659618D01*
X146037401Y-114579247D01*
X146134586Y-114519073D01*
X146199863Y-114500500D01*
X153598542Y-114500500D01*
X153617870Y-114496655D01*
X153695188Y-114481275D01*
X153791836Y-114462051D01*
X153845165Y-114439961D01*
X153973914Y-114386632D01*
X154137782Y-114277139D01*
X154277139Y-114137782D01*
X154277139Y-114137780D01*
X154287347Y-114127573D01*
X154287348Y-114127570D01*
X156437139Y-111977782D01*
X156489445Y-111899500D01*
X156546632Y-111813914D01*
X156622051Y-111631835D01*
X156627065Y-111606631D01*
X156660500Y-111438540D01*
X156660500Y-111241460D01*
X156660500Y-103724500D01*
X156680185Y-103657461D01*
X156732989Y-103611706D01*
X156784500Y-103600500D01*
X157662412Y-103600500D01*
X157729451Y-103620185D01*
X157733523Y-103622917D01*
X157887266Y-103730568D01*
X157945275Y-103757618D01*
X157997714Y-103803791D01*
X158016866Y-103870984D01*
X157996650Y-103937865D01*
X157945275Y-103982382D01*
X157887267Y-104009431D01*
X157887265Y-104009432D01*
X157700858Y-104139954D01*
X157539954Y-104300858D01*
X157409432Y-104487265D01*
X157409431Y-104487267D01*
X157313261Y-104693502D01*
X157313258Y-104693511D01*
X157254366Y-104913302D01*
X157254364Y-104913313D01*
X157234532Y-105139998D01*
X157234532Y-105140001D01*
X157254364Y-105366686D01*
X157254366Y-105366697D01*
X157313258Y-105586488D01*
X157313261Y-105586497D01*
X157409431Y-105792732D01*
X157409432Y-105792734D01*
X157539954Y-105979141D01*
X157700858Y-106140045D01*
X157700861Y-106140047D01*
X157887266Y-106270568D01*
X157945865Y-106297893D01*
X157998305Y-106344065D01*
X158017457Y-106411258D01*
X157997242Y-106478139D01*
X157945867Y-106522657D01*
X157887515Y-106549867D01*
X157701179Y-106680342D01*
X157540342Y-106841179D01*
X157409865Y-107027517D01*
X157313734Y-107233673D01*
X157313730Y-107233682D01*
X157261127Y-107429999D01*
X157261128Y-107430000D01*
X158224314Y-107430000D01*
X158219920Y-107434394D01*
X158167259Y-107525606D01*
X158140000Y-107627339D01*
X158140000Y-107732661D01*
X158167259Y-107834394D01*
X158219920Y-107925606D01*
X158224314Y-107930000D01*
X157261128Y-107930000D01*
X157313730Y-108126317D01*
X157313734Y-108126326D01*
X157409865Y-108332482D01*
X157540342Y-108518820D01*
X157701179Y-108679657D01*
X157887518Y-108810134D01*
X157887520Y-108810135D01*
X157945865Y-108837342D01*
X157998305Y-108883514D01*
X158017457Y-108950707D01*
X157997242Y-109017589D01*
X157945867Y-109062105D01*
X157887268Y-109089431D01*
X157887264Y-109089433D01*
X157700858Y-109219954D01*
X157539954Y-109380858D01*
X157409432Y-109567265D01*
X157409431Y-109567267D01*
X157313261Y-109773502D01*
X157313258Y-109773511D01*
X157254366Y-109993302D01*
X157254364Y-109993313D01*
X157234532Y-110219998D01*
X157234532Y-110220001D01*
X157254364Y-110446686D01*
X157254366Y-110446697D01*
X157313258Y-110666488D01*
X157313261Y-110666497D01*
X157409431Y-110872732D01*
X157409432Y-110872734D01*
X157539954Y-111059141D01*
X157700858Y-111220045D01*
X157700861Y-111220047D01*
X157887266Y-111350568D01*
X158093504Y-111446739D01*
X158313308Y-111505635D01*
X158475230Y-111519801D01*
X158539998Y-111525468D01*
X158540000Y-111525468D01*
X158540002Y-111525468D01*
X158597013Y-111520480D01*
X158766692Y-111505635D01*
X158986496Y-111446739D01*
X159192734Y-111350568D01*
X159379139Y-111220047D01*
X159540047Y-111059139D01*
X159670568Y-110872734D01*
X159766739Y-110666496D01*
X159825635Y-110446692D01*
X159845468Y-110220000D01*
X159825635Y-109993308D01*
X159766739Y-109773504D01*
X159670568Y-109567266D01*
X159540047Y-109380861D01*
X159540045Y-109380858D01*
X159379141Y-109219954D01*
X159192734Y-109089432D01*
X159192732Y-109089431D01*
X159181275Y-109084088D01*
X159134132Y-109062105D01*
X159081694Y-109015934D01*
X159062542Y-108948740D01*
X159082758Y-108881859D01*
X159134134Y-108837341D01*
X159192484Y-108810132D01*
X159378820Y-108679657D01*
X159539657Y-108518820D01*
X159670134Y-108332482D01*
X159766265Y-108126326D01*
X159766269Y-108126317D01*
X159818872Y-107930000D01*
X158855686Y-107930000D01*
X158860080Y-107925606D01*
X158912741Y-107834394D01*
X158940000Y-107732661D01*
X158940000Y-107627339D01*
X158912741Y-107525606D01*
X158860080Y-107434394D01*
X158855686Y-107430000D01*
X159818872Y-107430000D01*
X159818872Y-107429999D01*
X159766269Y-107233682D01*
X159766265Y-107233673D01*
X159670134Y-107027517D01*
X159539657Y-106841179D01*
X159378820Y-106680342D01*
X159192482Y-106549865D01*
X159134133Y-106522657D01*
X159081694Y-106476484D01*
X159062542Y-106409291D01*
X159082758Y-106342410D01*
X159134129Y-106297895D01*
X159192734Y-106270568D01*
X159379139Y-106140047D01*
X159540047Y-105979139D01*
X159670568Y-105792734D01*
X159766739Y-105586496D01*
X159825635Y-105366692D01*
X159845468Y-105140000D01*
X159825635Y-104913308D01*
X159766739Y-104693504D01*
X159670568Y-104487266D01*
X159540047Y-104300861D01*
X159540045Y-104300858D01*
X159379141Y-104139954D01*
X159192734Y-104009432D01*
X159192728Y-104009429D01*
X159134725Y-103982382D01*
X159082285Y-103936210D01*
X159063133Y-103869017D01*
X159083348Y-103802135D01*
X159134725Y-103757618D01*
X159192734Y-103730568D01*
X159379139Y-103600047D01*
X159540047Y-103439139D01*
X159670568Y-103252734D01*
X159766739Y-103046496D01*
X159825635Y-102826692D01*
X159845468Y-102600000D01*
X159825635Y-102373308D01*
X159766739Y-102153504D01*
X159670568Y-101947266D01*
X159540047Y-101760861D01*
X159540045Y-101760858D01*
X159379141Y-101599954D01*
X159192734Y-101469432D01*
X159192728Y-101469429D01*
X159134725Y-101442382D01*
X159082285Y-101396210D01*
X159063133Y-101329017D01*
X159083348Y-101262135D01*
X159134725Y-101217618D01*
X159192734Y-101190568D01*
X159379139Y-101060047D01*
X159540047Y-100899139D01*
X159670568Y-100712734D01*
X159766739Y-100506496D01*
X159825635Y-100286692D01*
X159845468Y-100060000D01*
X159825635Y-99833308D01*
X159766739Y-99613504D01*
X159670568Y-99407266D01*
X159540047Y-99220861D01*
X159540045Y-99220858D01*
X159379141Y-99059954D01*
X159192734Y-98929432D01*
X159192728Y-98929429D01*
X159134725Y-98902382D01*
X159082285Y-98856210D01*
X159063133Y-98789017D01*
X159083348Y-98722135D01*
X159134725Y-98677618D01*
X159192734Y-98650568D01*
X159379139Y-98520047D01*
X159540047Y-98359139D01*
X159670568Y-98172734D01*
X159766739Y-97966496D01*
X159825635Y-97746692D01*
X159845468Y-97520000D01*
X159825635Y-97293308D01*
X159766739Y-97073504D01*
X159670568Y-96867266D01*
X159540047Y-96680861D01*
X159540045Y-96680858D01*
X159379141Y-96519954D01*
X159192734Y-96389432D01*
X159192728Y-96389429D01*
X159134725Y-96362382D01*
X159082285Y-96316210D01*
X159063133Y-96249017D01*
X159083348Y-96182135D01*
X159134725Y-96137618D01*
X159192734Y-96110568D01*
X159346465Y-96002924D01*
X159412671Y-95980598D01*
X159417588Y-95980500D01*
X160574218Y-95980500D01*
X160641257Y-96000185D01*
X160661899Y-96016819D01*
X167243181Y-102598101D01*
X167276666Y-102659424D01*
X167279500Y-102685782D01*
X167279500Y-113818541D01*
X167279500Y-113818543D01*
X167279499Y-113818543D01*
X167317947Y-114011829D01*
X167317950Y-114011839D01*
X167393364Y-114193907D01*
X167393371Y-114193920D01*
X167502859Y-114357780D01*
X167502860Y-114357781D01*
X167502861Y-114357782D01*
X167642218Y-114497139D01*
X167642219Y-114497139D01*
X167649286Y-114504206D01*
X167649285Y-114504206D01*
X167649289Y-114504209D01*
X168642215Y-115497137D01*
X168642219Y-115497140D01*
X168806079Y-115606628D01*
X168806085Y-115606631D01*
X168806086Y-115606632D01*
X168988165Y-115682052D01*
X169181455Y-115720500D01*
X169181458Y-115720501D01*
X169181460Y-115720501D01*
X169384655Y-115720501D01*
X169384675Y-115720500D01*
X190378543Y-115720500D01*
X190520300Y-115692302D01*
X190571835Y-115682051D01*
X190753914Y-115606632D01*
X190917782Y-115497139D01*
X191057139Y-115357782D01*
X191166632Y-115193914D01*
X191242051Y-115011835D01*
X191280500Y-114818541D01*
X191280500Y-112219994D01*
X191774859Y-112219994D01*
X191774859Y-112220005D01*
X191795385Y-112467729D01*
X191795387Y-112467738D01*
X191856412Y-112708717D01*
X191956266Y-112936364D01*
X192056564Y-113089882D01*
X192756212Y-112390234D01*
X192767482Y-112432292D01*
X192839890Y-112557708D01*
X192942292Y-112660110D01*
X193067708Y-112732518D01*
X193109765Y-112743787D01*
X192409942Y-113443609D01*
X192456768Y-113480055D01*
X192456770Y-113480056D01*
X192675385Y-113598364D01*
X192675396Y-113598369D01*
X192910506Y-113679083D01*
X193155707Y-113720000D01*
X193404293Y-113720000D01*
X193649493Y-113679083D01*
X193884603Y-113598369D01*
X193884614Y-113598364D01*
X194103228Y-113480057D01*
X194103231Y-113480055D01*
X194150056Y-113443609D01*
X193450234Y-112743787D01*
X193492292Y-112732518D01*
X193617708Y-112660110D01*
X193720110Y-112557708D01*
X193792518Y-112432292D01*
X193803787Y-112390235D01*
X194503434Y-113089882D01*
X194603731Y-112936369D01*
X194703587Y-112708717D01*
X194764612Y-112467738D01*
X194764614Y-112467729D01*
X194785141Y-112220005D01*
X194785141Y-112219994D01*
X198274859Y-112219994D01*
X198274859Y-112220005D01*
X198295385Y-112467729D01*
X198295387Y-112467738D01*
X198356412Y-112708717D01*
X198456266Y-112936364D01*
X198556564Y-113089882D01*
X199256212Y-112390234D01*
X199267482Y-112432292D01*
X199339890Y-112557708D01*
X199442292Y-112660110D01*
X199567708Y-112732518D01*
X199609765Y-112743787D01*
X198909942Y-113443609D01*
X198956768Y-113480055D01*
X198956770Y-113480056D01*
X199175385Y-113598364D01*
X199175396Y-113598369D01*
X199410506Y-113679083D01*
X199655707Y-113720000D01*
X199904293Y-113720000D01*
X200149493Y-113679083D01*
X200384603Y-113598369D01*
X200384614Y-113598364D01*
X200603228Y-113480057D01*
X200603231Y-113480055D01*
X200650056Y-113443609D01*
X199950234Y-112743787D01*
X199992292Y-112732518D01*
X200117708Y-112660110D01*
X200220110Y-112557708D01*
X200292518Y-112432292D01*
X200303787Y-112390235D01*
X201003434Y-113089882D01*
X201103731Y-112936369D01*
X201203587Y-112708717D01*
X201264612Y-112467738D01*
X201264614Y-112467729D01*
X201285141Y-112220005D01*
X201285141Y-112219994D01*
X201264614Y-111972270D01*
X201264612Y-111972261D01*
X201203587Y-111731282D01*
X201103731Y-111503630D01*
X201003434Y-111350116D01*
X200303787Y-112049764D01*
X200292518Y-112007708D01*
X200220110Y-111882292D01*
X200117708Y-111779890D01*
X199992292Y-111707482D01*
X199950235Y-111696212D01*
X200650057Y-110996390D01*
X200650056Y-110996389D01*
X200603229Y-110959943D01*
X200384614Y-110841635D01*
X200384603Y-110841630D01*
X200149493Y-110760916D01*
X199904293Y-110720000D01*
X199655707Y-110720000D01*
X199410506Y-110760916D01*
X199175396Y-110841630D01*
X199175390Y-110841632D01*
X198956761Y-110959949D01*
X198909942Y-110996388D01*
X198909942Y-110996390D01*
X199609765Y-111696212D01*
X199567708Y-111707482D01*
X199442292Y-111779890D01*
X199339890Y-111882292D01*
X199267482Y-112007708D01*
X199256212Y-112049764D01*
X198556564Y-111350116D01*
X198456267Y-111503632D01*
X198356412Y-111731282D01*
X198295387Y-111972261D01*
X198295385Y-111972270D01*
X198274859Y-112219994D01*
X194785141Y-112219994D01*
X194764614Y-111972270D01*
X194764612Y-111972261D01*
X194703587Y-111731282D01*
X194603731Y-111503630D01*
X194503434Y-111350116D01*
X193803787Y-112049764D01*
X193792518Y-112007708D01*
X193720110Y-111882292D01*
X193617708Y-111779890D01*
X193492292Y-111707482D01*
X193450235Y-111696212D01*
X194150057Y-110996390D01*
X194150056Y-110996389D01*
X194103229Y-110959943D01*
X193884614Y-110841635D01*
X193884603Y-110841630D01*
X193649493Y-110760916D01*
X193404293Y-110720000D01*
X193155707Y-110720000D01*
X192910506Y-110760916D01*
X192675396Y-110841630D01*
X192675390Y-110841632D01*
X192456761Y-110959949D01*
X192409942Y-110996388D01*
X192409942Y-110996390D01*
X193109765Y-111696212D01*
X193067708Y-111707482D01*
X192942292Y-111779890D01*
X192839890Y-111882292D01*
X192767482Y-112007708D01*
X192756212Y-112049764D01*
X192056564Y-111350116D01*
X191956267Y-111503632D01*
X191856412Y-111731282D01*
X191795387Y-111972261D01*
X191795385Y-111972270D01*
X191774859Y-112219994D01*
X191280500Y-112219994D01*
X191280500Y-111185782D01*
X191300185Y-111118743D01*
X191316819Y-111098101D01*
X193158102Y-109256819D01*
X193219425Y-109223334D01*
X193245783Y-109220500D01*
X193404335Y-109220500D01*
X193649614Y-109179571D01*
X193884810Y-109098828D01*
X194103509Y-108980474D01*
X194299744Y-108827738D01*
X194324194Y-108801177D01*
X194361626Y-108760517D01*
X194421513Y-108724526D01*
X194452855Y-108720500D01*
X198607145Y-108720500D01*
X198674184Y-108740185D01*
X198698374Y-108760517D01*
X198760252Y-108827734D01*
X198760256Y-108827738D01*
X198956491Y-108980474D01*
X198964854Y-108985000D01*
X199157829Y-109089433D01*
X199175190Y-109098828D01*
X199410386Y-109179571D01*
X199655665Y-109220500D01*
X199904335Y-109220500D01*
X200149614Y-109179571D01*
X200384810Y-109098828D01*
X200603509Y-108980474D01*
X200799744Y-108827738D01*
X200968164Y-108644785D01*
X201104173Y-108436607D01*
X201204063Y-108208881D01*
X201265108Y-107967821D01*
X201270173Y-107906697D01*
X201285643Y-107720005D01*
X201285643Y-107719994D01*
X201265109Y-107472187D01*
X201265107Y-107472175D01*
X201204063Y-107231118D01*
X201104173Y-107003393D01*
X200968166Y-106795217D01*
X200880512Y-106700000D01*
X200799744Y-106612262D01*
X200603509Y-106459526D01*
X200603507Y-106459525D01*
X200603506Y-106459524D01*
X200384811Y-106341172D01*
X200384802Y-106341169D01*
X200149616Y-106260429D01*
X199904335Y-106219500D01*
X199655665Y-106219500D01*
X199410383Y-106260429D01*
X199175197Y-106341169D01*
X199175188Y-106341172D01*
X198956493Y-106459524D01*
X198760255Y-106612262D01*
X198760252Y-106612265D01*
X198698374Y-106679483D01*
X198638487Y-106715474D01*
X198607145Y-106719500D01*
X194452855Y-106719500D01*
X194385816Y-106699815D01*
X194361626Y-106679483D01*
X194299747Y-106612265D01*
X194299744Y-106612262D01*
X194219019Y-106549431D01*
X194103509Y-106459526D01*
X194103507Y-106459525D01*
X194103506Y-106459524D01*
X193884811Y-106341172D01*
X193884802Y-106341169D01*
X193649616Y-106260429D01*
X193404335Y-106219500D01*
X193155665Y-106219500D01*
X192910383Y-106260429D01*
X192675197Y-106341169D01*
X192675188Y-106341172D01*
X192456493Y-106459524D01*
X192260257Y-106612261D01*
X192091833Y-106795217D01*
X191955826Y-107003393D01*
X191855936Y-107231118D01*
X191794892Y-107472175D01*
X191794890Y-107472187D01*
X191777671Y-107680000D01*
X191774357Y-107720000D01*
X191775890Y-107738498D01*
X191776553Y-107746502D01*
X191762470Y-107814938D01*
X191740657Y-107844421D01*
X190689680Y-108895399D01*
X189642220Y-109942859D01*
X189642218Y-109942861D01*
X189591777Y-109993302D01*
X189502859Y-110082219D01*
X189393369Y-110246082D01*
X189354675Y-110339500D01*
X189317948Y-110428165D01*
X189317946Y-110428170D01*
X189308476Y-110475785D01*
X189279500Y-110621455D01*
X189279500Y-113595500D01*
X189259815Y-113662539D01*
X189207011Y-113708294D01*
X189155500Y-113719500D01*
X188150442Y-113719500D01*
X188083403Y-113699815D01*
X188037648Y-113647011D01*
X188027704Y-113577853D01*
X188056729Y-113514297D01*
X188091424Y-113486445D01*
X188103232Y-113480054D01*
X188150056Y-113443609D01*
X187450234Y-112743787D01*
X187492292Y-112732518D01*
X187617708Y-112660110D01*
X187720110Y-112557708D01*
X187792518Y-112432292D01*
X187803787Y-112390234D01*
X188503434Y-113089882D01*
X188603731Y-112936369D01*
X188703587Y-112708717D01*
X188764612Y-112467738D01*
X188764614Y-112467729D01*
X188785141Y-112220005D01*
X188785141Y-112219994D01*
X188764614Y-111972270D01*
X188764612Y-111972261D01*
X188703587Y-111731282D01*
X188603731Y-111503630D01*
X188503434Y-111350116D01*
X187803787Y-112049764D01*
X187792518Y-112007708D01*
X187720110Y-111882292D01*
X187617708Y-111779890D01*
X187492292Y-111707482D01*
X187450235Y-111696212D01*
X188150057Y-110996390D01*
X188150056Y-110996389D01*
X188103229Y-110959943D01*
X187884614Y-110841635D01*
X187884603Y-110841630D01*
X187649493Y-110760916D01*
X187404293Y-110720000D01*
X187155707Y-110720000D01*
X186910506Y-110760916D01*
X186675396Y-110841630D01*
X186675390Y-110841632D01*
X186456761Y-110959949D01*
X186409942Y-110996388D01*
X186409942Y-110996390D01*
X187109765Y-111696212D01*
X187067708Y-111707482D01*
X186942292Y-111779890D01*
X186839890Y-111882292D01*
X186767482Y-112007708D01*
X186756212Y-112049764D01*
X186056564Y-111350116D01*
X185956267Y-111503632D01*
X185856412Y-111731282D01*
X185795387Y-111972261D01*
X185795385Y-111972270D01*
X185774859Y-112219994D01*
X185774859Y-112220005D01*
X185795385Y-112467729D01*
X185795387Y-112467738D01*
X185856412Y-112708717D01*
X185956266Y-112936364D01*
X186056564Y-113089882D01*
X186756212Y-112390234D01*
X186767482Y-112432292D01*
X186839890Y-112557708D01*
X186942292Y-112660110D01*
X187067708Y-112732518D01*
X187109765Y-112743787D01*
X186409942Y-113443609D01*
X186456767Y-113480054D01*
X186468576Y-113486445D01*
X186518166Y-113535665D01*
X186533274Y-113603882D01*
X186509103Y-113669437D01*
X186453328Y-113711518D01*
X186409558Y-113719500D01*
X181650442Y-113719500D01*
X181583403Y-113699815D01*
X181537648Y-113647011D01*
X181527704Y-113577853D01*
X181556729Y-113514297D01*
X181591424Y-113486445D01*
X181603232Y-113480054D01*
X181650056Y-113443609D01*
X180950234Y-112743787D01*
X180992292Y-112732518D01*
X181117708Y-112660110D01*
X181220110Y-112557708D01*
X181292518Y-112432292D01*
X181303787Y-112390234D01*
X182003434Y-113089882D01*
X182103731Y-112936369D01*
X182203587Y-112708717D01*
X182264612Y-112467738D01*
X182264614Y-112467729D01*
X182285141Y-112220005D01*
X182285141Y-112219994D01*
X182264614Y-111972270D01*
X182264612Y-111972261D01*
X182203587Y-111731282D01*
X182103731Y-111503630D01*
X182003434Y-111350116D01*
X181303787Y-112049764D01*
X181292518Y-112007708D01*
X181220110Y-111882292D01*
X181117708Y-111779890D01*
X180992292Y-111707482D01*
X180950235Y-111696212D01*
X181650057Y-110996390D01*
X181650056Y-110996389D01*
X181603229Y-110959943D01*
X181384614Y-110841635D01*
X181384603Y-110841630D01*
X181149493Y-110760916D01*
X180904293Y-110720000D01*
X180655707Y-110720000D01*
X180410506Y-110760916D01*
X180175396Y-110841630D01*
X180175390Y-110841632D01*
X179956761Y-110959949D01*
X179909942Y-110996388D01*
X179909942Y-110996390D01*
X180609765Y-111696212D01*
X180567708Y-111707482D01*
X180442292Y-111779890D01*
X180339890Y-111882292D01*
X180267482Y-112007708D01*
X180256212Y-112049764D01*
X179556564Y-111350116D01*
X179456267Y-111503632D01*
X179356412Y-111731282D01*
X179295387Y-111972261D01*
X179295385Y-111972270D01*
X179274859Y-112219994D01*
X179274859Y-112220005D01*
X179295385Y-112467729D01*
X179295387Y-112467738D01*
X179356412Y-112708717D01*
X179456266Y-112936364D01*
X179556564Y-113089882D01*
X180256212Y-112390234D01*
X180267482Y-112432292D01*
X180339890Y-112557708D01*
X180442292Y-112660110D01*
X180567708Y-112732518D01*
X180609765Y-112743787D01*
X179909942Y-113443609D01*
X179956767Y-113480054D01*
X179968576Y-113486445D01*
X180018166Y-113535665D01*
X180033274Y-113603882D01*
X180009103Y-113669437D01*
X179953328Y-113711518D01*
X179909558Y-113719500D01*
X176493392Y-113719500D01*
X176426353Y-113699815D01*
X176380598Y-113647011D01*
X176370654Y-113577853D01*
X176399679Y-113514297D01*
X176414725Y-113499648D01*
X176417776Y-113497142D01*
X176417782Y-113497139D01*
X176557139Y-113357782D01*
X176557140Y-113357780D01*
X176564206Y-113350714D01*
X176564208Y-113350710D01*
X180658101Y-109256819D01*
X180719424Y-109223334D01*
X180745782Y-109220500D01*
X180904335Y-109220500D01*
X181149614Y-109179571D01*
X181384810Y-109098828D01*
X181603509Y-108980474D01*
X181799744Y-108827738D01*
X181824194Y-108801177D01*
X181861626Y-108760517D01*
X181921513Y-108724526D01*
X181952855Y-108720500D01*
X186107145Y-108720500D01*
X186174184Y-108740185D01*
X186198374Y-108760517D01*
X186260252Y-108827734D01*
X186260256Y-108827738D01*
X186456491Y-108980474D01*
X186464854Y-108985000D01*
X186657829Y-109089433D01*
X186675190Y-109098828D01*
X186910386Y-109179571D01*
X187155665Y-109220500D01*
X187404335Y-109220500D01*
X187649614Y-109179571D01*
X187884810Y-109098828D01*
X188103509Y-108980474D01*
X188299744Y-108827738D01*
X188468164Y-108644785D01*
X188604173Y-108436607D01*
X188704063Y-108208881D01*
X188765108Y-107967821D01*
X188770173Y-107906697D01*
X188785643Y-107720005D01*
X188785643Y-107719994D01*
X188765109Y-107472187D01*
X188765107Y-107472175D01*
X188704063Y-107231118D01*
X188604173Y-107003393D01*
X188468166Y-106795217D01*
X188380512Y-106700000D01*
X188299744Y-106612262D01*
X188103509Y-106459526D01*
X188103507Y-106459525D01*
X188103506Y-106459524D01*
X187884811Y-106341172D01*
X187884802Y-106341169D01*
X187649616Y-106260429D01*
X187404335Y-106219500D01*
X187155665Y-106219500D01*
X186910383Y-106260429D01*
X186675197Y-106341169D01*
X186675188Y-106341172D01*
X186456493Y-106459524D01*
X186260255Y-106612262D01*
X186260252Y-106612265D01*
X186198374Y-106679483D01*
X186138487Y-106715474D01*
X186107145Y-106719500D01*
X181952855Y-106719500D01*
X181885816Y-106699815D01*
X181861626Y-106679483D01*
X181799747Y-106612265D01*
X181799744Y-106612262D01*
X181719019Y-106549431D01*
X181603509Y-106459526D01*
X181603507Y-106459525D01*
X181603506Y-106459524D01*
X181384811Y-106341172D01*
X181384802Y-106341169D01*
X181149616Y-106260429D01*
X180904335Y-106219500D01*
X180655665Y-106219500D01*
X180410383Y-106260429D01*
X180175197Y-106341169D01*
X180175188Y-106341172D01*
X179956493Y-106459524D01*
X179760257Y-106612261D01*
X179591833Y-106795217D01*
X179455826Y-107003393D01*
X179355936Y-107231118D01*
X179294892Y-107472175D01*
X179294890Y-107472187D01*
X179277671Y-107680000D01*
X179274357Y-107720000D01*
X179275890Y-107738498D01*
X179276553Y-107746502D01*
X179262470Y-107814938D01*
X179240657Y-107844421D01*
X175401899Y-111683181D01*
X175340576Y-111716666D01*
X175314218Y-111719500D01*
X174824048Y-111719500D01*
X174757009Y-111699815D01*
X174711254Y-111647011D01*
X174701310Y-111577853D01*
X174730335Y-111514297D01*
X174780715Y-111479318D01*
X174822328Y-111463797D01*
X174822327Y-111463797D01*
X174822331Y-111463796D01*
X174937546Y-111377546D01*
X175023796Y-111262331D01*
X175074091Y-111127483D01*
X175080500Y-111067873D01*
X175080499Y-109372128D01*
X175074091Y-109312517D01*
X175039567Y-109219954D01*
X175023797Y-109177671D01*
X175023793Y-109177664D01*
X174937547Y-109062455D01*
X174937544Y-109062452D01*
X174822335Y-108976206D01*
X174822328Y-108976202D01*
X174687482Y-108925908D01*
X174687483Y-108925908D01*
X174652404Y-108922137D01*
X174587853Y-108895399D01*
X174548005Y-108838006D01*
X174545512Y-108768181D01*
X174581165Y-108708092D01*
X174594539Y-108697272D01*
X174619140Y-108680046D01*
X174780045Y-108519141D01*
X174780047Y-108519139D01*
X174910568Y-108332734D01*
X175006739Y-108126496D01*
X175065635Y-107906692D01*
X175085468Y-107680000D01*
X175065635Y-107453308D01*
X175006739Y-107233504D01*
X174910568Y-107027266D01*
X174780047Y-106840861D01*
X174780045Y-106840858D01*
X174619141Y-106679954D01*
X174432734Y-106549432D01*
X174432732Y-106549431D01*
X174375315Y-106522657D01*
X174374132Y-106522105D01*
X174321694Y-106475934D01*
X174302542Y-106408740D01*
X174322758Y-106341859D01*
X174374134Y-106297341D01*
X174432484Y-106270132D01*
X174618820Y-106139657D01*
X174779657Y-105978820D01*
X174910134Y-105792482D01*
X175006265Y-105586326D01*
X175006269Y-105586317D01*
X175058872Y-105390000D01*
X174095686Y-105390000D01*
X174100080Y-105385606D01*
X174152741Y-105294394D01*
X174180000Y-105192661D01*
X174180000Y-105087339D01*
X174152741Y-104985606D01*
X174100080Y-104894394D01*
X174095686Y-104890000D01*
X175058872Y-104890000D01*
X175058872Y-104889999D01*
X175006269Y-104693682D01*
X175006265Y-104693673D01*
X174910134Y-104487517D01*
X174779657Y-104301179D01*
X174618820Y-104140342D01*
X174432481Y-104009865D01*
X174432479Y-104009864D01*
X174373543Y-103982382D01*
X174321103Y-103936210D01*
X174301951Y-103869017D01*
X174322166Y-103802136D01*
X174373543Y-103757618D01*
X174432479Y-103730135D01*
X174432481Y-103730134D01*
X174618820Y-103599657D01*
X174779657Y-103438820D01*
X174910134Y-103252482D01*
X175006265Y-103046326D01*
X175006269Y-103046317D01*
X175058872Y-102850000D01*
X174095686Y-102850000D01*
X174100080Y-102845606D01*
X174152741Y-102754394D01*
X174180000Y-102652661D01*
X174180000Y-102547339D01*
X174152741Y-102445606D01*
X174100080Y-102354394D01*
X174095686Y-102350000D01*
X175058872Y-102350000D01*
X175058872Y-102349999D01*
X175006269Y-102153682D01*
X175006265Y-102153673D01*
X174910134Y-101947517D01*
X174779657Y-101761179D01*
X174618820Y-101600342D01*
X174432482Y-101469865D01*
X174374133Y-101442657D01*
X174321694Y-101396484D01*
X174302542Y-101329291D01*
X174322758Y-101262410D01*
X174374129Y-101217895D01*
X174432734Y-101190568D01*
X174619139Y-101060047D01*
X174780047Y-100899139D01*
X174910568Y-100712734D01*
X175006739Y-100506496D01*
X175065635Y-100286692D01*
X175085468Y-100060000D01*
X175065635Y-99833308D01*
X175006739Y-99613504D01*
X174910568Y-99407266D01*
X174780047Y-99220861D01*
X174780045Y-99220858D01*
X174619141Y-99059954D01*
X174432734Y-98929432D01*
X174432728Y-98929429D01*
X174374725Y-98902382D01*
X174322285Y-98856210D01*
X174303133Y-98789017D01*
X174323348Y-98722135D01*
X174374725Y-98677618D01*
X174432734Y-98650568D01*
X174619139Y-98520047D01*
X174780047Y-98359139D01*
X174910568Y-98172734D01*
X175006739Y-97966496D01*
X175065635Y-97746692D01*
X175085468Y-97520000D01*
X175065635Y-97293308D01*
X175006739Y-97073504D01*
X174910568Y-96867266D01*
X174780047Y-96680861D01*
X174780045Y-96680858D01*
X174619141Y-96519954D01*
X174432734Y-96389432D01*
X174432728Y-96389429D01*
X174374725Y-96362382D01*
X174322285Y-96316210D01*
X174303133Y-96249017D01*
X174323348Y-96182135D01*
X174374725Y-96137618D01*
X174432734Y-96110568D01*
X174619139Y-95980047D01*
X174780047Y-95819139D01*
X174910568Y-95632734D01*
X175006739Y-95426496D01*
X175065635Y-95206692D01*
X175085468Y-94980000D01*
X175083060Y-94952482D01*
X175079801Y-94915230D01*
X175065635Y-94753308D01*
X175006739Y-94533504D01*
X174980345Y-94476904D01*
X174969854Y-94407828D01*
X174998373Y-94344044D01*
X175056850Y-94305804D01*
X175092728Y-94300500D01*
X175394217Y-94300500D01*
X175461256Y-94320185D01*
X175481898Y-94336819D01*
X175983181Y-94838101D01*
X176016666Y-94899424D01*
X176019500Y-94925782D01*
X176019500Y-98918545D01*
X176023092Y-98936604D01*
X176023094Y-98936609D01*
X176047628Y-99059954D01*
X176051616Y-99080000D01*
X176057949Y-99111835D01*
X176057950Y-99111839D01*
X176057951Y-99111841D01*
X176133364Y-99293907D01*
X176133371Y-99293920D01*
X176242859Y-99457780D01*
X176242860Y-99457781D01*
X176242861Y-99457782D01*
X176382218Y-99597139D01*
X176382219Y-99597139D01*
X176389286Y-99604206D01*
X176389285Y-99604206D01*
X176389288Y-99604208D01*
X177822860Y-101037781D01*
X177822861Y-101037782D01*
X177936414Y-101151335D01*
X177962219Y-101177140D01*
X178126081Y-101286629D01*
X178126082Y-101286629D01*
X178126086Y-101286632D01*
X178193040Y-101314365D01*
X178308164Y-101362051D01*
X178488212Y-101397865D01*
X178501454Y-101400499D01*
X178501457Y-101400500D01*
X179783958Y-101400500D01*
X179850997Y-101420185D01*
X179896752Y-101472989D01*
X179899073Y-101485521D01*
X180609765Y-102196212D01*
X180567708Y-102207482D01*
X180442292Y-102279890D01*
X180339890Y-102382292D01*
X180267482Y-102507708D01*
X180256212Y-102549764D01*
X179556564Y-101850116D01*
X179456267Y-102003632D01*
X179356412Y-102231282D01*
X179295387Y-102472261D01*
X179295385Y-102472270D01*
X179274859Y-102719994D01*
X179274859Y-102720005D01*
X179295385Y-102967729D01*
X179295387Y-102967738D01*
X179356412Y-103208717D01*
X179456266Y-103436364D01*
X179556564Y-103589882D01*
X180256212Y-102890234D01*
X180267482Y-102932292D01*
X180339890Y-103057708D01*
X180442292Y-103160110D01*
X180567708Y-103232518D01*
X180609765Y-103243787D01*
X179909942Y-103943609D01*
X179956768Y-103980055D01*
X179956770Y-103980056D01*
X180175385Y-104098364D01*
X180175396Y-104098369D01*
X180410506Y-104179083D01*
X180655707Y-104220000D01*
X180904293Y-104220000D01*
X181149493Y-104179083D01*
X181384603Y-104098369D01*
X181384614Y-104098364D01*
X181603228Y-103980057D01*
X181603231Y-103980055D01*
X181650056Y-103943609D01*
X180950234Y-103243787D01*
X180992292Y-103232518D01*
X181117708Y-103160110D01*
X181220110Y-103057708D01*
X181292518Y-102932292D01*
X181303787Y-102890234D01*
X182003434Y-103589882D01*
X182103731Y-103436369D01*
X182203587Y-103208717D01*
X182264612Y-102967738D01*
X182264614Y-102967729D01*
X182285141Y-102720005D01*
X182285141Y-102719994D01*
X182264614Y-102472270D01*
X182264612Y-102472261D01*
X182203587Y-102231282D01*
X182103731Y-102003630D01*
X182003434Y-101850116D01*
X181303787Y-102549764D01*
X181292518Y-102507708D01*
X181220110Y-102382292D01*
X181117708Y-102279890D01*
X180992292Y-102207482D01*
X180950234Y-102196212D01*
X181663469Y-101482977D01*
X181667773Y-101464052D01*
X181717641Y-101415114D01*
X181776042Y-101400500D01*
X186283958Y-101400500D01*
X186350997Y-101420185D01*
X186396752Y-101472989D01*
X186399073Y-101485521D01*
X187109765Y-102196212D01*
X187067708Y-102207482D01*
X186942292Y-102279890D01*
X186839890Y-102382292D01*
X186767482Y-102507708D01*
X186756212Y-102549764D01*
X186056564Y-101850116D01*
X185956267Y-102003632D01*
X185856412Y-102231282D01*
X185795387Y-102472261D01*
X185795385Y-102472270D01*
X185774859Y-102719994D01*
X185774859Y-102720005D01*
X185795385Y-102967729D01*
X185795387Y-102967738D01*
X185856412Y-103208717D01*
X185956266Y-103436364D01*
X186056564Y-103589882D01*
X186756212Y-102890234D01*
X186767482Y-102932292D01*
X186839890Y-103057708D01*
X186942292Y-103160110D01*
X187067708Y-103232518D01*
X187109765Y-103243787D01*
X186409942Y-103943609D01*
X186456768Y-103980055D01*
X186456770Y-103980056D01*
X186675385Y-104098364D01*
X186675396Y-104098369D01*
X186910506Y-104179083D01*
X187155707Y-104220000D01*
X187404293Y-104220000D01*
X187649493Y-104179083D01*
X187884603Y-104098369D01*
X187884614Y-104098364D01*
X188103228Y-103980057D01*
X188103231Y-103980055D01*
X188150056Y-103943609D01*
X187450234Y-103243787D01*
X187492292Y-103232518D01*
X187617708Y-103160110D01*
X187720110Y-103057708D01*
X187792518Y-102932292D01*
X187803787Y-102890234D01*
X188503434Y-103589882D01*
X188603731Y-103436369D01*
X188703587Y-103208717D01*
X188764612Y-102967738D01*
X188764614Y-102967729D01*
X188785141Y-102720005D01*
X188785141Y-102719994D01*
X191774859Y-102719994D01*
X191774859Y-102720005D01*
X191795385Y-102967729D01*
X191795387Y-102967738D01*
X191856412Y-103208717D01*
X191956266Y-103436364D01*
X192056564Y-103589882D01*
X192756212Y-102890234D01*
X192767482Y-102932292D01*
X192839890Y-103057708D01*
X192942292Y-103160110D01*
X193067708Y-103232518D01*
X193109765Y-103243787D01*
X192409942Y-103943609D01*
X192456768Y-103980055D01*
X192456770Y-103980056D01*
X192675385Y-104098364D01*
X192675396Y-104098369D01*
X192910506Y-104179083D01*
X193155707Y-104220000D01*
X193404293Y-104220000D01*
X193649493Y-104179083D01*
X193884603Y-104098369D01*
X193884614Y-104098364D01*
X194103228Y-103980057D01*
X194103231Y-103980055D01*
X194150056Y-103943609D01*
X193450234Y-103243787D01*
X193492292Y-103232518D01*
X193617708Y-103160110D01*
X193720110Y-103057708D01*
X193792518Y-102932292D01*
X193803787Y-102890235D01*
X194503434Y-103589882D01*
X194603731Y-103436369D01*
X194703587Y-103208717D01*
X194764612Y-102967738D01*
X194764614Y-102967729D01*
X194785141Y-102720005D01*
X194785141Y-102719994D01*
X198274859Y-102719994D01*
X198274859Y-102720005D01*
X198295385Y-102967729D01*
X198295387Y-102967738D01*
X198356412Y-103208717D01*
X198456266Y-103436364D01*
X198556564Y-103589882D01*
X199256212Y-102890234D01*
X199267482Y-102932292D01*
X199339890Y-103057708D01*
X199442292Y-103160110D01*
X199567708Y-103232518D01*
X199609765Y-103243787D01*
X198909942Y-103943609D01*
X198956768Y-103980055D01*
X198956770Y-103980056D01*
X199175385Y-104098364D01*
X199175396Y-104098369D01*
X199410506Y-104179083D01*
X199655707Y-104220000D01*
X199904293Y-104220000D01*
X200149493Y-104179083D01*
X200384603Y-104098369D01*
X200384614Y-104098364D01*
X200603228Y-103980057D01*
X200603231Y-103980055D01*
X200650056Y-103943609D01*
X199950234Y-103243787D01*
X199992292Y-103232518D01*
X200117708Y-103160110D01*
X200220110Y-103057708D01*
X200292518Y-102932292D01*
X200303787Y-102890235D01*
X201003434Y-103589882D01*
X201103731Y-103436369D01*
X201203587Y-103208717D01*
X201264612Y-102967738D01*
X201264614Y-102967729D01*
X201285141Y-102720005D01*
X201285141Y-102719994D01*
X201264614Y-102472270D01*
X201264612Y-102472261D01*
X201203587Y-102231282D01*
X201103731Y-102003630D01*
X201003434Y-101850116D01*
X200303787Y-102549764D01*
X200292518Y-102507708D01*
X200220110Y-102382292D01*
X200117708Y-102279890D01*
X199992292Y-102207482D01*
X199950235Y-102196212D01*
X200650057Y-101496390D01*
X200650056Y-101496389D01*
X200603229Y-101459943D01*
X200384614Y-101341635D01*
X200384603Y-101341630D01*
X200149493Y-101260916D01*
X199904293Y-101220000D01*
X199655707Y-101220000D01*
X199410506Y-101260916D01*
X199175396Y-101341630D01*
X199175390Y-101341632D01*
X198956761Y-101459949D01*
X198909942Y-101496388D01*
X198909942Y-101496390D01*
X199609765Y-102196212D01*
X199567708Y-102207482D01*
X199442292Y-102279890D01*
X199339890Y-102382292D01*
X199267482Y-102507708D01*
X199256212Y-102549764D01*
X198556564Y-101850116D01*
X198456267Y-102003632D01*
X198356412Y-102231282D01*
X198295387Y-102472261D01*
X198295385Y-102472270D01*
X198274859Y-102719994D01*
X194785141Y-102719994D01*
X194764614Y-102472270D01*
X194764612Y-102472261D01*
X194703587Y-102231282D01*
X194603731Y-102003630D01*
X194503434Y-101850116D01*
X193803787Y-102549764D01*
X193792518Y-102507708D01*
X193720110Y-102382292D01*
X193617708Y-102279890D01*
X193492292Y-102207482D01*
X193450235Y-102196212D01*
X194150057Y-101496390D01*
X194150056Y-101496389D01*
X194103229Y-101459943D01*
X193884614Y-101341635D01*
X193884603Y-101341630D01*
X193649493Y-101260916D01*
X193404293Y-101220000D01*
X193155707Y-101220000D01*
X192910506Y-101260916D01*
X192675396Y-101341630D01*
X192675390Y-101341632D01*
X192456761Y-101459949D01*
X192409942Y-101496388D01*
X192409942Y-101496390D01*
X193109765Y-102196212D01*
X193067708Y-102207482D01*
X192942292Y-102279890D01*
X192839890Y-102382292D01*
X192767482Y-102507708D01*
X192756212Y-102549764D01*
X192056564Y-101850116D01*
X191956267Y-102003632D01*
X191856412Y-102231282D01*
X191795387Y-102472261D01*
X191795385Y-102472270D01*
X191774859Y-102719994D01*
X188785141Y-102719994D01*
X188764614Y-102472270D01*
X188764612Y-102472261D01*
X188703587Y-102231282D01*
X188603731Y-102003630D01*
X188503434Y-101850116D01*
X187803787Y-102549764D01*
X187792518Y-102507708D01*
X187720110Y-102382292D01*
X187617708Y-102279890D01*
X187492292Y-102207482D01*
X187450234Y-102196212D01*
X188163469Y-101482977D01*
X188167773Y-101464052D01*
X188217641Y-101415114D01*
X188276042Y-101400500D01*
X191198542Y-101400500D01*
X191220107Y-101396210D01*
X191295188Y-101381275D01*
X191391836Y-101362051D01*
X191461082Y-101333368D01*
X191573914Y-101286632D01*
X191737782Y-101177139D01*
X191877139Y-101037782D01*
X191877139Y-101037780D01*
X191887347Y-101027573D01*
X191887348Y-101027570D01*
X193158102Y-99756819D01*
X193219425Y-99723334D01*
X193245783Y-99720500D01*
X193404335Y-99720500D01*
X193649614Y-99679571D01*
X193884810Y-99598828D01*
X194103509Y-99480474D01*
X194299744Y-99327738D01*
X194324194Y-99301177D01*
X194361626Y-99260517D01*
X194421513Y-99224526D01*
X194452855Y-99220500D01*
X198607145Y-99220500D01*
X198674184Y-99240185D01*
X198698374Y-99260517D01*
X198760252Y-99327734D01*
X198760256Y-99327738D01*
X198956491Y-99480474D01*
X199175190Y-99598828D01*
X199410386Y-99679571D01*
X199655665Y-99720500D01*
X199904335Y-99720500D01*
X200149614Y-99679571D01*
X200384810Y-99598828D01*
X200603509Y-99480474D01*
X200799744Y-99327738D01*
X200968164Y-99144785D01*
X201104173Y-98936607D01*
X201204063Y-98708881D01*
X201265108Y-98467821D01*
X201270548Y-98402169D01*
X201285643Y-98220005D01*
X201285643Y-98219994D01*
X201265109Y-97972187D01*
X201265107Y-97972175D01*
X201204063Y-97731118D01*
X201104173Y-97503393D01*
X200968166Y-97295217D01*
X200898463Y-97219500D01*
X200799744Y-97112262D01*
X200603509Y-96959526D01*
X200603507Y-96959525D01*
X200603506Y-96959524D01*
X200384811Y-96841172D01*
X200384802Y-96841169D01*
X200149616Y-96760429D01*
X199904335Y-96719500D01*
X199655665Y-96719500D01*
X199410383Y-96760429D01*
X199175197Y-96841169D01*
X199175188Y-96841172D01*
X198956493Y-96959524D01*
X198760255Y-97112262D01*
X198760252Y-97112265D01*
X198698374Y-97179483D01*
X198638487Y-97215474D01*
X198607145Y-97219500D01*
X194452855Y-97219500D01*
X194385816Y-97199815D01*
X194361626Y-97179483D01*
X194299747Y-97112265D01*
X194299744Y-97112262D01*
X194103506Y-96959524D01*
X193884811Y-96841172D01*
X193884802Y-96841169D01*
X193649616Y-96760429D01*
X193404335Y-96719500D01*
X193155665Y-96719500D01*
X192910383Y-96760429D01*
X192675197Y-96841169D01*
X192675188Y-96841172D01*
X192456493Y-96959524D01*
X192260257Y-97112261D01*
X192091833Y-97295217D01*
X191955826Y-97503393D01*
X191855936Y-97731118D01*
X191794892Y-97972175D01*
X191794890Y-97972187D01*
X191774357Y-98219994D01*
X191774357Y-98220000D01*
X191776553Y-98246502D01*
X191762470Y-98314938D01*
X191740657Y-98344421D01*
X190721899Y-99363181D01*
X190660576Y-99396666D01*
X190634218Y-99399500D01*
X188516374Y-99399500D01*
X188449335Y-99379815D01*
X188403580Y-99327011D01*
X188393636Y-99257853D01*
X188422661Y-99194297D01*
X188425144Y-99191517D01*
X188468164Y-99144785D01*
X188604173Y-98936607D01*
X188704063Y-98708881D01*
X188765108Y-98467821D01*
X188770548Y-98402169D01*
X188785643Y-98220005D01*
X188785643Y-98219994D01*
X188765109Y-97972187D01*
X188765107Y-97972175D01*
X188704063Y-97731118D01*
X188604173Y-97503393D01*
X188468166Y-97295217D01*
X188398463Y-97219500D01*
X188299744Y-97112262D01*
X188103509Y-96959526D01*
X188103507Y-96959525D01*
X188103506Y-96959524D01*
X187884811Y-96841172D01*
X187884802Y-96841169D01*
X187649616Y-96760429D01*
X187404335Y-96719500D01*
X187155665Y-96719500D01*
X186910383Y-96760429D01*
X186675197Y-96841169D01*
X186675188Y-96841172D01*
X186456493Y-96959524D01*
X186260255Y-97112262D01*
X186260252Y-97112265D01*
X186198374Y-97179483D01*
X186138487Y-97215474D01*
X186107145Y-97219500D01*
X181952855Y-97219500D01*
X181885816Y-97199815D01*
X181861625Y-97179483D01*
X181813270Y-97126955D01*
X181782348Y-97064300D01*
X181780500Y-97042972D01*
X181780500Y-94121458D01*
X181780499Y-94121457D01*
X181767379Y-94055494D01*
X181742052Y-93928165D01*
X181666632Y-93746086D01*
X181666631Y-93746085D01*
X181666628Y-93746079D01*
X181557140Y-93582219D01*
X181557137Y-93582215D01*
X178564209Y-90589289D01*
X178564206Y-90589285D01*
X178564206Y-90589286D01*
X178557139Y-90582219D01*
X178557139Y-90582218D01*
X178417782Y-90442861D01*
X178417781Y-90442860D01*
X178417780Y-90442859D01*
X178253920Y-90333371D01*
X178253907Y-90333364D01*
X178119037Y-90277500D01*
X178119036Y-90277500D01*
X178071836Y-90257949D01*
X178071828Y-90257947D01*
X177975188Y-90238724D01*
X177878544Y-90219500D01*
X177878541Y-90219500D01*
X176201459Y-90219500D01*
X176201457Y-90219500D01*
X176008170Y-90257947D01*
X176008160Y-90257950D01*
X175826092Y-90333364D01*
X175826079Y-90333371D01*
X175662218Y-90442860D01*
X175662214Y-90442863D01*
X175521897Y-90583181D01*
X175460574Y-90616666D01*
X175434216Y-90619500D01*
X175074076Y-90619500D01*
X175007037Y-90599815D01*
X174961282Y-90547011D01*
X174951338Y-90477853D01*
X174961694Y-90443095D01*
X174976028Y-90412355D01*
X175006739Y-90346496D01*
X175065635Y-90126692D01*
X175085468Y-89900000D01*
X175082532Y-89866447D01*
X175070707Y-89731282D01*
X175065635Y-89673308D01*
X175006739Y-89453504D01*
X174910568Y-89247266D01*
X174780047Y-89060861D01*
X174780045Y-89060858D01*
X174619141Y-88899954D01*
X174432734Y-88769432D01*
X174432728Y-88769429D01*
X174374725Y-88742382D01*
X174322285Y-88696210D01*
X174303133Y-88629017D01*
X174323348Y-88562135D01*
X174374725Y-88517618D01*
X174432734Y-88490568D01*
X174619139Y-88360047D01*
X174780047Y-88199139D01*
X174910568Y-88012734D01*
X175006739Y-87806496D01*
X175065635Y-87586692D01*
X175085468Y-87360000D01*
X175065635Y-87133308D01*
X175037152Y-87027007D01*
X175024984Y-86981593D01*
X175026647Y-86911743D01*
X175065810Y-86853881D01*
X175130039Y-86826377D01*
X175144759Y-86825500D01*
X175419217Y-86825500D01*
X175486256Y-86845185D01*
X175506898Y-86861819D01*
X177279735Y-88634655D01*
X177279764Y-88634686D01*
X177422214Y-88777136D01*
X177422218Y-88777139D01*
X177586079Y-88886628D01*
X177586083Y-88886630D01*
X177586086Y-88886632D01*
X177709977Y-88937949D01*
X177768164Y-88962051D01*
X177864812Y-88981275D01*
X177913135Y-88990887D01*
X177961458Y-89000500D01*
X179862691Y-89000500D01*
X179929730Y-89020185D01*
X179950372Y-89036819D01*
X180609765Y-89696212D01*
X180567708Y-89707482D01*
X180442292Y-89779890D01*
X180339890Y-89882292D01*
X180267482Y-90007708D01*
X180256212Y-90049764D01*
X179556564Y-89350116D01*
X179456267Y-89503632D01*
X179356412Y-89731282D01*
X179295387Y-89972261D01*
X179295385Y-89972270D01*
X179274859Y-90219994D01*
X179274859Y-90220005D01*
X179295385Y-90467729D01*
X179295387Y-90467738D01*
X179356412Y-90708717D01*
X179456266Y-90936364D01*
X179556564Y-91089882D01*
X180256212Y-90390234D01*
X180267482Y-90432292D01*
X180339890Y-90557708D01*
X180442292Y-90660110D01*
X180567708Y-90732518D01*
X180609765Y-90743787D01*
X179909942Y-91443609D01*
X179956768Y-91480055D01*
X179956770Y-91480056D01*
X180175385Y-91598364D01*
X180175396Y-91598369D01*
X180410506Y-91679083D01*
X180655707Y-91720000D01*
X180904293Y-91720000D01*
X181149493Y-91679083D01*
X181384603Y-91598369D01*
X181384614Y-91598364D01*
X181603228Y-91480057D01*
X181603231Y-91480055D01*
X181650056Y-91443609D01*
X180950234Y-90743787D01*
X180992292Y-90732518D01*
X181117708Y-90660110D01*
X181220110Y-90557708D01*
X181292518Y-90432292D01*
X181303787Y-90390234D01*
X182003434Y-91089882D01*
X182103731Y-90936369D01*
X182203587Y-90708717D01*
X182264612Y-90467738D01*
X182264614Y-90467729D01*
X182285141Y-90220005D01*
X182285141Y-90219994D01*
X182264614Y-89972270D01*
X182264612Y-89972261D01*
X182203587Y-89731282D01*
X182103731Y-89503630D01*
X182003434Y-89350116D01*
X181303787Y-90049764D01*
X181292518Y-90007708D01*
X181220110Y-89882292D01*
X181117708Y-89779890D01*
X180992292Y-89707482D01*
X180950234Y-89696212D01*
X181609628Y-89036819D01*
X181670951Y-89003334D01*
X181697309Y-89000500D01*
X186362691Y-89000500D01*
X186429730Y-89020185D01*
X186450372Y-89036819D01*
X187109765Y-89696212D01*
X187067708Y-89707482D01*
X186942292Y-89779890D01*
X186839890Y-89882292D01*
X186767482Y-90007708D01*
X186756212Y-90049764D01*
X186056564Y-89350116D01*
X185956267Y-89503632D01*
X185856412Y-89731282D01*
X185795387Y-89972261D01*
X185795385Y-89972270D01*
X185774859Y-90219994D01*
X185774859Y-90220005D01*
X185795385Y-90467729D01*
X185795387Y-90467738D01*
X185856412Y-90708717D01*
X185956266Y-90936364D01*
X186056564Y-91089882D01*
X186756212Y-90390234D01*
X186767482Y-90432292D01*
X186839890Y-90557708D01*
X186942292Y-90660110D01*
X187067708Y-90732518D01*
X187109765Y-90743787D01*
X186409942Y-91443609D01*
X186456768Y-91480055D01*
X186456770Y-91480056D01*
X186675385Y-91598364D01*
X186675396Y-91598369D01*
X186910506Y-91679083D01*
X187155707Y-91720000D01*
X187404293Y-91720000D01*
X187649493Y-91679083D01*
X187884603Y-91598369D01*
X187884614Y-91598364D01*
X188103228Y-91480057D01*
X188103231Y-91480055D01*
X188150056Y-91443609D01*
X187450234Y-90743787D01*
X187492292Y-90732518D01*
X187617708Y-90660110D01*
X187720110Y-90557708D01*
X187792518Y-90432292D01*
X187803787Y-90390234D01*
X188503434Y-91089882D01*
X188603731Y-90936369D01*
X188703587Y-90708717D01*
X188764612Y-90467738D01*
X188764614Y-90467729D01*
X188785141Y-90220005D01*
X188785141Y-90219994D01*
X191774859Y-90219994D01*
X191774859Y-90220005D01*
X191795385Y-90467729D01*
X191795387Y-90467738D01*
X191856412Y-90708717D01*
X191956266Y-90936364D01*
X192056564Y-91089882D01*
X192756212Y-90390234D01*
X192767482Y-90432292D01*
X192839890Y-90557708D01*
X192942292Y-90660110D01*
X193067708Y-90732518D01*
X193109765Y-90743787D01*
X192409942Y-91443609D01*
X192456768Y-91480055D01*
X192456770Y-91480056D01*
X192675385Y-91598364D01*
X192675396Y-91598369D01*
X192910506Y-91679083D01*
X193155707Y-91720000D01*
X193404293Y-91720000D01*
X193649493Y-91679083D01*
X193884603Y-91598369D01*
X193884614Y-91598364D01*
X194103228Y-91480057D01*
X194103231Y-91480055D01*
X194150056Y-91443609D01*
X193450234Y-90743787D01*
X193492292Y-90732518D01*
X193617708Y-90660110D01*
X193720110Y-90557708D01*
X193792518Y-90432292D01*
X193803787Y-90390235D01*
X194503434Y-91089882D01*
X194603731Y-90936369D01*
X194703587Y-90708717D01*
X194764612Y-90467738D01*
X194764614Y-90467729D01*
X194785141Y-90220005D01*
X194785141Y-90219994D01*
X198274859Y-90219994D01*
X198274859Y-90220005D01*
X198295385Y-90467729D01*
X198295387Y-90467738D01*
X198356412Y-90708717D01*
X198456266Y-90936364D01*
X198556564Y-91089882D01*
X199256212Y-90390234D01*
X199267482Y-90432292D01*
X199339890Y-90557708D01*
X199442292Y-90660110D01*
X199567708Y-90732518D01*
X199609765Y-90743787D01*
X198909942Y-91443609D01*
X198956768Y-91480055D01*
X198956770Y-91480056D01*
X199175385Y-91598364D01*
X199175396Y-91598369D01*
X199410506Y-91679083D01*
X199655707Y-91720000D01*
X199904293Y-91720000D01*
X200149493Y-91679083D01*
X200384603Y-91598369D01*
X200384614Y-91598364D01*
X200603228Y-91480057D01*
X200603231Y-91480055D01*
X200650056Y-91443609D01*
X199950234Y-90743787D01*
X199992292Y-90732518D01*
X200117708Y-90660110D01*
X200220110Y-90557708D01*
X200292518Y-90432292D01*
X200303787Y-90390235D01*
X201003434Y-91089882D01*
X201103731Y-90936369D01*
X201203587Y-90708717D01*
X201264612Y-90467738D01*
X201264614Y-90467729D01*
X201285141Y-90220005D01*
X201285141Y-90219994D01*
X201264614Y-89972270D01*
X201264612Y-89972261D01*
X201203587Y-89731282D01*
X201103731Y-89503630D01*
X201003434Y-89350116D01*
X200303787Y-90049764D01*
X200292518Y-90007708D01*
X200220110Y-89882292D01*
X200117708Y-89779890D01*
X199992292Y-89707482D01*
X199950235Y-89696212D01*
X200650057Y-88996390D01*
X200650056Y-88996389D01*
X200603229Y-88959943D01*
X200384614Y-88841635D01*
X200384603Y-88841630D01*
X200149493Y-88760916D01*
X199904293Y-88720000D01*
X199655707Y-88720000D01*
X199410506Y-88760916D01*
X199175396Y-88841630D01*
X199175390Y-88841632D01*
X198956761Y-88959949D01*
X198909942Y-88996388D01*
X198909942Y-88996390D01*
X199609765Y-89696212D01*
X199567708Y-89707482D01*
X199442292Y-89779890D01*
X199339890Y-89882292D01*
X199267482Y-90007708D01*
X199256212Y-90049764D01*
X198556564Y-89350116D01*
X198456267Y-89503632D01*
X198356412Y-89731282D01*
X198295387Y-89972261D01*
X198295385Y-89972270D01*
X198274859Y-90219994D01*
X194785141Y-90219994D01*
X194764614Y-89972270D01*
X194764612Y-89972261D01*
X194703587Y-89731282D01*
X194603731Y-89503630D01*
X194503434Y-89350116D01*
X193803787Y-90049764D01*
X193792518Y-90007708D01*
X193720110Y-89882292D01*
X193617708Y-89779890D01*
X193492292Y-89707482D01*
X193450235Y-89696212D01*
X194150057Y-88996390D01*
X194150056Y-88996389D01*
X194103229Y-88959943D01*
X193884614Y-88841635D01*
X193884603Y-88841630D01*
X193649493Y-88760916D01*
X193404293Y-88720000D01*
X193155707Y-88720000D01*
X192910506Y-88760916D01*
X192675396Y-88841630D01*
X192675390Y-88841632D01*
X192456761Y-88959949D01*
X192409942Y-88996388D01*
X192409942Y-88996390D01*
X193109765Y-89696212D01*
X193067708Y-89707482D01*
X192942292Y-89779890D01*
X192839890Y-89882292D01*
X192767482Y-90007708D01*
X192756212Y-90049764D01*
X192056564Y-89350116D01*
X191956267Y-89503632D01*
X191856412Y-89731282D01*
X191795387Y-89972261D01*
X191795385Y-89972270D01*
X191774859Y-90219994D01*
X188785141Y-90219994D01*
X188764614Y-89972270D01*
X188764612Y-89972261D01*
X188703587Y-89731282D01*
X188603731Y-89503630D01*
X188503434Y-89350116D01*
X187803787Y-90049764D01*
X187792518Y-90007708D01*
X187720110Y-89882292D01*
X187617708Y-89779890D01*
X187492292Y-89707482D01*
X187450234Y-89696212D01*
X188109628Y-89036819D01*
X188170951Y-89003334D01*
X188197309Y-89000500D01*
X191098542Y-89000500D01*
X191119213Y-88996388D01*
X191195188Y-88981275D01*
X191291836Y-88962051D01*
X191350023Y-88937949D01*
X191473914Y-88886632D01*
X191637782Y-88777139D01*
X191777139Y-88637782D01*
X191777141Y-88637778D01*
X192057139Y-88357781D01*
X193158101Y-87256819D01*
X193219424Y-87223334D01*
X193245782Y-87220500D01*
X193404335Y-87220500D01*
X193649614Y-87179571D01*
X193884810Y-87098828D01*
X194103509Y-86980474D01*
X194299744Y-86827738D01*
X194324194Y-86801177D01*
X194361626Y-86760517D01*
X194421513Y-86724526D01*
X194452855Y-86720500D01*
X198607145Y-86720500D01*
X198674184Y-86740185D01*
X198698374Y-86760517D01*
X198758214Y-86825520D01*
X198760256Y-86827738D01*
X198956491Y-86980474D01*
X199175190Y-87098828D01*
X199410386Y-87179571D01*
X199655665Y-87220500D01*
X199904335Y-87220500D01*
X200149614Y-87179571D01*
X200384810Y-87098828D01*
X200603509Y-86980474D01*
X200799744Y-86827738D01*
X200968164Y-86644785D01*
X201104173Y-86436607D01*
X201204063Y-86208881D01*
X201265108Y-85967821D01*
X201265761Y-85959949D01*
X201285643Y-85720000D01*
X201285643Y-85719994D01*
X201265109Y-85472187D01*
X201265107Y-85472175D01*
X201204063Y-85231118D01*
X201104173Y-85003393D01*
X200968166Y-84795217D01*
X200946557Y-84771744D01*
X200799744Y-84612262D01*
X200603509Y-84459526D01*
X200603507Y-84459525D01*
X200603506Y-84459524D01*
X200384811Y-84341172D01*
X200384802Y-84341169D01*
X200149616Y-84260429D01*
X199904335Y-84219500D01*
X199655665Y-84219500D01*
X199410383Y-84260429D01*
X199175197Y-84341169D01*
X199175188Y-84341172D01*
X198956493Y-84459524D01*
X198760255Y-84612262D01*
X198760252Y-84612265D01*
X198698374Y-84679483D01*
X198638487Y-84715474D01*
X198607145Y-84719500D01*
X194452855Y-84719500D01*
X194385816Y-84699815D01*
X194361626Y-84679483D01*
X194299747Y-84612265D01*
X194299744Y-84612262D01*
X194207859Y-84540745D01*
X194103509Y-84459526D01*
X194103507Y-84459525D01*
X194103506Y-84459524D01*
X193884811Y-84341172D01*
X193884802Y-84341169D01*
X193649616Y-84260429D01*
X193404335Y-84219500D01*
X193155665Y-84219500D01*
X192910383Y-84260429D01*
X192675197Y-84341169D01*
X192675188Y-84341172D01*
X192456493Y-84459524D01*
X192260257Y-84612261D01*
X192091833Y-84795217D01*
X191955826Y-85003393D01*
X191855936Y-85231118D01*
X191794892Y-85472175D01*
X191794890Y-85472187D01*
X191774357Y-85719994D01*
X191774357Y-85719995D01*
X191776553Y-85746502D01*
X191762470Y-85814938D01*
X191740657Y-85844421D01*
X190642219Y-86942861D01*
X190621899Y-86963181D01*
X190560576Y-86996666D01*
X190534218Y-86999500D01*
X188424317Y-86999500D01*
X188357278Y-86979815D01*
X188311523Y-86927011D01*
X188301579Y-86857853D01*
X188330604Y-86794297D01*
X188333062Y-86791544D01*
X188468164Y-86644785D01*
X188604173Y-86436607D01*
X188704063Y-86208881D01*
X188765108Y-85967821D01*
X188765761Y-85959949D01*
X188785643Y-85720000D01*
X188785643Y-85719994D01*
X188765109Y-85472187D01*
X188765107Y-85472175D01*
X188704063Y-85231118D01*
X188604173Y-85003393D01*
X188468166Y-84795217D01*
X188446557Y-84771744D01*
X188299744Y-84612262D01*
X188103509Y-84459526D01*
X188103507Y-84459525D01*
X188103506Y-84459524D01*
X187884811Y-84341172D01*
X187884802Y-84341169D01*
X187649616Y-84260429D01*
X187404335Y-84219500D01*
X187155665Y-84219500D01*
X186910383Y-84260429D01*
X186675197Y-84341169D01*
X186675188Y-84341172D01*
X186456493Y-84459524D01*
X186260255Y-84612262D01*
X186260252Y-84612265D01*
X186198374Y-84679483D01*
X186138487Y-84715474D01*
X186107145Y-84719500D01*
X181952855Y-84719500D01*
X181885816Y-84699815D01*
X181861626Y-84679483D01*
X181799747Y-84612265D01*
X181799744Y-84612262D01*
X181707859Y-84540745D01*
X181603509Y-84459526D01*
X181603507Y-84459525D01*
X181603506Y-84459524D01*
X181384811Y-84341172D01*
X181384802Y-84341169D01*
X181149616Y-84260429D01*
X180904335Y-84219500D01*
X180655665Y-84219500D01*
X180448841Y-84254011D01*
X180379476Y-84245629D01*
X180340751Y-84219383D01*
X176533188Y-80411820D01*
X176499703Y-80350497D01*
X176504687Y-80280805D01*
X176546559Y-80224872D01*
X176605710Y-80202100D01*
X176605608Y-80201553D01*
X176608570Y-80200999D01*
X176609431Y-80200668D01*
X176611237Y-80200500D01*
X176611243Y-80200500D01*
X176829940Y-80159618D01*
X177037401Y-80079247D01*
X177226562Y-79962124D01*
X177390981Y-79812236D01*
X177525058Y-79634689D01*
X177624229Y-79435528D01*
X177685115Y-79221536D01*
X177705643Y-79000000D01*
X177705643Y-78999999D01*
X182914357Y-78999999D01*
X182914357Y-79000000D01*
X182934884Y-79221535D01*
X182934885Y-79221537D01*
X182995769Y-79435523D01*
X182995775Y-79435538D01*
X183094938Y-79634683D01*
X183094943Y-79634691D01*
X183229020Y-79812238D01*
X183393437Y-79962123D01*
X183393439Y-79962125D01*
X183582595Y-80079245D01*
X183582596Y-80079245D01*
X183582599Y-80079247D01*
X183790060Y-80159618D01*
X184008757Y-80200500D01*
X184008759Y-80200500D01*
X184231241Y-80200500D01*
X184231243Y-80200500D01*
X184449940Y-80159618D01*
X184657401Y-80079247D01*
X184846562Y-79962124D01*
X185010981Y-79812236D01*
X185145058Y-79634689D01*
X185244229Y-79435528D01*
X185305115Y-79221536D01*
X185325643Y-79000000D01*
X185325538Y-78998872D01*
X185305115Y-78778464D01*
X185305114Y-78778462D01*
X185300525Y-78762335D01*
X185244229Y-78564472D01*
X185241415Y-78558820D01*
X185145061Y-78365316D01*
X185145056Y-78365308D01*
X185010979Y-78187761D01*
X184846562Y-78037876D01*
X184846560Y-78037874D01*
X184657404Y-77920754D01*
X184657398Y-77920752D01*
X184449940Y-77840382D01*
X184231243Y-77799500D01*
X184008757Y-77799500D01*
X183790060Y-77840382D01*
X183713948Y-77869868D01*
X183582601Y-77920752D01*
X183582595Y-77920754D01*
X183393439Y-78037874D01*
X183393437Y-78037876D01*
X183229020Y-78187761D01*
X183094943Y-78365308D01*
X183094938Y-78365316D01*
X182995775Y-78564461D01*
X182995769Y-78564476D01*
X182934885Y-78778462D01*
X182934884Y-78778464D01*
X182914357Y-78999999D01*
X177705643Y-78999999D01*
X177705538Y-78998872D01*
X177685115Y-78778464D01*
X177685114Y-78778462D01*
X177680525Y-78762335D01*
X177624229Y-78564472D01*
X177621415Y-78558820D01*
X177525061Y-78365316D01*
X177525056Y-78365308D01*
X177390979Y-78187761D01*
X177226562Y-78037876D01*
X177226560Y-78037874D01*
X177037404Y-77920754D01*
X177037398Y-77920752D01*
X176829940Y-77840382D01*
X176611243Y-77799500D01*
X176388757Y-77799500D01*
X176170060Y-77840382D01*
X176093948Y-77869868D01*
X175962601Y-77920752D01*
X175962595Y-77920754D01*
X175773439Y-78037874D01*
X175773437Y-78037876D01*
X175609020Y-78187761D01*
X175474943Y-78365308D01*
X175474938Y-78365316D01*
X175375775Y-78564461D01*
X175375769Y-78564476D01*
X175314885Y-78778462D01*
X175314884Y-78778464D01*
X175294357Y-78999999D01*
X175294357Y-79000000D01*
X175314884Y-79221535D01*
X175314885Y-79221537D01*
X175375769Y-79435523D01*
X175375775Y-79435538D01*
X175474938Y-79634683D01*
X175474943Y-79634691D01*
X175509029Y-79679828D01*
X175570003Y-79760571D01*
X175577708Y-79770773D01*
X175602400Y-79836134D01*
X175587835Y-79904469D01*
X175538638Y-79954082D01*
X175478754Y-79969500D01*
X161706080Y-79969500D01*
X161561092Y-79998340D01*
X161561082Y-79998343D01*
X161424511Y-80054912D01*
X161424498Y-80054919D01*
X161301584Y-80137048D01*
X161301580Y-80137051D01*
X159945451Y-81493181D01*
X159884128Y-81526666D01*
X159857770Y-81529500D01*
X159666663Y-81529500D01*
X159599624Y-81509815D01*
X159565088Y-81476623D01*
X159540045Y-81440858D01*
X159379141Y-81279954D01*
X159192734Y-81149432D01*
X159192732Y-81149431D01*
X158986497Y-81053261D01*
X158986488Y-81053258D01*
X158766697Y-80994366D01*
X158766693Y-80994365D01*
X158766692Y-80994365D01*
X158766691Y-80994364D01*
X158766686Y-80994364D01*
X158540002Y-80974532D01*
X158539998Y-80974532D01*
X158313313Y-80994364D01*
X158313302Y-80994366D01*
X158093511Y-81053258D01*
X158093502Y-81053261D01*
X157887267Y-81149431D01*
X157887265Y-81149432D01*
X157700858Y-81279954D01*
X157539954Y-81440858D01*
X157409432Y-81627265D01*
X157409431Y-81627267D01*
X157313261Y-81833502D01*
X157313258Y-81833511D01*
X157254366Y-82053302D01*
X157254364Y-82053313D01*
X157234532Y-82279998D01*
X157234532Y-82280001D01*
X157254364Y-82506686D01*
X157254366Y-82506697D01*
X157313258Y-82726488D01*
X157313261Y-82726497D01*
X157409431Y-82932732D01*
X157409432Y-82932734D01*
X157539954Y-83119141D01*
X157700858Y-83280045D01*
X157700861Y-83280047D01*
X157887266Y-83410568D01*
X157945275Y-83437618D01*
X157997714Y-83483791D01*
X158016866Y-83550984D01*
X157996650Y-83617865D01*
X157945275Y-83662382D01*
X157887267Y-83689431D01*
X157887265Y-83689432D01*
X157700858Y-83819954D01*
X157539954Y-83980858D01*
X157409432Y-84167265D01*
X157409431Y-84167267D01*
X157313261Y-84373502D01*
X157313258Y-84373511D01*
X157254366Y-84593302D01*
X157254364Y-84593313D01*
X157234532Y-84819998D01*
X157234532Y-84820001D01*
X157254364Y-85046686D01*
X157254366Y-85046697D01*
X157313258Y-85266488D01*
X157313261Y-85266497D01*
X157409431Y-85472732D01*
X157409432Y-85472734D01*
X157539954Y-85659141D01*
X157700858Y-85820045D01*
X157700861Y-85820047D01*
X157887266Y-85950568D01*
X157945275Y-85977618D01*
X157997714Y-86023791D01*
X158016866Y-86090984D01*
X157996650Y-86157865D01*
X157945275Y-86202381D01*
X157928272Y-86210310D01*
X157887267Y-86229431D01*
X157887265Y-86229432D01*
X157700858Y-86359954D01*
X157539954Y-86520858D01*
X157409432Y-86707265D01*
X157409431Y-86707267D01*
X157313261Y-86913502D01*
X157313258Y-86913511D01*
X157254366Y-87133302D01*
X157254364Y-87133313D01*
X157234532Y-87359998D01*
X157234532Y-87360001D01*
X157254364Y-87586686D01*
X157254366Y-87586697D01*
X157313258Y-87806488D01*
X157313261Y-87806497D01*
X157409431Y-88012732D01*
X157409432Y-88012734D01*
X157539954Y-88199141D01*
X157700858Y-88360045D01*
X157700861Y-88360047D01*
X157887266Y-88490568D01*
X157945275Y-88517618D01*
X157997714Y-88563791D01*
X158016866Y-88630984D01*
X157996650Y-88697865D01*
X157945275Y-88742382D01*
X157887267Y-88769431D01*
X157887265Y-88769432D01*
X157700858Y-88899954D01*
X157539954Y-89060858D01*
X157409432Y-89247265D01*
X157409431Y-89247267D01*
X157313261Y-89453502D01*
X157313258Y-89453511D01*
X157254366Y-89673302D01*
X157254364Y-89673313D01*
X157234532Y-89899998D01*
X157234532Y-89900001D01*
X157254364Y-90126686D01*
X157254366Y-90126697D01*
X157313258Y-90346488D01*
X157313261Y-90346497D01*
X157409431Y-90552732D01*
X157409432Y-90552734D01*
X157539954Y-90739141D01*
X157700858Y-90900045D01*
X157700861Y-90900047D01*
X157887266Y-91030568D01*
X157945275Y-91057618D01*
X157997714Y-91103791D01*
X158016866Y-91170984D01*
X157996650Y-91237865D01*
X157945275Y-91282382D01*
X157887267Y-91309431D01*
X157887265Y-91309432D01*
X157700858Y-91439954D01*
X157539954Y-91600858D01*
X157409432Y-91787265D01*
X157409431Y-91787267D01*
X157313261Y-91993502D01*
X157313258Y-91993511D01*
X157254366Y-92213302D01*
X157254364Y-92213313D01*
X157234532Y-92439998D01*
X157234532Y-92440001D01*
X157254364Y-92666686D01*
X157254366Y-92666697D01*
X157313258Y-92886488D01*
X157313261Y-92886497D01*
X157409431Y-93092732D01*
X157409432Y-93092734D01*
X157539954Y-93279141D01*
X157700858Y-93440045D01*
X157709066Y-93445792D01*
X157887266Y-93570568D01*
X157945275Y-93597618D01*
X157997714Y-93643791D01*
X158016866Y-93710984D01*
X157996650Y-93777865D01*
X157945275Y-93822382D01*
X157887267Y-93849431D01*
X157887265Y-93849432D01*
X157700858Y-93979954D01*
X157539954Y-94140858D01*
X157409432Y-94327265D01*
X157409431Y-94327267D01*
X157313261Y-94533502D01*
X157313258Y-94533511D01*
X157254366Y-94753302D01*
X157254364Y-94753313D01*
X157234532Y-94979998D01*
X157234532Y-94980001D01*
X157254364Y-95206686D01*
X157254366Y-95206697D01*
X157313258Y-95426488D01*
X157313261Y-95426497D01*
X157409431Y-95632732D01*
X157409432Y-95632734D01*
X157539954Y-95819141D01*
X157700858Y-95980045D01*
X157700861Y-95980047D01*
X157887266Y-96110568D01*
X157945275Y-96137618D01*
X157997714Y-96183791D01*
X158016866Y-96250984D01*
X157996650Y-96317865D01*
X157945275Y-96362382D01*
X157887267Y-96389431D01*
X157887265Y-96389432D01*
X157700858Y-96519954D01*
X157539954Y-96680858D01*
X157409432Y-96867265D01*
X157409431Y-96867267D01*
X157313261Y-97073502D01*
X157313258Y-97073511D01*
X157254366Y-97293302D01*
X157254364Y-97293313D01*
X157234532Y-97519998D01*
X157234532Y-97520001D01*
X157254364Y-97746686D01*
X157254366Y-97746697D01*
X157313258Y-97966488D01*
X157313261Y-97966497D01*
X157409431Y-98172732D01*
X157409432Y-98172734D01*
X157539954Y-98359141D01*
X157700858Y-98520045D01*
X157700861Y-98520047D01*
X157887266Y-98650568D01*
X157939448Y-98674901D01*
X157945275Y-98677618D01*
X157997714Y-98723791D01*
X158016866Y-98790984D01*
X157996650Y-98857865D01*
X157945275Y-98902382D01*
X157887267Y-98929431D01*
X157887265Y-98929432D01*
X157700858Y-99059954D01*
X157539954Y-99220858D01*
X157409432Y-99407265D01*
X157409431Y-99407267D01*
X157313261Y-99613502D01*
X157313258Y-99613511D01*
X157254366Y-99833302D01*
X157254364Y-99833313D01*
X157234532Y-100059998D01*
X157234532Y-100060001D01*
X157254364Y-100286686D01*
X157254366Y-100286697D01*
X157313258Y-100506488D01*
X157313261Y-100506497D01*
X157409431Y-100712732D01*
X157409432Y-100712734D01*
X157539954Y-100899141D01*
X157700858Y-101060045D01*
X157700861Y-101060047D01*
X157887266Y-101190568D01*
X157945275Y-101217618D01*
X157997714Y-101263791D01*
X158016866Y-101330984D01*
X157996650Y-101397865D01*
X157945275Y-101442382D01*
X157887267Y-101469431D01*
X157887265Y-101469432D01*
X157733535Y-101577075D01*
X157667329Y-101599402D01*
X157662412Y-101599500D01*
X156404500Y-101599500D01*
X156337461Y-101579815D01*
X156291706Y-101527011D01*
X156280500Y-101475500D01*
X156280500Y-89621457D01*
X156261275Y-89524813D01*
X156261275Y-89524812D01*
X156242051Y-89428164D01*
X156219961Y-89374834D01*
X156209723Y-89350116D01*
X156166635Y-89246092D01*
X156166628Y-89246079D01*
X156057139Y-89082218D01*
X156057136Y-89082214D01*
X155914686Y-88939764D01*
X155914655Y-88939735D01*
X154319342Y-87344422D01*
X154285857Y-87283099D01*
X154283447Y-87246499D01*
X154285643Y-87220003D01*
X154285643Y-87219995D01*
X154265109Y-86972187D01*
X154265107Y-86972175D01*
X154204063Y-86731118D01*
X154104173Y-86503393D01*
X153968166Y-86295217D01*
X153916809Y-86239429D01*
X153799744Y-86112262D01*
X153603509Y-85959526D01*
X153603507Y-85959525D01*
X153603506Y-85959524D01*
X153384811Y-85841172D01*
X153384802Y-85841169D01*
X153149616Y-85760429D01*
X152904335Y-85719500D01*
X152655665Y-85719500D01*
X152410383Y-85760429D01*
X152175197Y-85841169D01*
X152175188Y-85841172D01*
X151956493Y-85959524D01*
X151760257Y-86112261D01*
X151591833Y-86295217D01*
X151455826Y-86503393D01*
X151355936Y-86731118D01*
X151294892Y-86972175D01*
X151294890Y-86972187D01*
X151274357Y-87219994D01*
X151274357Y-87220005D01*
X151294890Y-87467812D01*
X151294892Y-87467824D01*
X151355936Y-87708881D01*
X151455826Y-87936606D01*
X151591833Y-88144782D01*
X151591836Y-88144785D01*
X151760256Y-88327738D01*
X151956491Y-88480474D01*
X151975141Y-88490567D01*
X152174332Y-88598364D01*
X152175190Y-88598828D01*
X152392006Y-88673261D01*
X152408964Y-88679083D01*
X152410386Y-88679571D01*
X152655665Y-88720500D01*
X152814218Y-88720500D01*
X152881257Y-88740185D01*
X152901899Y-88756819D01*
X154243181Y-90098101D01*
X154276666Y-90159424D01*
X154279500Y-90185782D01*
X154279500Y-102318541D01*
X154279500Y-102318543D01*
X154279499Y-102318543D01*
X154317947Y-102511829D01*
X154317950Y-102511839D01*
X154393364Y-102693907D01*
X154393371Y-102693920D01*
X154502860Y-102857781D01*
X154502863Y-102857785D01*
X154623181Y-102978103D01*
X154656666Y-103039426D01*
X154659500Y-103065784D01*
X154659500Y-110874217D01*
X154639815Y-110941256D01*
X154623181Y-110961898D01*
X153121899Y-112463181D01*
X153060576Y-112496666D01*
X153034218Y-112499500D01*
X146199863Y-112499500D01*
X146134586Y-112480927D01*
X146037404Y-112420754D01*
X146037398Y-112420752D01*
X145829940Y-112340382D01*
X145611243Y-112299500D01*
X145388757Y-112299500D01*
X145170060Y-112340382D01*
X145038864Y-112391207D01*
X144962601Y-112420752D01*
X144962595Y-112420754D01*
X144773439Y-112537874D01*
X144773437Y-112537876D01*
X144609020Y-112687761D01*
X144474943Y-112865308D01*
X144474938Y-112865316D01*
X144375775Y-113064461D01*
X144375769Y-113064476D01*
X144314885Y-113278462D01*
X144314884Y-113278464D01*
X144294357Y-113499999D01*
X139085643Y-113499999D01*
X139065115Y-113278464D01*
X139004229Y-113064472D01*
X138940441Y-112936369D01*
X138905061Y-112865316D01*
X138905056Y-112865308D01*
X138770979Y-112687761D01*
X138606562Y-112537876D01*
X138606560Y-112537874D01*
X138417404Y-112420754D01*
X138417398Y-112420752D01*
X138209940Y-112340382D01*
X137991243Y-112299500D01*
X137768757Y-112299500D01*
X137550060Y-112340382D01*
X137418864Y-112391207D01*
X137342601Y-112420752D01*
X137342595Y-112420754D01*
X137153439Y-112537874D01*
X137153437Y-112537876D01*
X136989020Y-112687761D01*
X136854943Y-112865308D01*
X136854938Y-112865316D01*
X136755775Y-113064461D01*
X136755769Y-113064476D01*
X136694885Y-113278462D01*
X136694884Y-113278464D01*
X136674357Y-113499999D01*
X134395643Y-113499999D01*
X134375115Y-113278464D01*
X134314229Y-113064472D01*
X134250441Y-112936369D01*
X134215061Y-112865316D01*
X134215056Y-112865308D01*
X134080979Y-112687761D01*
X133916562Y-112537876D01*
X133916560Y-112537874D01*
X133727404Y-112420754D01*
X133727398Y-112420752D01*
X133519940Y-112340382D01*
X133301243Y-112299500D01*
X133078757Y-112299500D01*
X132860060Y-112340382D01*
X132728864Y-112391207D01*
X132652601Y-112420752D01*
X132652595Y-112420754D01*
X132463439Y-112537874D01*
X132463437Y-112537876D01*
X132299020Y-112687761D01*
X132164943Y-112865308D01*
X132164938Y-112865316D01*
X132065775Y-113064461D01*
X132065769Y-113064476D01*
X132004885Y-113278462D01*
X132004884Y-113278464D01*
X131984357Y-113499999D01*
X126775141Y-113499999D01*
X126754621Y-113278560D01*
X126693759Y-113064649D01*
X126594635Y-112865580D01*
X126594630Y-112865572D01*
X126578860Y-112844690D01*
X125923553Y-113499999D01*
X125920000Y-113499999D01*
X125920000Y-113453922D01*
X125896148Y-113364905D01*
X125850070Y-113285095D01*
X125784905Y-113219930D01*
X125705095Y-113173852D01*
X125616078Y-113150000D01*
X125523922Y-113150000D01*
X125434905Y-113173852D01*
X125355095Y-113219930D01*
X125289930Y-113285095D01*
X125243852Y-113364905D01*
X125220000Y-113453922D01*
X125170369Y-113453922D01*
X124561138Y-112844691D01*
X124561137Y-112844691D01*
X124545368Y-112865574D01*
X124446240Y-113064649D01*
X124385378Y-113278560D01*
X124364859Y-113499999D01*
X117667434Y-113499999D01*
X117624602Y-113229567D01*
X117524214Y-112854913D01*
X117385334Y-112493119D01*
X124916671Y-112493119D01*
X125570000Y-113146447D01*
X125570001Y-113146447D01*
X126223327Y-112493119D01*
X126107178Y-112421202D01*
X126107177Y-112421201D01*
X125899804Y-112340865D01*
X125681193Y-112300000D01*
X125458807Y-112300000D01*
X125240195Y-112340865D01*
X125032824Y-112421200D01*
X125032823Y-112421201D01*
X124916671Y-112493119D01*
X117385334Y-112493119D01*
X117385214Y-112492806D01*
X117209125Y-112147211D01*
X117095511Y-111972261D01*
X116997877Y-111821917D01*
X116856241Y-111647011D01*
X116753781Y-111520484D01*
X116479516Y-111246219D01*
X116341456Y-111134420D01*
X116178082Y-111002122D01*
X115852793Y-110790877D01*
X115507197Y-110614787D01*
X115145094Y-110475788D01*
X115145083Y-110475785D01*
X114770433Y-110375398D01*
X114770429Y-110375397D01*
X114770428Y-110375397D01*
X114387339Y-110314722D01*
X114000001Y-110294422D01*
X113999999Y-110294422D01*
X113612660Y-110314722D01*
X113229572Y-110375397D01*
X113229570Y-110375397D01*
X112854905Y-110475788D01*
X112492802Y-110614787D01*
X112147206Y-110790877D01*
X111821917Y-111002122D01*
X111520488Y-111246215D01*
X111520480Y-111246222D01*
X111246222Y-111520480D01*
X111246215Y-111520488D01*
X111002122Y-111821917D01*
X110790877Y-112147206D01*
X110734985Y-112256901D01*
X110687010Y-112307697D01*
X110619189Y-112324492D01*
X110553054Y-112301955D01*
X110509603Y-112247240D01*
X110500500Y-112200606D01*
X110500500Y-96534999D01*
X117924341Y-96534999D01*
X117924341Y-96535000D01*
X117944936Y-96770403D01*
X117944938Y-96770413D01*
X118006094Y-96998655D01*
X118006096Y-96998659D01*
X118006097Y-96998663D01*
X118058019Y-97110010D01*
X118105965Y-97212830D01*
X118105967Y-97212834D01*
X118241501Y-97406395D01*
X118241506Y-97406402D01*
X118408597Y-97573493D01*
X118408603Y-97573498D01*
X118594594Y-97703730D01*
X118638219Y-97758307D01*
X118645413Y-97827805D01*
X118613890Y-97890160D01*
X118594595Y-97906880D01*
X118408922Y-98036890D01*
X118408920Y-98036891D01*
X118241891Y-98203920D01*
X118241886Y-98203926D01*
X118106400Y-98397420D01*
X118106399Y-98397422D01*
X118006570Y-98611507D01*
X118006567Y-98611513D01*
X117949364Y-98824999D01*
X117949364Y-98825000D01*
X118846988Y-98825000D01*
X118814075Y-98882007D01*
X118780000Y-99009174D01*
X118780000Y-99140826D01*
X118814075Y-99267993D01*
X118846988Y-99325000D01*
X117949364Y-99325000D01*
X118006567Y-99538486D01*
X118006570Y-99538492D01*
X118106399Y-99752578D01*
X118241894Y-99946082D01*
X118408917Y-100113105D01*
X118594595Y-100243119D01*
X118638219Y-100297696D01*
X118645412Y-100367195D01*
X118613890Y-100429549D01*
X118594595Y-100446269D01*
X118408594Y-100576508D01*
X118241505Y-100743597D01*
X118105965Y-100937169D01*
X118105964Y-100937171D01*
X118006098Y-101151335D01*
X118006094Y-101151344D01*
X117944938Y-101379586D01*
X117944936Y-101379596D01*
X117924341Y-101614999D01*
X117924341Y-101615000D01*
X117944936Y-101850403D01*
X117944938Y-101850413D01*
X118006094Y-102078655D01*
X118006096Y-102078659D01*
X118006097Y-102078663D01*
X118075389Y-102227259D01*
X118105965Y-102292830D01*
X118105967Y-102292834D01*
X118241501Y-102486395D01*
X118241506Y-102486402D01*
X118408597Y-102653493D01*
X118408603Y-102653498D01*
X118594158Y-102783425D01*
X118637783Y-102838002D01*
X118644977Y-102907500D01*
X118613454Y-102969855D01*
X118594158Y-102986575D01*
X118408597Y-103116505D01*
X118241505Y-103283597D01*
X118105965Y-103477169D01*
X118105964Y-103477171D01*
X118006098Y-103691335D01*
X118006094Y-103691344D01*
X117944938Y-103919586D01*
X117944936Y-103919596D01*
X117924341Y-104154999D01*
X117924341Y-104155000D01*
X117944936Y-104390403D01*
X117944938Y-104390413D01*
X118006094Y-104618655D01*
X118006096Y-104618659D01*
X118006097Y-104618663D01*
X118041075Y-104693673D01*
X118105965Y-104832830D01*
X118105967Y-104832834D01*
X118241501Y-105026395D01*
X118241506Y-105026402D01*
X118408597Y-105193493D01*
X118408603Y-105193498D01*
X118594158Y-105323425D01*
X118637783Y-105378002D01*
X118644977Y-105447500D01*
X118613454Y-105509855D01*
X118594158Y-105526575D01*
X118408597Y-105656505D01*
X118241505Y-105823597D01*
X118105965Y-106017169D01*
X118105964Y-106017171D01*
X118006098Y-106231335D01*
X118006094Y-106231344D01*
X117944938Y-106459586D01*
X117944936Y-106459596D01*
X117924341Y-106694999D01*
X117924341Y-106695000D01*
X117944936Y-106930403D01*
X117944938Y-106930413D01*
X118006094Y-107158655D01*
X118006096Y-107158659D01*
X118006097Y-107158663D01*
X118041075Y-107233673D01*
X118105965Y-107372830D01*
X118105967Y-107372834D01*
X118241501Y-107566395D01*
X118241506Y-107566402D01*
X118408597Y-107733493D01*
X118408603Y-107733498D01*
X118594594Y-107863730D01*
X118638219Y-107918307D01*
X118645413Y-107987805D01*
X118613890Y-108050160D01*
X118594595Y-108066880D01*
X118408922Y-108196890D01*
X118408920Y-108196891D01*
X118241891Y-108363920D01*
X118241886Y-108363926D01*
X118106400Y-108557420D01*
X118106399Y-108557422D01*
X118006570Y-108771507D01*
X118006567Y-108771513D01*
X117949364Y-108984999D01*
X117949364Y-108985000D01*
X118846988Y-108985000D01*
X118814075Y-109042007D01*
X118780000Y-109169174D01*
X118780000Y-109300826D01*
X118814075Y-109427993D01*
X118846988Y-109485000D01*
X117949364Y-109485000D01*
X118006567Y-109698486D01*
X118006570Y-109698492D01*
X118106399Y-109912578D01*
X118241894Y-110106082D01*
X118408917Y-110273105D01*
X118602421Y-110408600D01*
X118816507Y-110508429D01*
X118816516Y-110508433D01*
X119030000Y-110565634D01*
X119030000Y-109668012D01*
X119087007Y-109700925D01*
X119214174Y-109735000D01*
X119345826Y-109735000D01*
X119472993Y-109700925D01*
X119530000Y-109668012D01*
X119530000Y-110565633D01*
X119743483Y-110508433D01*
X119743492Y-110508429D01*
X119957578Y-110408600D01*
X120151082Y-110273105D01*
X120318105Y-110106082D01*
X120453600Y-109912578D01*
X120553429Y-109698492D01*
X120553432Y-109698486D01*
X120610636Y-109485000D01*
X119713012Y-109485000D01*
X119745925Y-109427993D01*
X119780000Y-109300826D01*
X119780000Y-109169174D01*
X119745925Y-109042007D01*
X119713012Y-108985000D01*
X120610636Y-108985000D01*
X120610635Y-108984999D01*
X120553432Y-108771513D01*
X120553429Y-108771507D01*
X120453600Y-108557422D01*
X120453599Y-108557420D01*
X120318113Y-108363926D01*
X120318108Y-108363920D01*
X120151078Y-108196890D01*
X119965405Y-108066879D01*
X119921780Y-108012302D01*
X119914588Y-107942804D01*
X119946110Y-107880449D01*
X119965406Y-107863730D01*
X120035088Y-107814938D01*
X120151401Y-107733495D01*
X120318495Y-107566401D01*
X120454035Y-107372830D01*
X120553903Y-107158663D01*
X120615063Y-106930408D01*
X120635659Y-106695000D01*
X120615063Y-106459592D01*
X120564299Y-106270135D01*
X120553905Y-106231344D01*
X120553904Y-106231343D01*
X120553903Y-106231337D01*
X120454035Y-106017171D01*
X120427407Y-105979141D01*
X120318494Y-105823597D01*
X120151402Y-105656506D01*
X120151396Y-105656501D01*
X119965842Y-105526575D01*
X119922217Y-105471998D01*
X119915023Y-105402500D01*
X119946546Y-105340145D01*
X119965842Y-105323425D01*
X120007302Y-105294394D01*
X120151401Y-105193495D01*
X120318495Y-105026401D01*
X120454035Y-104832830D01*
X120553903Y-104618663D01*
X120615063Y-104390408D01*
X120635659Y-104155000D01*
X120615063Y-103919592D01*
X120564299Y-103730135D01*
X120553905Y-103691344D01*
X120553904Y-103691343D01*
X120553903Y-103691337D01*
X120454035Y-103477171D01*
X120427407Y-103439141D01*
X120318494Y-103283597D01*
X120151402Y-103116506D01*
X120151396Y-103116501D01*
X119965842Y-102986575D01*
X119922217Y-102931998D01*
X119915023Y-102862500D01*
X119946546Y-102800145D01*
X119965842Y-102783425D01*
X120056415Y-102720005D01*
X120151401Y-102653495D01*
X120318495Y-102486401D01*
X120454035Y-102292830D01*
X120553903Y-102078663D01*
X120615063Y-101850408D01*
X120635659Y-101615000D01*
X120615063Y-101379592D01*
X120553903Y-101151337D01*
X120454035Y-100937171D01*
X120427407Y-100899141D01*
X120318494Y-100743597D01*
X120151402Y-100576506D01*
X120151401Y-100576505D01*
X119965405Y-100446269D01*
X119921781Y-100391692D01*
X119914588Y-100322193D01*
X119946110Y-100259839D01*
X119965405Y-100243119D01*
X120151082Y-100113105D01*
X120318105Y-99946082D01*
X120453600Y-99752578D01*
X120553429Y-99538492D01*
X120553432Y-99538486D01*
X120610636Y-99325000D01*
X119713012Y-99325000D01*
X119745925Y-99267993D01*
X119780000Y-99140826D01*
X119780000Y-99009174D01*
X119745925Y-98882007D01*
X119713012Y-98825000D01*
X120610636Y-98825000D01*
X120610635Y-98824999D01*
X120553432Y-98611513D01*
X120553429Y-98611507D01*
X120453600Y-98397422D01*
X120453599Y-98397420D01*
X120318113Y-98203926D01*
X120318108Y-98203920D01*
X120151078Y-98036890D01*
X119965405Y-97906879D01*
X119921780Y-97852302D01*
X119914588Y-97782804D01*
X119946110Y-97720449D01*
X119965406Y-97703730D01*
X120151401Y-97573495D01*
X120318495Y-97406401D01*
X120454035Y-97212830D01*
X120553903Y-96998663D01*
X120615063Y-96770408D01*
X120635222Y-96539999D01*
X150424341Y-96539999D01*
X150424341Y-96540000D01*
X150444936Y-96775403D01*
X150444938Y-96775413D01*
X150506094Y-97003655D01*
X150506096Y-97003659D01*
X150506097Y-97003663D01*
X150597564Y-97199815D01*
X150605965Y-97217830D01*
X150605967Y-97217834D01*
X150741501Y-97411395D01*
X150741506Y-97411402D01*
X150908597Y-97578493D01*
X150908603Y-97578498D01*
X151094158Y-97708425D01*
X151137783Y-97763002D01*
X151144977Y-97832500D01*
X151113454Y-97894855D01*
X151094158Y-97911575D01*
X150908597Y-98041505D01*
X150741505Y-98208597D01*
X150605965Y-98402169D01*
X150605964Y-98402171D01*
X150575350Y-98467824D01*
X150508347Y-98611513D01*
X150506098Y-98616335D01*
X150506094Y-98616344D01*
X150444938Y-98844586D01*
X150444936Y-98844596D01*
X150424341Y-99079997D01*
X150444936Y-99315403D01*
X150444938Y-99315413D01*
X150506094Y-99543655D01*
X150506096Y-99543659D01*
X150506097Y-99543663D01*
X150538668Y-99613511D01*
X150605965Y-99757830D01*
X150605967Y-99757834D01*
X150741501Y-99951395D01*
X150741506Y-99951402D01*
X150908597Y-100118493D01*
X150908603Y-100118498D01*
X151094158Y-100248425D01*
X151137783Y-100303002D01*
X151144977Y-100372500D01*
X151113454Y-100434855D01*
X151094158Y-100451575D01*
X150908597Y-100581505D01*
X150741505Y-100748597D01*
X150605965Y-100942169D01*
X150605964Y-100942171D01*
X150550999Y-101060045D01*
X150508430Y-101151335D01*
X150506098Y-101156335D01*
X150506094Y-101156344D01*
X150444938Y-101384586D01*
X150444936Y-101384596D01*
X150424341Y-101619999D01*
X150424341Y-101620000D01*
X150444936Y-101855403D01*
X150444938Y-101855413D01*
X150506094Y-102083655D01*
X150506096Y-102083659D01*
X150506097Y-102083663D01*
X150546357Y-102170000D01*
X150605965Y-102297830D01*
X150605967Y-102297834D01*
X150741501Y-102491395D01*
X150741506Y-102491402D01*
X150908597Y-102658493D01*
X150908603Y-102658498D01*
X151094158Y-102788425D01*
X151137783Y-102843002D01*
X151144977Y-102912500D01*
X151113454Y-102974855D01*
X151094158Y-102991575D01*
X150908597Y-103121505D01*
X150741505Y-103288597D01*
X150605965Y-103482169D01*
X150605964Y-103482171D01*
X150540330Y-103622925D01*
X150508430Y-103691335D01*
X150506098Y-103696335D01*
X150506094Y-103696344D01*
X150444938Y-103924586D01*
X150444936Y-103924596D01*
X150424341Y-104159999D01*
X150424341Y-104160000D01*
X150444936Y-104395403D01*
X150444938Y-104395413D01*
X150506094Y-104623655D01*
X150506096Y-104623659D01*
X150506097Y-104623663D01*
X150560346Y-104740000D01*
X150605965Y-104837830D01*
X150605967Y-104837834D01*
X150741501Y-105031395D01*
X150741506Y-105031402D01*
X150908597Y-105198493D01*
X150908603Y-105198498D01*
X151094158Y-105328425D01*
X151137783Y-105383002D01*
X151144977Y-105452500D01*
X151113454Y-105514855D01*
X151094158Y-105531575D01*
X150908597Y-105661505D01*
X150741505Y-105828597D01*
X150605965Y-106022169D01*
X150605964Y-106022171D01*
X150551180Y-106139657D01*
X150508430Y-106231335D01*
X150506098Y-106236335D01*
X150506094Y-106236344D01*
X150444938Y-106464586D01*
X150444936Y-106464596D01*
X150424341Y-106699999D01*
X150424341Y-106700000D01*
X150444936Y-106935403D01*
X150444938Y-106935413D01*
X150506094Y-107163655D01*
X150506096Y-107163659D01*
X150506097Y-107163663D01*
X150560346Y-107280000D01*
X150605965Y-107377830D01*
X150605967Y-107377834D01*
X150741501Y-107571395D01*
X150741506Y-107571402D01*
X150908597Y-107738493D01*
X150908603Y-107738498D01*
X151094158Y-107868425D01*
X151137783Y-107923002D01*
X151144977Y-107992500D01*
X151113454Y-108054855D01*
X151094158Y-108071575D01*
X150908597Y-108201505D01*
X150741505Y-108368597D01*
X150605965Y-108562169D01*
X150605964Y-108562171D01*
X150550998Y-108680047D01*
X150508347Y-108771513D01*
X150506098Y-108776335D01*
X150506094Y-108776344D01*
X150444938Y-109004586D01*
X150444936Y-109004596D01*
X150424341Y-109239999D01*
X150424341Y-109240000D01*
X150444936Y-109475403D01*
X150444938Y-109475413D01*
X150506094Y-109703655D01*
X150506096Y-109703659D01*
X150506097Y-109703663D01*
X150538668Y-109773511D01*
X150605965Y-109917830D01*
X150605967Y-109917834D01*
X150714281Y-110072521D01*
X150741505Y-110111401D01*
X150908599Y-110278495D01*
X150995723Y-110339500D01*
X151102165Y-110414032D01*
X151102167Y-110414033D01*
X151102170Y-110414035D01*
X151316337Y-110513903D01*
X151544592Y-110575063D01*
X151732918Y-110591539D01*
X151779999Y-110595659D01*
X151780000Y-110595659D01*
X151780001Y-110595659D01*
X151819234Y-110592226D01*
X152015408Y-110575063D01*
X152243663Y-110513903D01*
X152457830Y-110414035D01*
X152651401Y-110278495D01*
X152818495Y-110111401D01*
X152954035Y-109917830D01*
X153053903Y-109703663D01*
X153115063Y-109475408D01*
X153135659Y-109240000D01*
X153115063Y-109004592D01*
X153053903Y-108776337D01*
X152954035Y-108562171D01*
X152950709Y-108557420D01*
X152818494Y-108368597D01*
X152651402Y-108201506D01*
X152651396Y-108201501D01*
X152465842Y-108071575D01*
X152422217Y-108016998D01*
X152415023Y-107947500D01*
X152446546Y-107885145D01*
X152465842Y-107868425D01*
X152558164Y-107803780D01*
X152651401Y-107738495D01*
X152818495Y-107571401D01*
X152954035Y-107377830D01*
X153053903Y-107163663D01*
X153115063Y-106935408D01*
X153135659Y-106700000D01*
X153135221Y-106694999D01*
X153122524Y-106549867D01*
X153115063Y-106464592D01*
X153053903Y-106236337D01*
X152954035Y-106022171D01*
X152923906Y-105979141D01*
X152818494Y-105828597D01*
X152651402Y-105661506D01*
X152651396Y-105661501D01*
X152465842Y-105531575D01*
X152422217Y-105476998D01*
X152415023Y-105407500D01*
X152446546Y-105345145D01*
X152465842Y-105328425D01*
X152514443Y-105294394D01*
X152651401Y-105198495D01*
X152818495Y-105031401D01*
X152954035Y-104837830D01*
X153053903Y-104623663D01*
X153115063Y-104395408D01*
X153135659Y-104160000D01*
X153135221Y-104154999D01*
X153130266Y-104098364D01*
X153115063Y-103924592D01*
X153053903Y-103696337D01*
X152954035Y-103482171D01*
X152923906Y-103439141D01*
X152818494Y-103288597D01*
X152651402Y-103121506D01*
X152651396Y-103121501D01*
X152465842Y-102991575D01*
X152422217Y-102936998D01*
X152415023Y-102867500D01*
X152446546Y-102805145D01*
X152465842Y-102788425D01*
X152514443Y-102754394D01*
X152651401Y-102658495D01*
X152818495Y-102491401D01*
X152954035Y-102297830D01*
X153053903Y-102083663D01*
X153115063Y-101855408D01*
X153135659Y-101620000D01*
X153135221Y-101614999D01*
X153123671Y-101482977D01*
X153115063Y-101384592D01*
X153053903Y-101156337D01*
X152954035Y-100942171D01*
X152923906Y-100899141D01*
X152818494Y-100748597D01*
X152651402Y-100581506D01*
X152651396Y-100581501D01*
X152465842Y-100451575D01*
X152422217Y-100396998D01*
X152415023Y-100327500D01*
X152446546Y-100265145D01*
X152465842Y-100248425D01*
X152488026Y-100232891D01*
X152651401Y-100118495D01*
X152818495Y-99951401D01*
X152954035Y-99757830D01*
X153053903Y-99543663D01*
X153115063Y-99315408D01*
X153135659Y-99080000D01*
X153115063Y-98844592D01*
X153053903Y-98616337D01*
X152954035Y-98402171D01*
X152950709Y-98397420D01*
X152818494Y-98208597D01*
X152651402Y-98041506D01*
X152651396Y-98041501D01*
X152465842Y-97911575D01*
X152422217Y-97856998D01*
X152415023Y-97787500D01*
X152446546Y-97725145D01*
X152465842Y-97708425D01*
X152488026Y-97692891D01*
X152651401Y-97578495D01*
X152818495Y-97411401D01*
X152954035Y-97217830D01*
X153053903Y-97003663D01*
X153115063Y-96775408D01*
X153135659Y-96540000D01*
X153135221Y-96534999D01*
X153122486Y-96389432D01*
X153115063Y-96304592D01*
X153053903Y-96076337D01*
X152954035Y-95862171D01*
X152923905Y-95819141D01*
X152818496Y-95668600D01*
X152782628Y-95632732D01*
X152696567Y-95546671D01*
X152663084Y-95485351D01*
X152668068Y-95415659D01*
X152709939Y-95359725D01*
X152740915Y-95342810D01*
X152872331Y-95293796D01*
X152987546Y-95207546D01*
X153073796Y-95092331D01*
X153124091Y-94957483D01*
X153130500Y-94897873D01*
X153130499Y-93102128D01*
X153124091Y-93042517D01*
X153100155Y-92978342D01*
X153073797Y-92907671D01*
X153073793Y-92907664D01*
X152987547Y-92792455D01*
X152987544Y-92792452D01*
X152872335Y-92706206D01*
X152872328Y-92706202D01*
X152737482Y-92655908D01*
X152737483Y-92655908D01*
X152677883Y-92649501D01*
X152677881Y-92649500D01*
X152677873Y-92649500D01*
X152677864Y-92649500D01*
X150882129Y-92649500D01*
X150882123Y-92649501D01*
X150822516Y-92655908D01*
X150687671Y-92706202D01*
X150687664Y-92706206D01*
X150572455Y-92792452D01*
X150572452Y-92792455D01*
X150486206Y-92907664D01*
X150486202Y-92907671D01*
X150435908Y-93042517D01*
X150429782Y-93099500D01*
X150429501Y-93102123D01*
X150429500Y-93102135D01*
X150429500Y-94897870D01*
X150429501Y-94897876D01*
X150435908Y-94957483D01*
X150486202Y-95092328D01*
X150486206Y-95092335D01*
X150572452Y-95207544D01*
X150572455Y-95207547D01*
X150687664Y-95293793D01*
X150687671Y-95293797D01*
X150819081Y-95342810D01*
X150875015Y-95384681D01*
X150899432Y-95450145D01*
X150884580Y-95518418D01*
X150863430Y-95546673D01*
X150741503Y-95668600D01*
X150605965Y-95862169D01*
X150605964Y-95862171D01*
X150540330Y-96002925D01*
X150508430Y-96071335D01*
X150506098Y-96076335D01*
X150506094Y-96076344D01*
X150444938Y-96304586D01*
X150444936Y-96304596D01*
X150424341Y-96539999D01*
X120635222Y-96539999D01*
X120635659Y-96535000D01*
X120615063Y-96299592D01*
X120553903Y-96071337D01*
X120454035Y-95857171D01*
X120427406Y-95819141D01*
X120318496Y-95663600D01*
X120287628Y-95632732D01*
X120196567Y-95541671D01*
X120163084Y-95480351D01*
X120168068Y-95410659D01*
X120209939Y-95354725D01*
X120240915Y-95337810D01*
X120372331Y-95288796D01*
X120487546Y-95202546D01*
X120573796Y-95087331D01*
X120624091Y-94952483D01*
X120630500Y-94892873D01*
X120630499Y-93097128D01*
X120625299Y-93048757D01*
X120624091Y-93037516D01*
X120573797Y-92902671D01*
X120573793Y-92902664D01*
X120487547Y-92787455D01*
X120487544Y-92787452D01*
X120372335Y-92701206D01*
X120372328Y-92701202D01*
X120237482Y-92650908D01*
X120237483Y-92650908D01*
X120177883Y-92644501D01*
X120177881Y-92644500D01*
X120177873Y-92644500D01*
X120177864Y-92644500D01*
X118382129Y-92644500D01*
X118382123Y-92644501D01*
X118322516Y-92650908D01*
X118187671Y-92701202D01*
X118187664Y-92701206D01*
X118072455Y-92787452D01*
X118072452Y-92787455D01*
X117986206Y-92902664D01*
X117986202Y-92902671D01*
X117935908Y-93037517D01*
X117929501Y-93097116D01*
X117929501Y-93097123D01*
X117929500Y-93097135D01*
X117929500Y-94892870D01*
X117929501Y-94892876D01*
X117935908Y-94952483D01*
X117986202Y-95087328D01*
X117986206Y-95087335D01*
X118072452Y-95202544D01*
X118072455Y-95202547D01*
X118187664Y-95288793D01*
X118187671Y-95288797D01*
X118319081Y-95337810D01*
X118375015Y-95379681D01*
X118399432Y-95445145D01*
X118384580Y-95513418D01*
X118363430Y-95541673D01*
X118241503Y-95663600D01*
X118105965Y-95857169D01*
X118105964Y-95857171D01*
X118006098Y-96071335D01*
X118006094Y-96071344D01*
X117944938Y-96299586D01*
X117944936Y-96299596D01*
X117924341Y-96534999D01*
X110500500Y-96534999D01*
X110500500Y-88679135D01*
X111001500Y-88679135D01*
X111001500Y-90274870D01*
X111001501Y-90274876D01*
X111007908Y-90334483D01*
X111058202Y-90469328D01*
X111058206Y-90469335D01*
X111144452Y-90584544D01*
X111144455Y-90584547D01*
X111259664Y-90670793D01*
X111259671Y-90670797D01*
X111394517Y-90721091D01*
X111394516Y-90721091D01*
X111401444Y-90721835D01*
X111454127Y-90727500D01*
X113749872Y-90727499D01*
X113809483Y-90721091D01*
X113944331Y-90670796D01*
X114059546Y-90584546D01*
X114145796Y-90469331D01*
X114196091Y-90334483D01*
X114202500Y-90274873D01*
X114202499Y-88679128D01*
X114196550Y-88623785D01*
X114196091Y-88619516D01*
X114145797Y-88484671D01*
X114145793Y-88484664D01*
X114059547Y-88369455D01*
X114059544Y-88369452D01*
X113944335Y-88283206D01*
X113944328Y-88283202D01*
X113809482Y-88232908D01*
X113809483Y-88232908D01*
X113749883Y-88226501D01*
X113749881Y-88226500D01*
X113749873Y-88226500D01*
X113749864Y-88226500D01*
X111454129Y-88226500D01*
X111454123Y-88226501D01*
X111394516Y-88232908D01*
X111259671Y-88283202D01*
X111259664Y-88283206D01*
X111144455Y-88369452D01*
X111144452Y-88369455D01*
X111058206Y-88484664D01*
X111058202Y-88484671D01*
X111007908Y-88619517D01*
X111001505Y-88679083D01*
X111001501Y-88679123D01*
X111001500Y-88679135D01*
X110500500Y-88679135D01*
X110500500Y-87698994D01*
X120494357Y-87698994D01*
X120494357Y-87699005D01*
X120514890Y-87946812D01*
X120514892Y-87946824D01*
X120575936Y-88187881D01*
X120675826Y-88415606D01*
X120811833Y-88623782D01*
X120821871Y-88634686D01*
X120980256Y-88806738D01*
X121176491Y-88959474D01*
X121395190Y-89077828D01*
X121630386Y-89158571D01*
X121875665Y-89199500D01*
X122124335Y-89199500D01*
X122369614Y-89158571D01*
X122604810Y-89077828D01*
X122823509Y-88959474D01*
X123019744Y-88806738D01*
X123188164Y-88623785D01*
X123324173Y-88415607D01*
X123424063Y-88187881D01*
X123485108Y-87946821D01*
X123485109Y-87946812D01*
X123505643Y-87699005D01*
X123505643Y-87698994D01*
X123485109Y-87451187D01*
X123485107Y-87451175D01*
X123424063Y-87210118D01*
X123324173Y-86982393D01*
X123188166Y-86774217D01*
X123138715Y-86720499D01*
X123019744Y-86591262D01*
X122823509Y-86438526D01*
X122823507Y-86438525D01*
X122823506Y-86438524D01*
X122604811Y-86320172D01*
X122604802Y-86320169D01*
X122369616Y-86239429D01*
X122124335Y-86198500D01*
X121875665Y-86198500D01*
X121630383Y-86239429D01*
X121395197Y-86320169D01*
X121395188Y-86320172D01*
X121176493Y-86438524D01*
X120980257Y-86591261D01*
X120811833Y-86774217D01*
X120675826Y-86982393D01*
X120575936Y-87210118D01*
X120514892Y-87451175D01*
X120514890Y-87451187D01*
X120494357Y-87698994D01*
X110500500Y-87698994D01*
X110500500Y-82999995D01*
X120494357Y-82999995D01*
X120494357Y-83000004D01*
X120494477Y-83001448D01*
X120498515Y-83050185D01*
X120499076Y-83056948D01*
X120499500Y-83067189D01*
X120499500Y-83118096D01*
X120508514Y-83175005D01*
X120509615Y-83184147D01*
X120512917Y-83223983D01*
X120514892Y-83247824D01*
X120527270Y-83296703D01*
X120529537Y-83307743D01*
X120535797Y-83347265D01*
X120536447Y-83351368D01*
X120555681Y-83410567D01*
X120556332Y-83412569D01*
X120558606Y-83420446D01*
X120575935Y-83488874D01*
X120575939Y-83488887D01*
X120593487Y-83528892D01*
X120597862Y-83540384D01*
X120609430Y-83575989D01*
X120609432Y-83575992D01*
X120641700Y-83639322D01*
X120644771Y-83645807D01*
X120675825Y-83716604D01*
X120675827Y-83716607D01*
X120696040Y-83747545D01*
X120702709Y-83759059D01*
X120709969Y-83773308D01*
X120716658Y-83786435D01*
X120716658Y-83786436D01*
X120762378Y-83849364D01*
X120765867Y-83854426D01*
X120811834Y-83924783D01*
X120832310Y-83947027D01*
X120841392Y-83958118D01*
X120855478Y-83977505D01*
X120855480Y-83977507D01*
X120855482Y-83977509D01*
X120855483Y-83977510D01*
X120878483Y-84000510D01*
X120915216Y-84037243D01*
X120918764Y-84040941D01*
X120980252Y-84107734D01*
X120980256Y-84107738D01*
X120998791Y-84122164D01*
X121010310Y-84132337D01*
X121045490Y-84167517D01*
X121236567Y-84306343D01*
X121299781Y-84338552D01*
X121447003Y-84413566D01*
X121447005Y-84413566D01*
X121447008Y-84413568D01*
X121519109Y-84436995D01*
X121671631Y-84486553D01*
X121904903Y-84523500D01*
X121904908Y-84523500D01*
X123350111Y-84523500D01*
X123417150Y-84543185D01*
X123437792Y-84559819D01*
X127022490Y-88144517D01*
X127082175Y-88187881D01*
X127213568Y-88283345D01*
X127225121Y-88289230D01*
X127230227Y-88291832D01*
X127230232Y-88291836D01*
X127230233Y-88291835D01*
X127424003Y-88390566D01*
X127424005Y-88390566D01*
X127424008Y-88390568D01*
X127501067Y-88415606D01*
X127648631Y-88463553D01*
X127881903Y-88500500D01*
X127881908Y-88500500D01*
X133118097Y-88500500D01*
X133351368Y-88463553D01*
X133412749Y-88443609D01*
X133575992Y-88390568D01*
X133786433Y-88283343D01*
X133977510Y-88144517D01*
X134144517Y-87977510D01*
X134283343Y-87786433D01*
X134390568Y-87575992D01*
X134463553Y-87351368D01*
X134478528Y-87256819D01*
X134484361Y-87219994D01*
X146274859Y-87219994D01*
X146274859Y-87220005D01*
X146295385Y-87467729D01*
X146295387Y-87467738D01*
X146356412Y-87708717D01*
X146456266Y-87936364D01*
X146556564Y-88089882D01*
X147297037Y-87349409D01*
X147314075Y-87412993D01*
X147379901Y-87527007D01*
X147472993Y-87620099D01*
X147587007Y-87685925D01*
X147650590Y-87702962D01*
X146909942Y-88443609D01*
X146956768Y-88480055D01*
X146956770Y-88480056D01*
X147175385Y-88598364D01*
X147175396Y-88598369D01*
X147410506Y-88679083D01*
X147655707Y-88720000D01*
X147904293Y-88720000D01*
X148149493Y-88679083D01*
X148384603Y-88598369D01*
X148384614Y-88598364D01*
X148603228Y-88480057D01*
X148603231Y-88480055D01*
X148650056Y-88443609D01*
X147909409Y-87702962D01*
X147972993Y-87685925D01*
X148087007Y-87620099D01*
X148180099Y-87527007D01*
X148245925Y-87412993D01*
X148262962Y-87349410D01*
X149003434Y-88089882D01*
X149103731Y-87936369D01*
X149203587Y-87708717D01*
X149264612Y-87467738D01*
X149264614Y-87467729D01*
X149285141Y-87220005D01*
X149285141Y-87219994D01*
X149264614Y-86972270D01*
X149264612Y-86972261D01*
X149203587Y-86731282D01*
X149103731Y-86503630D01*
X149003434Y-86350116D01*
X148262962Y-87090589D01*
X148245925Y-87027007D01*
X148180099Y-86912993D01*
X148087007Y-86819901D01*
X147972993Y-86754075D01*
X147909410Y-86737037D01*
X148650057Y-85996390D01*
X148650056Y-85996389D01*
X148603229Y-85959943D01*
X148384614Y-85841635D01*
X148384603Y-85841630D01*
X148149493Y-85760916D01*
X147904293Y-85720000D01*
X147655707Y-85720000D01*
X147410506Y-85760916D01*
X147175396Y-85841630D01*
X147175390Y-85841632D01*
X146956761Y-85959949D01*
X146909942Y-85996388D01*
X146909942Y-85996390D01*
X147650590Y-86737037D01*
X147587007Y-86754075D01*
X147472993Y-86819901D01*
X147379901Y-86912993D01*
X147314075Y-87027007D01*
X147297037Y-87090589D01*
X146556564Y-86350116D01*
X146456267Y-86503632D01*
X146356412Y-86731282D01*
X146295387Y-86972261D01*
X146295385Y-86972270D01*
X146274859Y-87219994D01*
X134484361Y-87219994D01*
X134500500Y-87118097D01*
X134500500Y-83999998D01*
X136694532Y-83999998D01*
X136694532Y-84000001D01*
X136714364Y-84226686D01*
X136714366Y-84226697D01*
X136773258Y-84446488D01*
X136773261Y-84446497D01*
X136869431Y-84652732D01*
X136869432Y-84652734D01*
X136999954Y-84839141D01*
X137160858Y-85000045D01*
X137200867Y-85028059D01*
X137347266Y-85130568D01*
X137553504Y-85226739D01*
X137553509Y-85226740D01*
X137553511Y-85226741D01*
X137569850Y-85231119D01*
X137773308Y-85285635D01*
X137927694Y-85299142D01*
X137999998Y-85305468D01*
X138000000Y-85305468D01*
X138000002Y-85305468D01*
X138072306Y-85299142D01*
X138226692Y-85285635D01*
X138446496Y-85226739D01*
X138652734Y-85130568D01*
X138839139Y-85000047D01*
X139000047Y-84839139D01*
X139130568Y-84652734D01*
X139226739Y-84446496D01*
X139285635Y-84226692D01*
X139305468Y-84000000D01*
X139285635Y-83773308D01*
X139226739Y-83553504D01*
X139130568Y-83347266D01*
X139019784Y-83189048D01*
X139000045Y-83160858D01*
X138839141Y-82999954D01*
X138652734Y-82869432D01*
X138652732Y-82869431D01*
X138446497Y-82773261D01*
X138446488Y-82773258D01*
X138226697Y-82714366D01*
X138226693Y-82714365D01*
X138226692Y-82714365D01*
X138226691Y-82714364D01*
X138226686Y-82714364D01*
X138000002Y-82694532D01*
X137999998Y-82694532D01*
X137773313Y-82714364D01*
X137773302Y-82714366D01*
X137553511Y-82773258D01*
X137553502Y-82773261D01*
X137347267Y-82869431D01*
X137347265Y-82869432D01*
X137160858Y-82999954D01*
X136999954Y-83160858D01*
X136869432Y-83347265D01*
X136869431Y-83347267D01*
X136773261Y-83553502D01*
X136773258Y-83553511D01*
X136714366Y-83773302D01*
X136714364Y-83773313D01*
X136694532Y-83999998D01*
X134500500Y-83999998D01*
X134500500Y-81719999D01*
X144454357Y-81719999D01*
X144454357Y-81720000D01*
X144474884Y-81941535D01*
X144474885Y-81941537D01*
X144535769Y-82155523D01*
X144535775Y-82155538D01*
X144634938Y-82354683D01*
X144634943Y-82354691D01*
X144769020Y-82532238D01*
X144933437Y-82682123D01*
X144933439Y-82682125D01*
X145122595Y-82799245D01*
X145122596Y-82799245D01*
X145122599Y-82799247D01*
X145330060Y-82879618D01*
X145548757Y-82920500D01*
X145548759Y-82920500D01*
X145771241Y-82920500D01*
X145771243Y-82920500D01*
X145989940Y-82879618D01*
X146197401Y-82799247D01*
X146386562Y-82682124D01*
X146550981Y-82532236D01*
X146685058Y-82354689D01*
X146784229Y-82155528D01*
X146845115Y-81941536D01*
X146865643Y-81720000D01*
X146865643Y-81719999D01*
X152074357Y-81719999D01*
X152074357Y-81720000D01*
X152094884Y-81941535D01*
X152094885Y-81941537D01*
X152155769Y-82155523D01*
X152155775Y-82155538D01*
X152254938Y-82354683D01*
X152254943Y-82354691D01*
X152389020Y-82532238D01*
X152553437Y-82682123D01*
X152553439Y-82682125D01*
X152742595Y-82799245D01*
X152742596Y-82799245D01*
X152742599Y-82799247D01*
X152950060Y-82879618D01*
X153168757Y-82920500D01*
X153168759Y-82920500D01*
X153391241Y-82920500D01*
X153391243Y-82920500D01*
X153609940Y-82879618D01*
X153817401Y-82799247D01*
X154006562Y-82682124D01*
X154170981Y-82532236D01*
X154305058Y-82354689D01*
X154404229Y-82155528D01*
X154465115Y-81941536D01*
X154485643Y-81720000D01*
X154485333Y-81716659D01*
X154465115Y-81498464D01*
X154465114Y-81498462D01*
X154463611Y-81493181D01*
X154404229Y-81284472D01*
X154404224Y-81284461D01*
X154305061Y-81085316D01*
X154305056Y-81085308D01*
X154170979Y-80907761D01*
X154006562Y-80757876D01*
X154006560Y-80757874D01*
X153817404Y-80640754D01*
X153817398Y-80640752D01*
X153806714Y-80636613D01*
X153609940Y-80560382D01*
X153391243Y-80519500D01*
X153168757Y-80519500D01*
X152950060Y-80560382D01*
X152818864Y-80611207D01*
X152742601Y-80640752D01*
X152742595Y-80640754D01*
X152553439Y-80757874D01*
X152553437Y-80757876D01*
X152389020Y-80907761D01*
X152254943Y-81085308D01*
X152254938Y-81085316D01*
X152155775Y-81284461D01*
X152155769Y-81284476D01*
X152094885Y-81498462D01*
X152094884Y-81498464D01*
X152074357Y-81719999D01*
X146865643Y-81719999D01*
X146865333Y-81716659D01*
X146845115Y-81498464D01*
X146845114Y-81498462D01*
X146843611Y-81493181D01*
X146784229Y-81284472D01*
X146784224Y-81284461D01*
X146685061Y-81085316D01*
X146685056Y-81085308D01*
X146550979Y-80907761D01*
X146386562Y-80757876D01*
X146386560Y-80757874D01*
X146197404Y-80640754D01*
X146197398Y-80640752D01*
X146186714Y-80636613D01*
X145989940Y-80560382D01*
X145771243Y-80519500D01*
X145548757Y-80519500D01*
X145330060Y-80560382D01*
X145198864Y-80611207D01*
X145122601Y-80640752D01*
X145122595Y-80640754D01*
X144933439Y-80757874D01*
X144933437Y-80757876D01*
X144769020Y-80907761D01*
X144634943Y-81085308D01*
X144634938Y-81085316D01*
X144535775Y-81284461D01*
X144535769Y-81284476D01*
X144474885Y-81498462D01*
X144474884Y-81498464D01*
X144454357Y-81719999D01*
X134500500Y-81719999D01*
X134500500Y-78999997D01*
X136695034Y-78999997D01*
X136695034Y-79000002D01*
X136714858Y-79226599D01*
X136714860Y-79226610D01*
X136773730Y-79446317D01*
X136773735Y-79446331D01*
X136869863Y-79652478D01*
X136920974Y-79725472D01*
X137600000Y-79046446D01*
X137600000Y-79052661D01*
X137627259Y-79154394D01*
X137679920Y-79245606D01*
X137754394Y-79320080D01*
X137845606Y-79372741D01*
X137947339Y-79400000D01*
X137953553Y-79400000D01*
X137274526Y-80079025D01*
X137347513Y-80130132D01*
X137347521Y-80130136D01*
X137553668Y-80226264D01*
X137553682Y-80226269D01*
X137773389Y-80285139D01*
X137773400Y-80285141D01*
X137999998Y-80304966D01*
X138000002Y-80304966D01*
X138226599Y-80285141D01*
X138226610Y-80285139D01*
X138446317Y-80226269D01*
X138446331Y-80226264D01*
X138652478Y-80130136D01*
X138725471Y-80079024D01*
X138046447Y-79400000D01*
X138052661Y-79400000D01*
X138154394Y-79372741D01*
X138245606Y-79320080D01*
X138320080Y-79245606D01*
X138372741Y-79154394D01*
X138400000Y-79052661D01*
X138400000Y-79046447D01*
X139079024Y-79725471D01*
X139130136Y-79652478D01*
X139226264Y-79446331D01*
X139226269Y-79446317D01*
X139285139Y-79226610D01*
X139285141Y-79226599D01*
X139304966Y-79000002D01*
X139304966Y-78999997D01*
X139285141Y-78773400D01*
X139285139Y-78773389D01*
X139226269Y-78553682D01*
X139226264Y-78553668D01*
X139130136Y-78347521D01*
X139130132Y-78347513D01*
X139079025Y-78274526D01*
X138400000Y-78953551D01*
X138400000Y-78947339D01*
X138372741Y-78845606D01*
X138320080Y-78754394D01*
X138245606Y-78679920D01*
X138154394Y-78627259D01*
X138052661Y-78600000D01*
X138046448Y-78600000D01*
X138725472Y-77920974D01*
X138652478Y-77869863D01*
X138446331Y-77773735D01*
X138446317Y-77773730D01*
X138226610Y-77714860D01*
X138226599Y-77714858D01*
X138000002Y-77695034D01*
X137999998Y-77695034D01*
X137773400Y-77714858D01*
X137773389Y-77714860D01*
X137553682Y-77773730D01*
X137553673Y-77773734D01*
X137347516Y-77869866D01*
X137347512Y-77869868D01*
X137274526Y-77920973D01*
X137274526Y-77920974D01*
X137953553Y-78600000D01*
X137947339Y-78600000D01*
X137845606Y-78627259D01*
X137754394Y-78679920D01*
X137679920Y-78754394D01*
X137627259Y-78845606D01*
X137600000Y-78947339D01*
X137600000Y-78953552D01*
X136920974Y-78274526D01*
X136920973Y-78274526D01*
X136869868Y-78347512D01*
X136869866Y-78347516D01*
X136773734Y-78553673D01*
X136773730Y-78553682D01*
X136714860Y-78773389D01*
X136714858Y-78773400D01*
X136695034Y-78999997D01*
X134500500Y-78999997D01*
X134500500Y-76872135D01*
X150979500Y-76872135D01*
X150979500Y-78567870D01*
X150979501Y-78567876D01*
X150985908Y-78627483D01*
X151036202Y-78762328D01*
X151036206Y-78762335D01*
X151122452Y-78877544D01*
X151122455Y-78877547D01*
X151237664Y-78963793D01*
X151237671Y-78963797D01*
X151372517Y-79014091D01*
X151372516Y-79014091D01*
X151379444Y-79014835D01*
X151432127Y-79020500D01*
X153127872Y-79020499D01*
X153187483Y-79014091D01*
X153322331Y-78963796D01*
X153437546Y-78877546D01*
X153523796Y-78762331D01*
X153574091Y-78627483D01*
X153580500Y-78567873D01*
X153580499Y-77469999D01*
X161161127Y-77469999D01*
X161161128Y-77470000D01*
X162124314Y-77470000D01*
X162119920Y-77474394D01*
X162067259Y-77565606D01*
X162040000Y-77667339D01*
X162040000Y-77772661D01*
X162067259Y-77874394D01*
X162119920Y-77965606D01*
X162124314Y-77970000D01*
X161161128Y-77970000D01*
X161213730Y-78166317D01*
X161213734Y-78166326D01*
X161309865Y-78372482D01*
X161440342Y-78558820D01*
X161601179Y-78719657D01*
X161787517Y-78850134D01*
X161993673Y-78946265D01*
X161993682Y-78946269D01*
X162189999Y-78998872D01*
X162190000Y-78998871D01*
X162190000Y-78035686D01*
X162194394Y-78040080D01*
X162285606Y-78092741D01*
X162387339Y-78120000D01*
X162492661Y-78120000D01*
X162594394Y-78092741D01*
X162685606Y-78040080D01*
X162690000Y-78035686D01*
X162690000Y-78998872D01*
X162886317Y-78946269D01*
X162886326Y-78946265D01*
X163092482Y-78850134D01*
X163278820Y-78719657D01*
X163439657Y-78558820D01*
X163570134Y-78372482D01*
X163666265Y-78166326D01*
X163666269Y-78166317D01*
X163718872Y-77970000D01*
X162755686Y-77970000D01*
X162760080Y-77965606D01*
X162812741Y-77874394D01*
X162840000Y-77772661D01*
X162840000Y-77667339D01*
X162812741Y-77565606D01*
X162760080Y-77474394D01*
X162755686Y-77470000D01*
X163718872Y-77470000D01*
X163718872Y-77469999D01*
X163666269Y-77273682D01*
X163666265Y-77273673D01*
X163570134Y-77067517D01*
X163439657Y-76881179D01*
X163278820Y-76720342D01*
X163092482Y-76589865D01*
X162886328Y-76493734D01*
X162690000Y-76441127D01*
X162690000Y-77404314D01*
X162685606Y-77399920D01*
X162594394Y-77347259D01*
X162492661Y-77320000D01*
X162387339Y-77320000D01*
X162285606Y-77347259D01*
X162194394Y-77399920D01*
X162190000Y-77404314D01*
X162190000Y-76441127D01*
X161993671Y-76493734D01*
X161787517Y-76589865D01*
X161601179Y-76720342D01*
X161440342Y-76881179D01*
X161309865Y-77067517D01*
X161213734Y-77273673D01*
X161213730Y-77273682D01*
X161161127Y-77469999D01*
X153580499Y-77469999D01*
X153580499Y-76872128D01*
X153574091Y-76812517D01*
X153531689Y-76698832D01*
X153523797Y-76677671D01*
X153523793Y-76677664D01*
X153437547Y-76562455D01*
X153437544Y-76562452D01*
X153322335Y-76476206D01*
X153322328Y-76476202D01*
X153187482Y-76425908D01*
X153187483Y-76425908D01*
X153127883Y-76419501D01*
X153127881Y-76419500D01*
X153127873Y-76419500D01*
X153127864Y-76419500D01*
X151432129Y-76419500D01*
X151432123Y-76419501D01*
X151372516Y-76425908D01*
X151237671Y-76476202D01*
X151237664Y-76476206D01*
X151122455Y-76562452D01*
X151122452Y-76562455D01*
X151036206Y-76677664D01*
X151036202Y-76677671D01*
X150985908Y-76812517D01*
X150982782Y-76841600D01*
X150979501Y-76872123D01*
X150979500Y-76872135D01*
X134500500Y-76872135D01*
X134500500Y-75381902D01*
X134474857Y-75219999D01*
X140574357Y-75219999D01*
X140574357Y-75220000D01*
X140594884Y-75441535D01*
X140594885Y-75441537D01*
X140655769Y-75655523D01*
X140655775Y-75655538D01*
X140754938Y-75854683D01*
X140754943Y-75854691D01*
X140889020Y-76032238D01*
X141053437Y-76182123D01*
X141053439Y-76182125D01*
X141242595Y-76299245D01*
X141242596Y-76299245D01*
X141242599Y-76299247D01*
X141450060Y-76379618D01*
X141668757Y-76420500D01*
X141668759Y-76420500D01*
X141891241Y-76420500D01*
X141891243Y-76420500D01*
X142109940Y-76379618D01*
X142317401Y-76299247D01*
X142506562Y-76182124D01*
X142670981Y-76032236D01*
X142805058Y-75854689D01*
X142904229Y-75655528D01*
X142965115Y-75441536D01*
X142985643Y-75220000D01*
X142985643Y-75219999D01*
X148194357Y-75219999D01*
X148194357Y-75220000D01*
X148214884Y-75441535D01*
X148214885Y-75441537D01*
X148275769Y-75655523D01*
X148275775Y-75655538D01*
X148374938Y-75854683D01*
X148374943Y-75854691D01*
X148509020Y-76032238D01*
X148673437Y-76182123D01*
X148673439Y-76182125D01*
X148862595Y-76299245D01*
X148862596Y-76299245D01*
X148862599Y-76299247D01*
X149070060Y-76379618D01*
X149288757Y-76420500D01*
X149288759Y-76420500D01*
X149511241Y-76420500D01*
X149511243Y-76420500D01*
X149729940Y-76379618D01*
X149937401Y-76299247D01*
X150126562Y-76182124D01*
X150290981Y-76032236D01*
X150425058Y-75854689D01*
X150524229Y-75655528D01*
X150585115Y-75441536D01*
X150605643Y-75220000D01*
X150603027Y-75191773D01*
X150585115Y-74998464D01*
X150585114Y-74998462D01*
X150524230Y-74784476D01*
X150524229Y-74784472D01*
X150524224Y-74784461D01*
X150425061Y-74585316D01*
X150425056Y-74585308D01*
X150290979Y-74407761D01*
X150126562Y-74257876D01*
X150126560Y-74257874D01*
X149937404Y-74140754D01*
X149937398Y-74140752D01*
X149729940Y-74060382D01*
X149511243Y-74019500D01*
X149288757Y-74019500D01*
X149070060Y-74060382D01*
X148947299Y-74107940D01*
X148862601Y-74140752D01*
X148862595Y-74140754D01*
X148673439Y-74257874D01*
X148673437Y-74257876D01*
X148509020Y-74407761D01*
X148374943Y-74585308D01*
X148374938Y-74585316D01*
X148275775Y-74784461D01*
X148275769Y-74784476D01*
X148214885Y-74998462D01*
X148214884Y-74998464D01*
X148194357Y-75219999D01*
X142985643Y-75219999D01*
X142983027Y-75191773D01*
X142965115Y-74998464D01*
X142965114Y-74998462D01*
X142904230Y-74784476D01*
X142904229Y-74784472D01*
X142904224Y-74784461D01*
X142805061Y-74585316D01*
X142805056Y-74585308D01*
X142670979Y-74407761D01*
X142506562Y-74257876D01*
X142506560Y-74257874D01*
X142317404Y-74140754D01*
X142317398Y-74140752D01*
X142109940Y-74060382D01*
X141891243Y-74019500D01*
X141668757Y-74019500D01*
X141450060Y-74060382D01*
X141327299Y-74107940D01*
X141242601Y-74140752D01*
X141242595Y-74140754D01*
X141053439Y-74257874D01*
X141053437Y-74257876D01*
X140889020Y-74407761D01*
X140754943Y-74585308D01*
X140754938Y-74585316D01*
X140655775Y-74784461D01*
X140655769Y-74784476D01*
X140594885Y-74998462D01*
X140594884Y-74998464D01*
X140574357Y-75219999D01*
X134474857Y-75219999D01*
X134463553Y-75148631D01*
X134390566Y-74924003D01*
X134305381Y-74756819D01*
X134283343Y-74713567D01*
X134144517Y-74522490D01*
X133977510Y-74355483D01*
X133786433Y-74216657D01*
X133784802Y-74215826D01*
X133575996Y-74109433D01*
X133351368Y-74036446D01*
X133118097Y-73999500D01*
X133118092Y-73999500D01*
X132881908Y-73999500D01*
X132881903Y-73999500D01*
X132648631Y-74036446D01*
X132424003Y-74109433D01*
X132213566Y-74216657D01*
X132156834Y-74257876D01*
X132022490Y-74355483D01*
X132022488Y-74355485D01*
X132022487Y-74355485D01*
X131855485Y-74522487D01*
X131855485Y-74522488D01*
X131855483Y-74522490D01*
X131835424Y-74550099D01*
X131716657Y-74713566D01*
X131609433Y-74924003D01*
X131536446Y-75148631D01*
X131499500Y-75381902D01*
X131499500Y-85375500D01*
X131479815Y-85442539D01*
X131427011Y-85488294D01*
X131375500Y-85499500D01*
X128672889Y-85499500D01*
X128605850Y-85479815D01*
X128585208Y-85463181D01*
X128536819Y-85414792D01*
X128503334Y-85353469D01*
X128500500Y-85327111D01*
X128500500Y-84530708D01*
X128520185Y-84463669D01*
X128572989Y-84417914D01*
X128642147Y-84407970D01*
X128705703Y-84436995D01*
X128741541Y-84489753D01*
X128777778Y-84593313D01*
X128791878Y-84633606D01*
X128884853Y-84781576D01*
X129008424Y-84905147D01*
X129156394Y-84998122D01*
X129321343Y-85055841D01*
X129321349Y-85055841D01*
X129321351Y-85055842D01*
X129362750Y-85060506D01*
X129451442Y-85070499D01*
X129451445Y-85070500D01*
X129451448Y-85070500D01*
X130088555Y-85070500D01*
X130088556Y-85070499D01*
X130218657Y-85055841D01*
X130383606Y-84998122D01*
X130531576Y-84905147D01*
X130655147Y-84781576D01*
X130748122Y-84633606D01*
X130805841Y-84468657D01*
X130820500Y-84338552D01*
X130820500Y-83001448D01*
X130805841Y-82871343D01*
X130748122Y-82706394D01*
X130655147Y-82558424D01*
X130531576Y-82434853D01*
X130383606Y-82341878D01*
X130383605Y-82341877D01*
X130383604Y-82341877D01*
X130218658Y-82284159D01*
X130218648Y-82284157D01*
X130088558Y-82269500D01*
X130088552Y-82269500D01*
X129674000Y-82269500D01*
X129606961Y-82249815D01*
X129561206Y-82197011D01*
X129550000Y-82145500D01*
X129550000Y-81850000D01*
X128846410Y-81850000D01*
X128800075Y-81769745D01*
X128730255Y-81699925D01*
X128644745Y-81650556D01*
X128549370Y-81625000D01*
X128450630Y-81625000D01*
X128355255Y-81650556D01*
X128269745Y-81699925D01*
X128199925Y-81769745D01*
X128153590Y-81850000D01*
X127450000Y-81850000D01*
X127450000Y-81906883D01*
X127430315Y-81973922D01*
X127377511Y-82019677D01*
X127308353Y-82029621D01*
X127306602Y-82029356D01*
X127118097Y-81999500D01*
X127118092Y-81999500D01*
X126881908Y-81999500D01*
X126881903Y-81999500D01*
X126648631Y-82036446D01*
X126424003Y-82109433D01*
X126213566Y-82216657D01*
X126120659Y-82284159D01*
X126022490Y-82355483D01*
X126022488Y-82355485D01*
X126022487Y-82355485D01*
X125855482Y-82522490D01*
X125852039Y-82527230D01*
X125796706Y-82569891D01*
X125727092Y-82575865D01*
X125665299Y-82543255D01*
X125664045Y-82542018D01*
X125000511Y-81878484D01*
X124968539Y-81855255D01*
X124809434Y-81739657D01*
X124764294Y-81716657D01*
X124598996Y-81632433D01*
X124374368Y-81559446D01*
X124141097Y-81522500D01*
X124141092Y-81522500D01*
X122273066Y-81522500D01*
X122253663Y-81520972D01*
X122249133Y-81520254D01*
X122241429Y-81519034D01*
X122240426Y-81518871D01*
X122124335Y-81499500D01*
X121875665Y-81499500D01*
X121875664Y-81499500D01*
X121759571Y-81518871D01*
X121758562Y-81519035D01*
X121648633Y-81536446D01*
X121643893Y-81537584D01*
X121643846Y-81537388D01*
X121633599Y-81539892D01*
X121630388Y-81540428D01*
X121525443Y-81576454D01*
X121523503Y-81577102D01*
X121424005Y-81609432D01*
X121424001Y-81609434D01*
X121420659Y-81611137D01*
X121404658Y-81617920D01*
X121395195Y-81621169D01*
X121303550Y-81670764D01*
X121300831Y-81672192D01*
X121213562Y-81716659D01*
X121213558Y-81716661D01*
X121205071Y-81722827D01*
X121191222Y-81731552D01*
X121176497Y-81739522D01*
X121176493Y-81739524D01*
X121176491Y-81739526D01*
X121137665Y-81769745D01*
X121099549Y-81799411D01*
X121096275Y-81801873D01*
X121022487Y-81855484D01*
X121010299Y-81867672D01*
X120998790Y-81877835D01*
X120980257Y-81892260D01*
X120980256Y-81892261D01*
X120918776Y-81959045D01*
X120915231Y-81962740D01*
X120855483Y-82022488D01*
X120841389Y-82041886D01*
X120832312Y-82052969D01*
X120811835Y-82075216D01*
X120811831Y-82075221D01*
X120765879Y-82145555D01*
X120762390Y-82150617D01*
X120716656Y-82213565D01*
X120702711Y-82240935D01*
X120696036Y-82252460D01*
X120675826Y-82283393D01*
X120644764Y-82354206D01*
X120641694Y-82360688D01*
X120609435Y-82423999D01*
X120609432Y-82424009D01*
X120597859Y-82459623D01*
X120593486Y-82471109D01*
X120575939Y-82511112D01*
X120575936Y-82511123D01*
X120558605Y-82579557D01*
X120556331Y-82587432D01*
X120536448Y-82648625D01*
X120529536Y-82692260D01*
X120527269Y-82703295D01*
X120514893Y-82752171D01*
X120514892Y-82752177D01*
X120514892Y-82752179D01*
X120509615Y-82815854D01*
X120508514Y-82824995D01*
X120499500Y-82881903D01*
X120499500Y-82932809D01*
X120499076Y-82943050D01*
X120494357Y-82999995D01*
X110500500Y-82999995D01*
X110500500Y-80931469D01*
X127450000Y-80931469D01*
X127450000Y-81350000D01*
X128250000Y-81350000D01*
X128750000Y-81350000D01*
X129550000Y-81350000D01*
X129550000Y-80931473D01*
X129549999Y-80931469D01*
X129535351Y-80801460D01*
X129477669Y-80636613D01*
X129384753Y-80488737D01*
X129261262Y-80365246D01*
X129113386Y-80272330D01*
X128948539Y-80214648D01*
X128818530Y-80200000D01*
X128750000Y-80200000D01*
X128750000Y-81350000D01*
X128250000Y-81350000D01*
X128250000Y-80200000D01*
X128181469Y-80200000D01*
X128051460Y-80214648D01*
X127886613Y-80272330D01*
X127738737Y-80365246D01*
X127615246Y-80488737D01*
X127522330Y-80636613D01*
X127464648Y-80801460D01*
X127450000Y-80931469D01*
X110500500Y-80931469D01*
X110500500Y-75725135D01*
X111001500Y-75725135D01*
X111001500Y-77320870D01*
X111001501Y-77320876D01*
X111007908Y-77380483D01*
X111058202Y-77515328D01*
X111058206Y-77515335D01*
X111144452Y-77630544D01*
X111144455Y-77630547D01*
X111259664Y-77716793D01*
X111259671Y-77716797D01*
X111394517Y-77767091D01*
X111394516Y-77767091D01*
X111401444Y-77767835D01*
X111454127Y-77773500D01*
X113749872Y-77773499D01*
X113809483Y-77767091D01*
X113944331Y-77716796D01*
X114059546Y-77630546D01*
X114145796Y-77515331D01*
X114196091Y-77380483D01*
X114202500Y-77320873D01*
X114202499Y-75725128D01*
X114196091Y-75665517D01*
X114192365Y-75655528D01*
X114145797Y-75530671D01*
X114145793Y-75530664D01*
X114059547Y-75415455D01*
X114059544Y-75415452D01*
X113944335Y-75329206D01*
X113944328Y-75329202D01*
X113809482Y-75278908D01*
X113809483Y-75278908D01*
X113749883Y-75272501D01*
X113749881Y-75272500D01*
X113749873Y-75272500D01*
X113749864Y-75272500D01*
X111454129Y-75272500D01*
X111454123Y-75272501D01*
X111394516Y-75278908D01*
X111259671Y-75329202D01*
X111259664Y-75329206D01*
X111144455Y-75415452D01*
X111144452Y-75415455D01*
X111058206Y-75530664D01*
X111058202Y-75530671D01*
X111007908Y-75665517D01*
X111001501Y-75725116D01*
X111001501Y-75725123D01*
X111001500Y-75725135D01*
X110500500Y-75725135D01*
X110500500Y-70299393D01*
X110520185Y-70232354D01*
X110572989Y-70186599D01*
X110642147Y-70176655D01*
X110705703Y-70205680D01*
X110734984Y-70243097D01*
X110766035Y-70304038D01*
X110790877Y-70352793D01*
X111002122Y-70678082D01*
X111123104Y-70827482D01*
X111246219Y-70979516D01*
X111520484Y-71253781D01*
X111576588Y-71299213D01*
X111821917Y-71497877D01*
X112139835Y-71704335D01*
X112147211Y-71709125D01*
X112492806Y-71885214D01*
X112854913Y-72024214D01*
X113229567Y-72124602D01*
X113612662Y-72185278D01*
X113978576Y-72204455D01*
X113999999Y-72205578D01*
X114000000Y-72205578D01*
X114000001Y-72205578D01*
X114020301Y-72204514D01*
X114387338Y-72185278D01*
X114411690Y-72181421D01*
X118732500Y-72181421D01*
X118732500Y-72900000D01*
X120482500Y-72900000D01*
X120482500Y-73400000D01*
X118732501Y-73400000D01*
X118732501Y-74118588D01*
X118735294Y-74171191D01*
X118779737Y-74400987D01*
X118862379Y-74619975D01*
X118980839Y-74821841D01*
X118980844Y-74821848D01*
X119131711Y-75000786D01*
X119131713Y-75000788D01*
X119310651Y-75151655D01*
X119310658Y-75151660D01*
X119512524Y-75270120D01*
X119731512Y-75352762D01*
X119961309Y-75397205D01*
X120013882Y-75399998D01*
X120013921Y-75399999D01*
X120732499Y-75399999D01*
X120732500Y-75399998D01*
X120732500Y-74583012D01*
X120789507Y-74615925D01*
X120916674Y-74650000D01*
X121048326Y-74650000D01*
X121175493Y-74615925D01*
X121232500Y-74583012D01*
X121232500Y-75399999D01*
X121951076Y-75399999D01*
X121951088Y-75399998D01*
X122003691Y-75397205D01*
X122233487Y-75352762D01*
X122452472Y-75270121D01*
X122595241Y-75186341D01*
X122663023Y-75169389D01*
X122729210Y-75191773D01*
X122772789Y-75246387D01*
X122782000Y-75293287D01*
X122782000Y-76810098D01*
X122762315Y-76877137D01*
X122709511Y-76922892D01*
X122640353Y-76932836D01*
X122608195Y-76923656D01*
X122604812Y-76922172D01*
X122369616Y-76841429D01*
X122124335Y-76800500D01*
X121875665Y-76800500D01*
X121630383Y-76841429D01*
X121395197Y-76922169D01*
X121395188Y-76922172D01*
X121176493Y-77040524D01*
X120980257Y-77193261D01*
X120980256Y-77193262D01*
X120969452Y-77204997D01*
X120811833Y-77376217D01*
X120675826Y-77584393D01*
X120575936Y-77812118D01*
X120514892Y-78053175D01*
X120514890Y-78053187D01*
X120494357Y-78300994D01*
X120494357Y-78301005D01*
X120514890Y-78548812D01*
X120514892Y-78548824D01*
X120575936Y-78789881D01*
X120675826Y-79017606D01*
X120811833Y-79225782D01*
X120844245Y-79260991D01*
X120980256Y-79408738D01*
X121176491Y-79561474D01*
X121395190Y-79679828D01*
X121630386Y-79760571D01*
X121875665Y-79801500D01*
X122124335Y-79801500D01*
X122369614Y-79760571D01*
X122604810Y-79679828D01*
X122823509Y-79561474D01*
X123019744Y-79408738D01*
X123188164Y-79225785D01*
X123324173Y-79017607D01*
X123424063Y-78789881D01*
X123485108Y-78548821D01*
X123496232Y-78414565D01*
X123521384Y-78349385D01*
X123577786Y-78308146D01*
X123647530Y-78303947D01*
X123663589Y-78308795D01*
X123781374Y-78353245D01*
X124011259Y-78397705D01*
X124063878Y-78400500D01*
X124063886Y-78400500D01*
X126001114Y-78400500D01*
X126001122Y-78400500D01*
X126053741Y-78397705D01*
X126283626Y-78353245D01*
X126502690Y-78270574D01*
X126704632Y-78152070D01*
X126811851Y-78061671D01*
X126883641Y-78001143D01*
X126883643Y-78001141D01*
X127034565Y-77822138D01*
X127034565Y-77822137D01*
X127034570Y-77822132D01*
X127153074Y-77620190D01*
X127235745Y-77401126D01*
X127280205Y-77171241D01*
X127283000Y-77118622D01*
X127283000Y-75181378D01*
X127280205Y-75128759D01*
X127235745Y-74898874D01*
X127153074Y-74679810D01*
X127034570Y-74477868D01*
X127034565Y-74477861D01*
X126883643Y-74298858D01*
X126883641Y-74298856D01*
X126704638Y-74147934D01*
X126704631Y-74147929D01*
X126502689Y-74029425D01*
X126412332Y-73995326D01*
X126283626Y-73946755D01*
X126253833Y-73940993D01*
X126053743Y-73902295D01*
X126001152Y-73899501D01*
X126001129Y-73899500D01*
X126001122Y-73899500D01*
X124063878Y-73899500D01*
X124063870Y-73899500D01*
X124063847Y-73899501D01*
X124011256Y-73902295D01*
X124011255Y-73902295D01*
X123781378Y-73946754D01*
X123781376Y-73946754D01*
X123781374Y-73946755D01*
X123707433Y-73974659D01*
X123562310Y-74029425D01*
X123419258Y-74113372D01*
X123351476Y-74130324D01*
X123285289Y-74107940D01*
X123241711Y-74053325D01*
X123232500Y-74006426D01*
X123232500Y-73400000D01*
X121482500Y-73400000D01*
X121482500Y-72900000D01*
X123232499Y-72900000D01*
X123232499Y-72181423D01*
X123232498Y-72181411D01*
X123229705Y-72128809D01*
X123228377Y-72121939D01*
X123234973Y-72052382D01*
X123278128Y-71997432D01*
X123344140Y-71974537D01*
X123407845Y-71989719D01*
X123408051Y-71989267D01*
X123410372Y-71990321D01*
X123411319Y-71990547D01*
X123413124Y-71991571D01*
X123617980Y-72084622D01*
X123836167Y-72139599D01*
X123968310Y-72149999D01*
X124782499Y-72149999D01*
X124782500Y-72149998D01*
X124782500Y-70650000D01*
X125282500Y-70650000D01*
X125282500Y-72149999D01*
X126096682Y-72149999D01*
X126096697Y-72149998D01*
X126228832Y-72139599D01*
X126447019Y-72084622D01*
X126651874Y-71991571D01*
X126651880Y-71991568D01*
X126836823Y-71863440D01*
X126836835Y-71863430D01*
X126995930Y-71704335D01*
X126995940Y-71704323D01*
X127124068Y-71519380D01*
X127124071Y-71519374D01*
X127217122Y-71314519D01*
X127272099Y-71096332D01*
X127282499Y-70964196D01*
X127282500Y-70964184D01*
X127282500Y-70400000D01*
X126465512Y-70400000D01*
X126498425Y-70342993D01*
X126532500Y-70215826D01*
X126532500Y-70084174D01*
X126498425Y-69957007D01*
X126465512Y-69900000D01*
X127282499Y-69900000D01*
X127282499Y-69335817D01*
X127282498Y-69335802D01*
X127273384Y-69219998D01*
X132714390Y-69219998D01*
X132714390Y-69220001D01*
X132734804Y-69505433D01*
X132795628Y-69785037D01*
X132795630Y-69785043D01*
X132795631Y-69785046D01*
X132868345Y-69980000D01*
X132895635Y-70053166D01*
X133032770Y-70304309D01*
X133032775Y-70304317D01*
X133204254Y-70533387D01*
X133204270Y-70533405D01*
X133406594Y-70735729D01*
X133406612Y-70735745D01*
X133635682Y-70907224D01*
X133635690Y-70907229D01*
X133886833Y-71044364D01*
X133886832Y-71044364D01*
X133886836Y-71044365D01*
X133886839Y-71044367D01*
X134154954Y-71144369D01*
X134154960Y-71144370D01*
X134154962Y-71144371D01*
X134434566Y-71205195D01*
X134434568Y-71205195D01*
X134434572Y-71205196D01*
X134688220Y-71223337D01*
X134719999Y-71225610D01*
X134720000Y-71225610D01*
X134720001Y-71225610D01*
X134748595Y-71223564D01*
X135005428Y-71205196D01*
X135195742Y-71163796D01*
X135285037Y-71144371D01*
X135285037Y-71144370D01*
X135285046Y-71144369D01*
X135553161Y-71044367D01*
X135804315Y-70907226D01*
X136033395Y-70735739D01*
X136235739Y-70533395D01*
X136407226Y-70304315D01*
X136544367Y-70053161D01*
X136644369Y-69785046D01*
X136705196Y-69505428D01*
X136725610Y-69220000D01*
X136725610Y-69219998D01*
X137794390Y-69219998D01*
X137794390Y-69220001D01*
X137814804Y-69505433D01*
X137875628Y-69785037D01*
X137875630Y-69785043D01*
X137875631Y-69785046D01*
X137948345Y-69980000D01*
X137975635Y-70053166D01*
X138112770Y-70304309D01*
X138112775Y-70304317D01*
X138284254Y-70533387D01*
X138284270Y-70533405D01*
X138486594Y-70735729D01*
X138486612Y-70735745D01*
X138715682Y-70907224D01*
X138715690Y-70907229D01*
X138966833Y-71044364D01*
X138966832Y-71044364D01*
X138966836Y-71044365D01*
X138966839Y-71044367D01*
X139234954Y-71144369D01*
X139234960Y-71144370D01*
X139234962Y-71144371D01*
X139514566Y-71205195D01*
X139514568Y-71205195D01*
X139514572Y-71205196D01*
X139768220Y-71223337D01*
X139799999Y-71225610D01*
X139800000Y-71225610D01*
X139800001Y-71225610D01*
X139828595Y-71223564D01*
X140085428Y-71205196D01*
X140275742Y-71163796D01*
X140365037Y-71144371D01*
X140365037Y-71144370D01*
X140365046Y-71144369D01*
X140633161Y-71044367D01*
X140884315Y-70907226D01*
X141113395Y-70735739D01*
X141315739Y-70533395D01*
X141487226Y-70304315D01*
X141624367Y-70053161D01*
X141724369Y-69785046D01*
X141785196Y-69505428D01*
X141805610Y-69220000D01*
X141805610Y-69219998D01*
X142874891Y-69219998D01*
X142874891Y-69220001D01*
X142895300Y-69505362D01*
X142956109Y-69784895D01*
X143056091Y-70052958D01*
X143193191Y-70304038D01*
X143193196Y-70304046D01*
X143299882Y-70446561D01*
X143299883Y-70446562D01*
X144194767Y-69551677D01*
X144206497Y-69579995D01*
X144289670Y-69704472D01*
X144395528Y-69810330D01*
X144520005Y-69893503D01*
X144548320Y-69905231D01*
X143653436Y-70800115D01*
X143795960Y-70906807D01*
X143795961Y-70906808D01*
X144047042Y-71043908D01*
X144047041Y-71043908D01*
X144315104Y-71143890D01*
X144594637Y-71204699D01*
X144879999Y-71225109D01*
X144880001Y-71225109D01*
X145165362Y-71204699D01*
X145444895Y-71143890D01*
X145712958Y-71043908D01*
X145964047Y-70906803D01*
X146106561Y-70800116D01*
X146106562Y-70800115D01*
X145211679Y-69905231D01*
X145239995Y-69893503D01*
X145364472Y-69810330D01*
X145470330Y-69704472D01*
X145553503Y-69579995D01*
X145565231Y-69551678D01*
X146460115Y-70446562D01*
X146460116Y-70446561D01*
X146566803Y-70304047D01*
X146703908Y-70052958D01*
X146803890Y-69784895D01*
X146864699Y-69505362D01*
X146885109Y-69220001D01*
X146885109Y-69219998D01*
X147954891Y-69219998D01*
X147954891Y-69220001D01*
X147975300Y-69505362D01*
X148036109Y-69784895D01*
X148136091Y-70052958D01*
X148273191Y-70304038D01*
X148273196Y-70304046D01*
X148379882Y-70446561D01*
X148379883Y-70446562D01*
X149274767Y-69551677D01*
X149286497Y-69579995D01*
X149369670Y-69704472D01*
X149475528Y-69810330D01*
X149600005Y-69893503D01*
X149628320Y-69905231D01*
X148733436Y-70800115D01*
X148875960Y-70906807D01*
X148875961Y-70906808D01*
X149127042Y-71043908D01*
X149127041Y-71043908D01*
X149395104Y-71143890D01*
X149674637Y-71204699D01*
X149959999Y-71225109D01*
X149960001Y-71225109D01*
X150245362Y-71204699D01*
X150524895Y-71143890D01*
X150792958Y-71043908D01*
X151044047Y-70906803D01*
X151186561Y-70800116D01*
X151186562Y-70800115D01*
X150291679Y-69905231D01*
X150319995Y-69893503D01*
X150444472Y-69810330D01*
X150550330Y-69704472D01*
X150633503Y-69579995D01*
X150645231Y-69551678D01*
X151540115Y-70446562D01*
X151540116Y-70446561D01*
X151646803Y-70304047D01*
X151783908Y-70052958D01*
X151883890Y-69784895D01*
X151944699Y-69505362D01*
X151965109Y-69220001D01*
X151965109Y-69219998D01*
X153034390Y-69219998D01*
X153034390Y-69220001D01*
X153054804Y-69505433D01*
X153115628Y-69785037D01*
X153115630Y-69785043D01*
X153115631Y-69785046D01*
X153188345Y-69980000D01*
X153215635Y-70053166D01*
X153352770Y-70304309D01*
X153352775Y-70304317D01*
X153524254Y-70533387D01*
X153524270Y-70533405D01*
X153726594Y-70735729D01*
X153726612Y-70735745D01*
X153955680Y-70907223D01*
X153955682Y-70907224D01*
X153955685Y-70907226D01*
X153974926Y-70917732D01*
X154024331Y-70967134D01*
X154039500Y-71026564D01*
X154039500Y-73078541D01*
X154039500Y-73078543D01*
X154039499Y-73078543D01*
X154077947Y-73271829D01*
X154077950Y-73271839D01*
X154153364Y-73453907D01*
X154153371Y-73453920D01*
X154262860Y-73617781D01*
X154262863Y-73617785D01*
X154406537Y-73761459D01*
X154406559Y-73761479D01*
X154999735Y-74354655D01*
X154999764Y-74354686D01*
X155142214Y-74497136D01*
X155142218Y-74497139D01*
X155306079Y-74606628D01*
X155306092Y-74606635D01*
X155434833Y-74659961D01*
X155488159Y-74682049D01*
X155488164Y-74682051D01*
X155550423Y-74694435D01*
X155583182Y-74700951D01*
X155681456Y-74720500D01*
X155681459Y-74720500D01*
X155681460Y-74720500D01*
X155878540Y-74720500D01*
X162774218Y-74720500D01*
X162841257Y-74740185D01*
X162861899Y-74756819D01*
X166178181Y-78073102D01*
X166211666Y-78134425D01*
X166214500Y-78160783D01*
X166214500Y-78517869D01*
X166214501Y-78517876D01*
X166220908Y-78577483D01*
X166271202Y-78712328D01*
X166271206Y-78712335D01*
X166357452Y-78827544D01*
X166357455Y-78827547D01*
X166472664Y-78913793D01*
X166472671Y-78913797D01*
X166607517Y-78964091D01*
X166607516Y-78964091D01*
X166614444Y-78964835D01*
X166667127Y-78970500D01*
X167812872Y-78970499D01*
X167872483Y-78964091D01*
X168007331Y-78913796D01*
X168008430Y-78912972D01*
X168009717Y-78912492D01*
X168015112Y-78909547D01*
X168015535Y-78910322D01*
X168073887Y-78888552D01*
X168130198Y-78897673D01*
X168210873Y-78931091D01*
X168376777Y-78964091D01*
X168408992Y-78970499D01*
X168408996Y-78970500D01*
X168408997Y-78970500D01*
X168611004Y-78970500D01*
X168611005Y-78970499D01*
X168809127Y-78931091D01*
X168995756Y-78853786D01*
X169076562Y-78799792D01*
X169143234Y-78778917D01*
X169210614Y-78797401D01*
X169214340Y-78799795D01*
X169294479Y-78853343D01*
X169294486Y-78853347D01*
X169481016Y-78930609D01*
X169481025Y-78930612D01*
X169530000Y-78940353D01*
X169530000Y-78085865D01*
X169532383Y-78061671D01*
X169534073Y-78053179D01*
X169535500Y-78046003D01*
X169535500Y-78005830D01*
X169549745Y-78020075D01*
X169635255Y-78069444D01*
X169730630Y-78095000D01*
X169829370Y-78095000D01*
X169924745Y-78069444D01*
X170010255Y-78020075D01*
X170030000Y-78000330D01*
X170030000Y-78940352D01*
X170078974Y-78930612D01*
X170078983Y-78930609D01*
X170265513Y-78853347D01*
X170265526Y-78853340D01*
X170433399Y-78741170D01*
X170433403Y-78741167D01*
X170576167Y-78598403D01*
X170576170Y-78598399D01*
X170688340Y-78430526D01*
X170688347Y-78430513D01*
X170765609Y-78243983D01*
X170765612Y-78243974D01*
X170804999Y-78045958D01*
X170805000Y-78045955D01*
X170805000Y-77970000D01*
X170060330Y-77970000D01*
X170080075Y-77950255D01*
X170129444Y-77864745D01*
X170155000Y-77769370D01*
X170155000Y-77670630D01*
X170129444Y-77575255D01*
X170080075Y-77489745D01*
X170060330Y-77470000D01*
X170805000Y-77470000D01*
X170805000Y-77394045D01*
X170804999Y-77394041D01*
X170765612Y-77196025D01*
X170765609Y-77196016D01*
X170688347Y-77009486D01*
X170688340Y-77009473D01*
X170576170Y-76841600D01*
X170576167Y-76841596D01*
X170433403Y-76698832D01*
X170433399Y-76698829D01*
X170265526Y-76586659D01*
X170265513Y-76586652D01*
X170078984Y-76509390D01*
X170078977Y-76509388D01*
X170030000Y-76499645D01*
X170030000Y-77439670D01*
X170010255Y-77419925D01*
X169924745Y-77370556D01*
X169829370Y-77345000D01*
X169730630Y-77345000D01*
X169635255Y-77370556D01*
X169549745Y-77419925D01*
X169535500Y-77434170D01*
X169535500Y-77393997D01*
X169532383Y-77378326D01*
X169530000Y-77354134D01*
X169530000Y-76499646D01*
X169529999Y-76499645D01*
X169481022Y-76509388D01*
X169481015Y-76509390D01*
X169294481Y-76586654D01*
X169294479Y-76586655D01*
X169214337Y-76640204D01*
X169147660Y-76661081D01*
X169080280Y-76642596D01*
X169076558Y-76640204D01*
X168995754Y-76586212D01*
X168809127Y-76508909D01*
X168809119Y-76508907D01*
X168611007Y-76469500D01*
X168611003Y-76469500D01*
X168408997Y-76469500D01*
X168408992Y-76469500D01*
X168210880Y-76508907D01*
X168210868Y-76508910D01*
X168130198Y-76542325D01*
X168060729Y-76549794D01*
X168015342Y-76530036D01*
X168015114Y-76530454D01*
X168010447Y-76527905D01*
X168008432Y-76527028D01*
X168007331Y-76526204D01*
X168007330Y-76526203D01*
X168007328Y-76526202D01*
X167872482Y-76475908D01*
X167872483Y-76475908D01*
X167812883Y-76469501D01*
X167812881Y-76469500D01*
X167812873Y-76469500D01*
X167812865Y-76469500D01*
X167455783Y-76469500D01*
X167388744Y-76449815D01*
X167368102Y-76433181D01*
X165064867Y-74129947D01*
X173285000Y-74129947D01*
X173285000Y-74648000D01*
X174285000Y-74648000D01*
X174285000Y-75148000D01*
X173285000Y-75148000D01*
X173285000Y-75666052D01*
X173321934Y-75899247D01*
X173394897Y-76123802D01*
X173502085Y-76334171D01*
X173640866Y-76525186D01*
X173807813Y-76692133D01*
X173998828Y-76830914D01*
X174209195Y-76938102D01*
X174433744Y-77011063D01*
X174433750Y-77011065D01*
X174535000Y-77027101D01*
X174535000Y-75981012D01*
X174592007Y-76013925D01*
X174719174Y-76048000D01*
X174850826Y-76048000D01*
X174977993Y-76013925D01*
X175035000Y-75981012D01*
X175035000Y-77027100D01*
X175136249Y-77011065D01*
X175136255Y-77011063D01*
X175360804Y-76938102D01*
X175571171Y-76830914D01*
X175762186Y-76692133D01*
X175929133Y-76525186D01*
X176067914Y-76334171D01*
X176175102Y-76123802D01*
X176248065Y-75899247D01*
X176285000Y-75666052D01*
X176285000Y-75148000D01*
X175285000Y-75148000D01*
X175285000Y-74648000D01*
X176285000Y-74648000D01*
X176285000Y-74529902D01*
X178999500Y-74529902D01*
X178999500Y-75266097D01*
X179036446Y-75499368D01*
X179109433Y-75723996D01*
X179176022Y-75854683D01*
X179216657Y-75934433D01*
X179355483Y-76125510D01*
X179522490Y-76292517D01*
X179713567Y-76431343D01*
X179801031Y-76475908D01*
X179924003Y-76538566D01*
X179924005Y-76538566D01*
X179924008Y-76538568D01*
X180018736Y-76569347D01*
X180148631Y-76611553D01*
X180381903Y-76648500D01*
X180381908Y-76648500D01*
X180618097Y-76648500D01*
X180851368Y-76611553D01*
X181075992Y-76538568D01*
X181286433Y-76431343D01*
X181477510Y-76292517D01*
X181644517Y-76125510D01*
X181783343Y-75934433D01*
X181890568Y-75723992D01*
X181963553Y-75499368D01*
X182000500Y-75266097D01*
X182000500Y-74529902D01*
X181963553Y-74296631D01*
X181915238Y-74147934D01*
X181909394Y-74129947D01*
X184715000Y-74129947D01*
X184715000Y-74648000D01*
X185715000Y-74648000D01*
X185715000Y-75148000D01*
X184715000Y-75148000D01*
X184715000Y-75666052D01*
X184751934Y-75899247D01*
X184824897Y-76123802D01*
X184932085Y-76334171D01*
X185070866Y-76525186D01*
X185237813Y-76692133D01*
X185428828Y-76830914D01*
X185639195Y-76938102D01*
X185863744Y-77011063D01*
X185863750Y-77011065D01*
X185965000Y-77027101D01*
X185965000Y-75981012D01*
X186022007Y-76013925D01*
X186149174Y-76048000D01*
X186280826Y-76048000D01*
X186407993Y-76013925D01*
X186465000Y-75981012D01*
X186465000Y-77027100D01*
X186566249Y-77011065D01*
X186566255Y-77011063D01*
X186790804Y-76938102D01*
X187001171Y-76830914D01*
X187192186Y-76692133D01*
X187359133Y-76525186D01*
X187359138Y-76525180D01*
X187399682Y-76469377D01*
X187455012Y-76426711D01*
X187524625Y-76420732D01*
X187586420Y-76453337D01*
X187600318Y-76469377D01*
X187640861Y-76525180D01*
X187640866Y-76525186D01*
X187807813Y-76692133D01*
X187998828Y-76830914D01*
X188209195Y-76938102D01*
X188433744Y-77011063D01*
X188433750Y-77011065D01*
X188535000Y-77027101D01*
X188535000Y-75981012D01*
X188592007Y-76013925D01*
X188719174Y-76048000D01*
X188850826Y-76048000D01*
X188977993Y-76013925D01*
X189035000Y-75981012D01*
X189035000Y-77027100D01*
X189136249Y-77011065D01*
X189136255Y-77011063D01*
X189360804Y-76938102D01*
X189571171Y-76830914D01*
X189762186Y-76692133D01*
X189929133Y-76525186D01*
X190067914Y-76334171D01*
X190175102Y-76123802D01*
X190248065Y-75899247D01*
X190285000Y-75666052D01*
X190285000Y-75148000D01*
X189285000Y-75148000D01*
X189285000Y-74648000D01*
X190285000Y-74648000D01*
X190285000Y-74529902D01*
X192999500Y-74529902D01*
X192999500Y-75266097D01*
X193036446Y-75499368D01*
X193109433Y-75723996D01*
X193176022Y-75854683D01*
X193216657Y-75934433D01*
X193355483Y-76125510D01*
X193522490Y-76292517D01*
X193713567Y-76431343D01*
X193801031Y-76475908D01*
X193924003Y-76538566D01*
X193924005Y-76538566D01*
X193924008Y-76538568D01*
X194018736Y-76569347D01*
X194148631Y-76611553D01*
X194381903Y-76648500D01*
X194381908Y-76648500D01*
X194618097Y-76648500D01*
X194851368Y-76611553D01*
X195075992Y-76538568D01*
X195286433Y-76431343D01*
X195477510Y-76292517D01*
X195644517Y-76125510D01*
X195783343Y-75934433D01*
X195890568Y-75723992D01*
X195963553Y-75499368D01*
X196000500Y-75266097D01*
X196000500Y-74529902D01*
X195963553Y-74296631D01*
X195915238Y-74147934D01*
X195909394Y-74129947D01*
X198715000Y-74129947D01*
X198715000Y-74648000D01*
X199715000Y-74648000D01*
X199715000Y-75148000D01*
X198715000Y-75148000D01*
X198715000Y-75666052D01*
X198751934Y-75899247D01*
X198824897Y-76123802D01*
X198932085Y-76334171D01*
X199070866Y-76525186D01*
X199237813Y-76692133D01*
X199428828Y-76830914D01*
X199639195Y-76938102D01*
X199863744Y-77011063D01*
X199863750Y-77011065D01*
X199965000Y-77027101D01*
X199965000Y-75981012D01*
X200022007Y-76013925D01*
X200149174Y-76048000D01*
X200280826Y-76048000D01*
X200407993Y-76013925D01*
X200465000Y-75981012D01*
X200465000Y-77027100D01*
X200566249Y-77011065D01*
X200566255Y-77011063D01*
X200790804Y-76938102D01*
X201001171Y-76830914D01*
X201192186Y-76692133D01*
X201359133Y-76525186D01*
X201497914Y-76334171D01*
X201605102Y-76123802D01*
X201678065Y-75899247D01*
X201715000Y-75666052D01*
X201715000Y-75148000D01*
X200715000Y-75148000D01*
X200715000Y-74648000D01*
X201715000Y-74648000D01*
X201715000Y-74129947D01*
X201678065Y-73896752D01*
X201605102Y-73672197D01*
X201497914Y-73461828D01*
X201359133Y-73270813D01*
X201192186Y-73103866D01*
X201001171Y-72965085D01*
X200790802Y-72857897D01*
X200566247Y-72784934D01*
X200465000Y-72768897D01*
X200465000Y-73814988D01*
X200407993Y-73782075D01*
X200280826Y-73748000D01*
X200149174Y-73748000D01*
X200022007Y-73782075D01*
X199965000Y-73814988D01*
X199965000Y-72768897D01*
X199863752Y-72784934D01*
X199639197Y-72857897D01*
X199428828Y-72965085D01*
X199237813Y-73103866D01*
X199070866Y-73270813D01*
X198932085Y-73461828D01*
X198824897Y-73672197D01*
X198751934Y-73896752D01*
X198715000Y-74129947D01*
X195909394Y-74129947D01*
X195890568Y-74072008D01*
X195890566Y-74072005D01*
X195890566Y-74072003D01*
X195826748Y-73946754D01*
X195783343Y-73861567D01*
X195644517Y-73670490D01*
X195477510Y-73503483D01*
X195286433Y-73364657D01*
X195075996Y-73257433D01*
X194851368Y-73184446D01*
X194618097Y-73147500D01*
X194618092Y-73147500D01*
X194381908Y-73147500D01*
X194381903Y-73147500D01*
X194148631Y-73184446D01*
X193924003Y-73257433D01*
X193713566Y-73364657D01*
X193604550Y-73443862D01*
X193522490Y-73503483D01*
X193522488Y-73503485D01*
X193522487Y-73503485D01*
X193355485Y-73670487D01*
X193355485Y-73670488D01*
X193355483Y-73670490D01*
X193354243Y-73672197D01*
X193216657Y-73861566D01*
X193109433Y-74072003D01*
X193036446Y-74296631D01*
X192999500Y-74529902D01*
X190285000Y-74529902D01*
X190285000Y-74129947D01*
X190248065Y-73896752D01*
X190175102Y-73672197D01*
X190067914Y-73461828D01*
X189929133Y-73270813D01*
X189762186Y-73103866D01*
X189571171Y-72965085D01*
X189360802Y-72857897D01*
X189136247Y-72784934D01*
X189035000Y-72768897D01*
X189035000Y-73814988D01*
X188977993Y-73782075D01*
X188850826Y-73748000D01*
X188719174Y-73748000D01*
X188592007Y-73782075D01*
X188535000Y-73814988D01*
X188535000Y-72768897D01*
X188433752Y-72784934D01*
X188209197Y-72857897D01*
X187998828Y-72965085D01*
X187807813Y-73103866D01*
X187640865Y-73270814D01*
X187600318Y-73326623D01*
X187544987Y-73369288D01*
X187475374Y-73375267D01*
X187413579Y-73342661D01*
X187399682Y-73326623D01*
X187359134Y-73270814D01*
X187192186Y-73103866D01*
X187001171Y-72965085D01*
X186790802Y-72857897D01*
X186566247Y-72784934D01*
X186465000Y-72768897D01*
X186465000Y-73814988D01*
X186407993Y-73782075D01*
X186280826Y-73748000D01*
X186149174Y-73748000D01*
X186022007Y-73782075D01*
X185965000Y-73814988D01*
X185965000Y-72768897D01*
X185863752Y-72784934D01*
X185639197Y-72857897D01*
X185428828Y-72965085D01*
X185237813Y-73103866D01*
X185070866Y-73270813D01*
X184932085Y-73461828D01*
X184824897Y-73672197D01*
X184751934Y-73896752D01*
X184715000Y-74129947D01*
X181909394Y-74129947D01*
X181890568Y-74072008D01*
X181890566Y-74072005D01*
X181890566Y-74072003D01*
X181826748Y-73946754D01*
X181783343Y-73861567D01*
X181644517Y-73670490D01*
X181477510Y-73503483D01*
X181286433Y-73364657D01*
X181075996Y-73257433D01*
X180851368Y-73184446D01*
X180618097Y-73147500D01*
X180618092Y-73147500D01*
X180381908Y-73147500D01*
X180381903Y-73147500D01*
X180148631Y-73184446D01*
X179924003Y-73257433D01*
X179713566Y-73364657D01*
X179604550Y-73443862D01*
X179522490Y-73503483D01*
X179522488Y-73503485D01*
X179522487Y-73503485D01*
X179355485Y-73670487D01*
X179355485Y-73670488D01*
X179355483Y-73670490D01*
X179354243Y-73672197D01*
X179216657Y-73861566D01*
X179109433Y-74072003D01*
X179036446Y-74296631D01*
X178999500Y-74529902D01*
X176285000Y-74529902D01*
X176285000Y-74129947D01*
X176248065Y-73896752D01*
X176175102Y-73672197D01*
X176067914Y-73461828D01*
X175929133Y-73270813D01*
X175762186Y-73103866D01*
X175571171Y-72965085D01*
X175360802Y-72857897D01*
X175136247Y-72784934D01*
X175035000Y-72768897D01*
X175035000Y-73814988D01*
X174977993Y-73782075D01*
X174850826Y-73748000D01*
X174719174Y-73748000D01*
X174592007Y-73782075D01*
X174535000Y-73814988D01*
X174535000Y-72768897D01*
X174433752Y-72784934D01*
X174209197Y-72857897D01*
X173998828Y-72965085D01*
X173807813Y-73103866D01*
X173640866Y-73270813D01*
X173502085Y-73461828D01*
X173394897Y-73672197D01*
X173321934Y-73896752D01*
X173285000Y-74129947D01*
X165064867Y-74129947D01*
X164024209Y-73089289D01*
X164024206Y-73089285D01*
X164024206Y-73089286D01*
X164017139Y-73082219D01*
X164017139Y-73082218D01*
X163877782Y-72942861D01*
X163877781Y-72942860D01*
X163877780Y-72942859D01*
X163713920Y-72833371D01*
X163713911Y-72833366D01*
X163641315Y-72803296D01*
X163585165Y-72780038D01*
X163531836Y-72757949D01*
X163531832Y-72757948D01*
X163531828Y-72757946D01*
X163435188Y-72738724D01*
X163338544Y-72719500D01*
X163338541Y-72719500D01*
X156245782Y-72719500D01*
X156178743Y-72699815D01*
X156158101Y-72683181D01*
X156076819Y-72601899D01*
X156043334Y-72540576D01*
X156040500Y-72514218D01*
X156040500Y-71026564D01*
X156060185Y-70959525D01*
X156105072Y-70917732D01*
X156124315Y-70907226D01*
X156353395Y-70735739D01*
X156555739Y-70533395D01*
X156727226Y-70304315D01*
X156864367Y-70053161D01*
X156964369Y-69785046D01*
X157025196Y-69505428D01*
X157045610Y-69220000D01*
X157045610Y-69219998D01*
X158114891Y-69219998D01*
X158114891Y-69220001D01*
X158135300Y-69505362D01*
X158196109Y-69784895D01*
X158296091Y-70052958D01*
X158433191Y-70304038D01*
X158433196Y-70304046D01*
X158539882Y-70446561D01*
X158539883Y-70446562D01*
X159434767Y-69551677D01*
X159446497Y-69579995D01*
X159529670Y-69704472D01*
X159635528Y-69810330D01*
X159760005Y-69893503D01*
X159788320Y-69905231D01*
X158893436Y-70800115D01*
X159035960Y-70906807D01*
X159035961Y-70906808D01*
X159287042Y-71043908D01*
X159287041Y-71043908D01*
X159555104Y-71143890D01*
X159834637Y-71204699D01*
X160119999Y-71225109D01*
X160120001Y-71225109D01*
X160405362Y-71204699D01*
X160684895Y-71143890D01*
X160952958Y-71043908D01*
X161204047Y-70906803D01*
X161346561Y-70800116D01*
X161346562Y-70800115D01*
X160451679Y-69905231D01*
X160479995Y-69893503D01*
X160604472Y-69810330D01*
X160710330Y-69704472D01*
X160793503Y-69579995D01*
X160805231Y-69551678D01*
X161700115Y-70446562D01*
X161700116Y-70446561D01*
X161806803Y-70304047D01*
X161943908Y-70052958D01*
X162043890Y-69784895D01*
X162104699Y-69505362D01*
X162125109Y-69220001D01*
X162125109Y-69219998D01*
X163194390Y-69219998D01*
X163194390Y-69220001D01*
X163214804Y-69505433D01*
X163275628Y-69785037D01*
X163275630Y-69785043D01*
X163275631Y-69785046D01*
X163348345Y-69980000D01*
X163375635Y-70053166D01*
X163512770Y-70304309D01*
X163512775Y-70304317D01*
X163684254Y-70533387D01*
X163684270Y-70533405D01*
X163886594Y-70735729D01*
X163886612Y-70735745D01*
X164115682Y-70907224D01*
X164115690Y-70907229D01*
X164366833Y-71044364D01*
X164366832Y-71044364D01*
X164366836Y-71044365D01*
X164366839Y-71044367D01*
X164634954Y-71144369D01*
X164634960Y-71144370D01*
X164634962Y-71144371D01*
X164914566Y-71205195D01*
X164914568Y-71205195D01*
X164914572Y-71205196D01*
X165168220Y-71223337D01*
X165199999Y-71225610D01*
X165200000Y-71225610D01*
X165200001Y-71225610D01*
X165228595Y-71223564D01*
X165485428Y-71205196D01*
X165675742Y-71163796D01*
X165765037Y-71144371D01*
X165765037Y-71144370D01*
X165765046Y-71144369D01*
X166033161Y-71044367D01*
X166284315Y-70907226D01*
X166513395Y-70735739D01*
X166715739Y-70533395D01*
X166887226Y-70304315D01*
X167024367Y-70053161D01*
X167124369Y-69785046D01*
X167185196Y-69505428D01*
X167205610Y-69220000D01*
X167185196Y-68934572D01*
X167124369Y-68654954D01*
X167024367Y-68386839D01*
X166930741Y-68215377D01*
X166887229Y-68135690D01*
X166887224Y-68135682D01*
X166715745Y-67906612D01*
X166715729Y-67906594D01*
X166513405Y-67704270D01*
X166513387Y-67704254D01*
X166470481Y-67672135D01*
X168279500Y-67672135D01*
X168279500Y-70767870D01*
X168279501Y-70767876D01*
X168285908Y-70827483D01*
X168336202Y-70962328D01*
X168336206Y-70962335D01*
X168422452Y-71077544D01*
X168422455Y-71077547D01*
X168537664Y-71163793D01*
X168537671Y-71163797D01*
X168672517Y-71214091D01*
X168672516Y-71214091D01*
X168679444Y-71214835D01*
X168732127Y-71220500D01*
X171827872Y-71220499D01*
X171887483Y-71214091D01*
X172022331Y-71163796D01*
X172137546Y-71077546D01*
X172223796Y-70962331D01*
X172274091Y-70827483D01*
X172280500Y-70767873D01*
X172280499Y-67672128D01*
X172274091Y-67612517D01*
X172244506Y-67533196D01*
X172223797Y-67477671D01*
X172223793Y-67477664D01*
X172137547Y-67362455D01*
X172137544Y-67362452D01*
X172022335Y-67276206D01*
X172022328Y-67276202D01*
X171887482Y-67225908D01*
X171887483Y-67225908D01*
X171827883Y-67219501D01*
X171827881Y-67219500D01*
X171827873Y-67219500D01*
X171827864Y-67219500D01*
X168732129Y-67219500D01*
X168732123Y-67219501D01*
X168672516Y-67225908D01*
X168537671Y-67276202D01*
X168537664Y-67276206D01*
X168422455Y-67362452D01*
X168422452Y-67362455D01*
X168336206Y-67477664D01*
X168336202Y-67477671D01*
X168285908Y-67612517D01*
X168279501Y-67672116D01*
X168279501Y-67672123D01*
X168279500Y-67672135D01*
X166470481Y-67672135D01*
X166284317Y-67532775D01*
X166284309Y-67532770D01*
X166033166Y-67395635D01*
X166033167Y-67395635D01*
X165923965Y-67354905D01*
X165765046Y-67295631D01*
X165765043Y-67295630D01*
X165765037Y-67295628D01*
X165485433Y-67234804D01*
X165200001Y-67214390D01*
X165199999Y-67214390D01*
X164914566Y-67234804D01*
X164634962Y-67295628D01*
X164366833Y-67395635D01*
X164115690Y-67532770D01*
X164115682Y-67532775D01*
X163886612Y-67704254D01*
X163886594Y-67704270D01*
X163684270Y-67906594D01*
X163684254Y-67906612D01*
X163512775Y-68135682D01*
X163512770Y-68135690D01*
X163375635Y-68386833D01*
X163275628Y-68654962D01*
X163214804Y-68934566D01*
X163194390Y-69219998D01*
X162125109Y-69219998D01*
X162104699Y-68934637D01*
X162043890Y-68655104D01*
X161943908Y-68387041D01*
X161806808Y-68135961D01*
X161806807Y-68135960D01*
X161700115Y-67993436D01*
X160805231Y-68888320D01*
X160793503Y-68860005D01*
X160710330Y-68735528D01*
X160604472Y-68629670D01*
X160479995Y-68546497D01*
X160451678Y-68534767D01*
X161346562Y-67639883D01*
X161346561Y-67639882D01*
X161204046Y-67533196D01*
X161204038Y-67533191D01*
X160952957Y-67396091D01*
X160952958Y-67396091D01*
X160684895Y-67296109D01*
X160405362Y-67235300D01*
X160120001Y-67214891D01*
X160119999Y-67214891D01*
X159834637Y-67235300D01*
X159555104Y-67296109D01*
X159287041Y-67396091D01*
X159035961Y-67533191D01*
X159035953Y-67533196D01*
X158893437Y-67639882D01*
X158893436Y-67639883D01*
X159788321Y-68534767D01*
X159760005Y-68546497D01*
X159635528Y-68629670D01*
X159529670Y-68735528D01*
X159446497Y-68860005D01*
X159434768Y-68888321D01*
X158539883Y-67993436D01*
X158539882Y-67993437D01*
X158433196Y-68135953D01*
X158433191Y-68135961D01*
X158296091Y-68387041D01*
X158196109Y-68655104D01*
X158135300Y-68934637D01*
X158114891Y-69219998D01*
X157045610Y-69219998D01*
X157025196Y-68934572D01*
X156964369Y-68654954D01*
X156864367Y-68386839D01*
X156770741Y-68215377D01*
X156727229Y-68135690D01*
X156727224Y-68135682D01*
X156555745Y-67906612D01*
X156555729Y-67906594D01*
X156353405Y-67704270D01*
X156353387Y-67704254D01*
X156124317Y-67532775D01*
X156124309Y-67532770D01*
X155873166Y-67395635D01*
X155873167Y-67395635D01*
X155763965Y-67354905D01*
X155605046Y-67295631D01*
X155605043Y-67295630D01*
X155605037Y-67295628D01*
X155325433Y-67234804D01*
X155040001Y-67214390D01*
X155039999Y-67214390D01*
X154754566Y-67234804D01*
X154474962Y-67295628D01*
X154206833Y-67395635D01*
X153955690Y-67532770D01*
X153955682Y-67532775D01*
X153726612Y-67704254D01*
X153726594Y-67704270D01*
X153524270Y-67906594D01*
X153524254Y-67906612D01*
X153352775Y-68135682D01*
X153352770Y-68135690D01*
X153215635Y-68386833D01*
X153115628Y-68654962D01*
X153054804Y-68934566D01*
X153034390Y-69219998D01*
X151965109Y-69219998D01*
X151944699Y-68934637D01*
X151883890Y-68655104D01*
X151783908Y-68387041D01*
X151646808Y-68135961D01*
X151646807Y-68135960D01*
X151540115Y-67993436D01*
X150645231Y-68888320D01*
X150633503Y-68860005D01*
X150550330Y-68735528D01*
X150444472Y-68629670D01*
X150319995Y-68546497D01*
X150291678Y-68534767D01*
X151186562Y-67639883D01*
X151186561Y-67639882D01*
X151044046Y-67533196D01*
X151044038Y-67533191D01*
X150792957Y-67396091D01*
X150792958Y-67396091D01*
X150524895Y-67296109D01*
X150245362Y-67235300D01*
X149960001Y-67214891D01*
X149959999Y-67214891D01*
X149674637Y-67235300D01*
X149395104Y-67296109D01*
X149127041Y-67396091D01*
X148875961Y-67533191D01*
X148875953Y-67533196D01*
X148733437Y-67639882D01*
X148733436Y-67639883D01*
X149628321Y-68534767D01*
X149600005Y-68546497D01*
X149475528Y-68629670D01*
X149369670Y-68735528D01*
X149286497Y-68860005D01*
X149274768Y-68888321D01*
X148379883Y-67993436D01*
X148379882Y-67993437D01*
X148273196Y-68135953D01*
X148273191Y-68135961D01*
X148136091Y-68387041D01*
X148036109Y-68655104D01*
X147975300Y-68934637D01*
X147954891Y-69219998D01*
X146885109Y-69219998D01*
X146864699Y-68934637D01*
X146803890Y-68655104D01*
X146703908Y-68387041D01*
X146566808Y-68135961D01*
X146566807Y-68135960D01*
X146460115Y-67993436D01*
X145565231Y-68888320D01*
X145553503Y-68860005D01*
X145470330Y-68735528D01*
X145364472Y-68629670D01*
X145239995Y-68546497D01*
X145211678Y-68534767D01*
X146106562Y-67639883D01*
X146106561Y-67639882D01*
X145964046Y-67533196D01*
X145964038Y-67533191D01*
X145712957Y-67396091D01*
X145712958Y-67396091D01*
X145444895Y-67296109D01*
X145165362Y-67235300D01*
X144880001Y-67214891D01*
X144879999Y-67214891D01*
X144594637Y-67235300D01*
X144315104Y-67296109D01*
X144047041Y-67396091D01*
X143795961Y-67533191D01*
X143795953Y-67533196D01*
X143653437Y-67639882D01*
X143653436Y-67639883D01*
X144548321Y-68534767D01*
X144520005Y-68546497D01*
X144395528Y-68629670D01*
X144289670Y-68735528D01*
X144206497Y-68860005D01*
X144194768Y-68888321D01*
X143299883Y-67993436D01*
X143299882Y-67993437D01*
X143193196Y-68135953D01*
X143193191Y-68135961D01*
X143056091Y-68387041D01*
X142956109Y-68655104D01*
X142895300Y-68934637D01*
X142874891Y-69219998D01*
X141805610Y-69219998D01*
X141785196Y-68934572D01*
X141724369Y-68654954D01*
X141624367Y-68386839D01*
X141530741Y-68215377D01*
X141487229Y-68135690D01*
X141487224Y-68135682D01*
X141315745Y-67906612D01*
X141315729Y-67906594D01*
X141113405Y-67704270D01*
X141113387Y-67704254D01*
X140884317Y-67532775D01*
X140884309Y-67532770D01*
X140633166Y-67395635D01*
X140633167Y-67395635D01*
X140523965Y-67354905D01*
X140365046Y-67295631D01*
X140365043Y-67295630D01*
X140365037Y-67295628D01*
X140085433Y-67234804D01*
X139800001Y-67214390D01*
X139799999Y-67214390D01*
X139514566Y-67234804D01*
X139234962Y-67295628D01*
X138966833Y-67395635D01*
X138715690Y-67532770D01*
X138715682Y-67532775D01*
X138486612Y-67704254D01*
X138486594Y-67704270D01*
X138284270Y-67906594D01*
X138284254Y-67906612D01*
X138112775Y-68135682D01*
X138112770Y-68135690D01*
X137975635Y-68386833D01*
X137875628Y-68654962D01*
X137814804Y-68934566D01*
X137794390Y-69219998D01*
X136725610Y-69219998D01*
X136705196Y-68934572D01*
X136644369Y-68654954D01*
X136544367Y-68386839D01*
X136450741Y-68215377D01*
X136407229Y-68135690D01*
X136407224Y-68135682D01*
X136235745Y-67906612D01*
X136235729Y-67906594D01*
X136033405Y-67704270D01*
X136033387Y-67704254D01*
X135804317Y-67532775D01*
X135804309Y-67532770D01*
X135553166Y-67395635D01*
X135553167Y-67395635D01*
X135443965Y-67354905D01*
X135285046Y-67295631D01*
X135285043Y-67295630D01*
X135285037Y-67295628D01*
X135005433Y-67234804D01*
X134720001Y-67214390D01*
X134719999Y-67214390D01*
X134434566Y-67234804D01*
X134154962Y-67295628D01*
X133886833Y-67395635D01*
X133635690Y-67532770D01*
X133635682Y-67532775D01*
X133406612Y-67704254D01*
X133406594Y-67704270D01*
X133204270Y-67906594D01*
X133204254Y-67906612D01*
X133032775Y-68135682D01*
X133032770Y-68135690D01*
X132895635Y-68386833D01*
X132795628Y-68654962D01*
X132734804Y-68934566D01*
X132714390Y-69219998D01*
X127273384Y-69219998D01*
X127272099Y-69203667D01*
X127217122Y-68985480D01*
X127124071Y-68780625D01*
X127124068Y-68780619D01*
X126995940Y-68595676D01*
X126995930Y-68595664D01*
X126836835Y-68436569D01*
X126836823Y-68436559D01*
X126651880Y-68308431D01*
X126651874Y-68308428D01*
X126447019Y-68215377D01*
X126228832Y-68160400D01*
X126096696Y-68150000D01*
X125282500Y-68150000D01*
X125282500Y-69650000D01*
X124782500Y-69650000D01*
X124782500Y-68150000D01*
X123968317Y-68150000D01*
X123968302Y-68150001D01*
X123836167Y-68160400D01*
X123617980Y-68215377D01*
X123413125Y-68308428D01*
X123413119Y-68308431D01*
X123228176Y-68436559D01*
X123228164Y-68436569D01*
X123069069Y-68595664D01*
X123069059Y-68595676D01*
X122940931Y-68780619D01*
X122940928Y-68780625D01*
X122847877Y-68985480D01*
X122792900Y-69203667D01*
X122782500Y-69335803D01*
X122782500Y-69900000D01*
X123599488Y-69900000D01*
X123566575Y-69957007D01*
X123532500Y-70084174D01*
X123532500Y-70215826D01*
X123566575Y-70342993D01*
X123599488Y-70400000D01*
X122782501Y-70400000D01*
X122782501Y-70964200D01*
X122785249Y-70999116D01*
X122770884Y-71067493D01*
X122721831Y-71117249D01*
X122653666Y-71132587D01*
X122598873Y-71115789D01*
X122452475Y-71029879D01*
X122233487Y-70947237D01*
X122003690Y-70902794D01*
X121951117Y-70900001D01*
X121951079Y-70900000D01*
X121232500Y-70900000D01*
X121232500Y-71716988D01*
X121175493Y-71684075D01*
X121048326Y-71650000D01*
X120916674Y-71650000D01*
X120789507Y-71684075D01*
X120732500Y-71716988D01*
X120732500Y-70900000D01*
X120013923Y-70900000D01*
X120013911Y-70900001D01*
X119961308Y-70902794D01*
X119731512Y-70947237D01*
X119512524Y-71029879D01*
X119310658Y-71148339D01*
X119310651Y-71148344D01*
X119131713Y-71299211D01*
X119131711Y-71299213D01*
X118980844Y-71478151D01*
X118980839Y-71478158D01*
X118862379Y-71680024D01*
X118779737Y-71899012D01*
X118735294Y-72128808D01*
X118735294Y-72128809D01*
X118732501Y-72181382D01*
X118732500Y-72181421D01*
X114411690Y-72181421D01*
X114770433Y-72124602D01*
X115145087Y-72024214D01*
X115507194Y-71885214D01*
X115852789Y-71709125D01*
X116178084Y-71497876D01*
X116479516Y-71253781D01*
X116753781Y-70979516D01*
X116997876Y-70678084D01*
X117209125Y-70352789D01*
X117385214Y-70007194D01*
X117524214Y-69645087D01*
X117624602Y-69270433D01*
X117685278Y-68887338D01*
X117705578Y-68500000D01*
X117685278Y-68112662D01*
X117624602Y-67729567D01*
X117524214Y-67354913D01*
X117385214Y-66992806D01*
X117209125Y-66647211D01*
X117207126Y-66644133D01*
X116997877Y-66321917D01*
X116753784Y-66020488D01*
X116753781Y-66020484D01*
X116479516Y-65746219D01*
X116178084Y-65502124D01*
X116178082Y-65502122D01*
X115852793Y-65290877D01*
X115772567Y-65250000D01*
X177770898Y-65250000D01*
X178849999Y-65250000D01*
X178824979Y-65310402D01*
X178800000Y-65435981D01*
X178800000Y-65564019D01*
X178824979Y-65689598D01*
X178849999Y-65750000D01*
X177770898Y-65750000D01*
X177786934Y-65851247D01*
X177859897Y-66075802D01*
X177967085Y-66286171D01*
X178105866Y-66477186D01*
X178272813Y-66644133D01*
X178463828Y-66782914D01*
X178674197Y-66890102D01*
X178898752Y-66963065D01*
X178898751Y-66963065D01*
X179131948Y-67000000D01*
X180250000Y-67000000D01*
X180250000Y-66150000D01*
X180750000Y-66150000D01*
X180750000Y-67000000D01*
X181868052Y-67000000D01*
X182101247Y-66963065D01*
X182325802Y-66890102D01*
X182536171Y-66782914D01*
X182727186Y-66644133D01*
X182894133Y-66477186D01*
X183032914Y-66286171D01*
X183140102Y-66075802D01*
X183213065Y-65851247D01*
X183229102Y-65750000D01*
X182150001Y-65750000D01*
X182175021Y-65689598D01*
X182200000Y-65564019D01*
X182200000Y-65435981D01*
X182175021Y-65310402D01*
X182150001Y-65250000D01*
X183229102Y-65250000D01*
X191770898Y-65250000D01*
X192849999Y-65250000D01*
X192824979Y-65310402D01*
X192800000Y-65435981D01*
X192800000Y-65564019D01*
X192824979Y-65689598D01*
X192849999Y-65750000D01*
X191770898Y-65750000D01*
X191786934Y-65851247D01*
X191859897Y-66075802D01*
X191967085Y-66286171D01*
X192105866Y-66477186D01*
X192272813Y-66644133D01*
X192463828Y-66782914D01*
X192674197Y-66890102D01*
X192898752Y-66963065D01*
X192898751Y-66963065D01*
X193131948Y-67000000D01*
X194250000Y-67000000D01*
X194250000Y-66150000D01*
X194750000Y-66150000D01*
X194750000Y-67000000D01*
X195868052Y-67000000D01*
X196101247Y-66963065D01*
X196325802Y-66890102D01*
X196536171Y-66782914D01*
X196727186Y-66644133D01*
X196894133Y-66477186D01*
X197032914Y-66286171D01*
X197140102Y-66075802D01*
X197213065Y-65851247D01*
X197229102Y-65750000D01*
X196150001Y-65750000D01*
X196175021Y-65689598D01*
X196200000Y-65564019D01*
X196200000Y-65435981D01*
X196175021Y-65310402D01*
X196150001Y-65250000D01*
X197229102Y-65250000D01*
X197213065Y-65148752D01*
X197140102Y-64924197D01*
X197032914Y-64713828D01*
X196894133Y-64522813D01*
X196727186Y-64355866D01*
X196536171Y-64217085D01*
X196325802Y-64109897D01*
X196101247Y-64036934D01*
X196101248Y-64036934D01*
X195868052Y-64000000D01*
X194750000Y-64000000D01*
X194750000Y-64850000D01*
X194250000Y-64850000D01*
X194250000Y-64000000D01*
X193131948Y-64000000D01*
X192898752Y-64036934D01*
X192674197Y-64109897D01*
X192463828Y-64217085D01*
X192272813Y-64355866D01*
X192105866Y-64522813D01*
X191967085Y-64713828D01*
X191859897Y-64924197D01*
X191786934Y-65148752D01*
X191770898Y-65250000D01*
X183229102Y-65250000D01*
X183213065Y-65148752D01*
X183140102Y-64924197D01*
X183032914Y-64713828D01*
X182894133Y-64522813D01*
X182727186Y-64355866D01*
X182536171Y-64217085D01*
X182325802Y-64109897D01*
X182101247Y-64036934D01*
X182101248Y-64036934D01*
X181868052Y-64000000D01*
X180750000Y-64000000D01*
X180750000Y-64850000D01*
X180250000Y-64850000D01*
X180250000Y-64000000D01*
X179131948Y-64000000D01*
X178898752Y-64036934D01*
X178674197Y-64109897D01*
X178463828Y-64217085D01*
X178272813Y-64355866D01*
X178105866Y-64522813D01*
X177967085Y-64713828D01*
X177859897Y-64924197D01*
X177786934Y-65148752D01*
X177770898Y-65250000D01*
X115772567Y-65250000D01*
X115507197Y-65114787D01*
X115145094Y-64975788D01*
X115145087Y-64975786D01*
X114770433Y-64875398D01*
X114770429Y-64875397D01*
X114770428Y-64875397D01*
X114387339Y-64814722D01*
X114000001Y-64794422D01*
X113999999Y-64794422D01*
X113612660Y-64814722D01*
X113229572Y-64875397D01*
X113229570Y-64875397D01*
X112854905Y-64975788D01*
X112492802Y-65114787D01*
X112147206Y-65290877D01*
X111821917Y-65502122D01*
X111520488Y-65746215D01*
X111520480Y-65746222D01*
X111246222Y-66020480D01*
X111246215Y-66020488D01*
X111002122Y-66321917D01*
X110790877Y-66647206D01*
X110734985Y-66756901D01*
X110687010Y-66807697D01*
X110619189Y-66824492D01*
X110553054Y-66801955D01*
X110509603Y-66747240D01*
X110500500Y-66700606D01*
X110500500Y-63624500D01*
X110520185Y-63557461D01*
X110572989Y-63511706D01*
X110624500Y-63500500D01*
X208375500Y-63500500D01*
X208442539Y-63520185D01*
G37*
%TD.AperFunction*%
%TD*%
M02*
