M48
; DRILL file {KiCad 8.0.6} date 2025-01-26T17:36:04+0100
; FORMAT={-:-/ absolute / inch / decimal}
; #@! TF.CreationDate,2025-01-26T17:36:04+01:00
; #@! TF.GenerationSoftware,Kicad,Pcbnew,8.0.6
; #@! TF.FileFunction,Plated,1,2,PTH
FMAT,2
INCH
; #@! TA.AperFunction,Plated,PTH,ViaDrill
T1C0.0118
; #@! TA.AperFunction,Plated,PTH,ComponentDrill
T2C0.0236
; #@! TA.AperFunction,Plated,PTH,ComponentDrill
T3C0.0276
; #@! TA.AperFunction,Plated,PTH,ComponentDrill
T4C0.0295
; #@! TA.AperFunction,Plated,PTH,ComponentDrill
T5C0.0315
; #@! TA.AperFunction,Plated,PTH,ComponentDrill
T6C0.0394
; #@! TA.AperFunction,Plated,PTH,ComponentDrill
T7C0.0433
; #@! TA.AperFunction,Plated,PTH,ComponentDrill
T8C0.0472
; #@! TA.AperFunction,Plated,PTH,ComponentDrill
T9C0.0512
; #@! TA.AperFunction,Plated,PTH,ComponentDrill
T10C0.0598
; #@! TA.AperFunction,Plated,PTH,ComponentDrill
T11C0.1260
%
G90
G05
T1
X4.8828Y-3.2686
X5.2362Y-2.9724
X6.5465Y-3.6504
X6.5858Y-3.3354
T3
X4.9437Y-4.4685
X5.2437Y-4.4685
X5.4283Y-4.4685
X5.5819Y-2.9614
X5.7283Y-4.4685
X5.7346Y-3.2173
X5.8819Y-2.9614
X6.0346Y-3.2173
X6.9488Y-3.1102
X7.2488Y-3.1102
T4
X5.0091Y-3.2783
X5.0591Y-3.2283
X5.1091Y-3.2783
X6.5843Y-3.0598
X6.6343Y-3.0598
X6.6843Y-3.0598
T5
X5.4331Y-3.1102
X5.4331Y-3.3071
X5.9953Y-3.0598
X6.2417Y-3.2394
X6.2417Y-3.3394
X6.2417Y-3.4394
X6.2417Y-3.5394
X6.2417Y-3.6394
X6.2417Y-3.7394
X6.2417Y-3.8394
X6.2417Y-3.9394
X6.2417Y-4.0394
X6.2417Y-4.1394
X6.2417Y-4.2394
X6.2417Y-4.3394
X6.3953Y-3.0598
X6.8417Y-3.2394
X6.8417Y-3.3394
X6.8417Y-3.4394
X6.8417Y-3.5394
X6.8417Y-3.6394
X6.8417Y-3.7394
X6.8417Y-3.8394
X6.8417Y-3.9394
X6.8417Y-4.0394
X6.8417Y-4.1394
X6.8417Y-4.2394
X6.8417Y-4.3394
T6
X4.6961Y-3.7006
X4.6961Y-3.8006
X4.6961Y-3.9006
X4.6961Y-4.0006
X4.6961Y-4.1006
X4.6961Y-4.2006
X4.6961Y-4.3006
X5.8181Y-3.4339
X5.9756Y-3.7008
X5.9756Y-3.8008
X5.9756Y-3.9008
X5.9756Y-4.0008
X5.9756Y-4.1008
X5.9756Y-4.2008
X5.9756Y-4.3008
X6.015Y-3.4339
T7
X7.1173Y-3.3748
X7.1173Y-3.552
X7.1173Y-3.8669
X7.1173Y-4.0441
X7.1173Y-4.2409
X7.1173Y-4.4181
X7.3732Y-3.3748
X7.3732Y-3.552
X7.3732Y-3.8669
X7.3732Y-4.0441
X7.3732Y-4.2409
X7.3732Y-4.4181
X7.6094Y-3.3748
X7.6094Y-3.552
X7.6094Y-3.8669
X7.6094Y-4.0441
X7.6094Y-4.2409
X7.6094Y-4.4181
X7.8654Y-3.3748
X7.8654Y-3.552
X7.8654Y-3.8669
X7.8654Y-4.0441
X7.8654Y-4.2409
X7.8654Y-4.4181
T8
X4.8031Y-3.0827
X4.8031Y-3.2677
X4.8031Y-3.4527
T10
X5.3039Y-2.7252
X5.5039Y-2.7252
X5.7039Y-2.7252
X5.9039Y-2.7252
X6.1039Y-2.7252
X6.3039Y-2.7252
X6.5039Y-2.7252
X6.7039Y-2.7252
T11
X4.4882Y-2.6969
X4.4882Y-4.4882
X8.0709Y-2.6969
X8.0709Y-4.4882
T2
G00X4.4509Y-3.0127
M15
G01X4.4154Y-3.0127
M16
G05
G00X4.4509Y-3.5227
M15
G01X4.4154Y-3.5227
M16
G05
T6
G00X4.7631Y-2.8406
M15
G01X4.7631Y-2.9193
M16
G05
G00X4.9619Y-2.7618
M15
G01X4.8832Y-2.7618
M16
G05
G00X4.9619Y-2.998
M15
G01X4.8832Y-2.998
M16
G05
G00X6.8813Y-2.9743
M15
G01X6.8813Y-2.9231
M16
G05
G00X7.1063Y-2.9586
M15
G01X7.1063Y-2.9389
M16
G05
G00X7.3313Y-2.9743
M15
G01X7.3313Y-2.9231
M16
G05
G00X7.4325Y-2.9743
M15
G01X7.4325Y-2.9231
M16
G05
G00X7.6575Y-2.9586
M15
G01X7.6575Y-2.9389
M16
G05
G00X7.8825Y-2.9743
M15
G01X7.8825Y-2.9231
M16
G05
T9
G00X7.065Y-2.5787
M15
G01X7.1476Y-2.5787
M16
G05
G00X7.6161Y-2.5787
M15
G01X7.6988Y-2.5787
M16
G05
M30
